<svg width="8" height="4" viewBox="0 0 8 4" fill="none" xmlns="http://www.w3.org/2000/svg">
<path d="M3.62378 3.77573L0.798778 0.945728C0.751914 0.899247 0.714717 0.843946 0.689332 0.783017C0.663948 0.722087 0.650879 0.656734 0.650879 0.590728C0.650879 0.524722 0.663948 0.45937 0.689332 0.39844C0.714717 0.33751 0.751914 0.28221 0.798778 0.235728C0.892459 0.142603 1.01919 0.090332 1.15128 0.090332C1.28337 0.090332 1.4101 0.142603 1.50378 0.235728L4.00378 2.71073L6.47878 0.235729C6.57246 0.142603 6.69918 0.0903323 6.83128 0.0903323C6.96337 0.0903323 7.0901 0.142603 7.18378 0.235729C7.23102 0.282036 7.26861 0.337258 7.29436 0.398196C7.3201 0.459134 7.3335 0.524575 7.33378 0.590729C7.3335 0.656882 7.3201 0.722324 7.29436 0.783261C7.26861 0.844199 7.23102 0.899421 7.18378 0.945729L4.35878 3.77573C4.31196 3.82648 4.25513 3.86699 4.19188 3.89469C4.12863 3.92239 4.06033 3.9367 3.99128 3.9367C3.92223 3.9367 3.85392 3.92239 3.79067 3.89469C3.72742 3.86699 3.6706 3.82648 3.62378 3.77573Z" fill="#6D7892"/>
</svg>
