<svg width="32" height="32" viewBox="0 0 32 32" fill="none" xmlns="http://www.w3.org/2000/svg">
<mask id="mask0" mask-type="alpha" maskUnits="userSpaceOnUse" x="0" y="0" width="32" height="32">
<circle cx="16" cy="16" r="15.5" fill="#C4C4C4" stroke="black"/>
</mask>
<g mask="url(#mask0)">
<circle cx="16" cy="16" r="16" fill="url(#paint0_linear)"/>
<path fill-rule="evenodd" clip-rule="evenodd" d="M-0.175781 24.9677C-0.175781 22.2488 2.02836 20.0446 4.7473 20.0446H27.2525H27.2528C29.9716 20.0448 32.1756 22.2489 32.1756 24.9677V40.2644H27.2528V65.4356C27.2528 66.3929 26.8713 67.3035 25.9938 67.6862C24.554 68.3142 21.6282 69.0996 16 69.0996C10.3719 69.0996 7.44611 68.3142 6.00624 67.6862C5.12879 67.3035 4.7473 66.3929 4.7473 65.4356V40.2644H-0.175781V24.9677Z" fill="#C4C4DC"/>
<ellipse cx="15.824" cy="8.17557" rx="4.92308" ry="4.48352" fill="#60606F"/>
<path d="M9.14307 13.0105C9.14307 9.22337 12.2131 6.15332 16.0002 6.15332C19.7873 6.15332 22.8574 9.22337 22.8574 13.0105V20.3951C22.8574 24.1822 19.7873 27.2522 16.0002 27.2522C12.2131 27.2522 9.14307 24.1822 9.14307 20.3951V13.0105Z" fill="#F2F2FF"/>
<path d="M9.12247 16.352C9.12247 16.352 14.425 14.5977 16.0766 11.1652C16.0766 11.4534 17.0362 12.7119 17.9338 13.5388C19.5187 14.999 20.8575 15.2079 22.8569 16.352V11.1652C22.8569 9.00404 19.9644 5.09928 16.0766 5.09928C12.1888 5.09928 10.3295 7.70734 9.46551 9.43628C8.60155 11.1652 9.12247 16.352 9.12247 16.352Z" fill="#757586"/>
</g>
<mask id="mask1" mask-type="alpha" maskUnits="userSpaceOnUse" x="0" y="0" width="32" height="32">
<circle cx="16" cy="16" r="16" fill="#C4C4C4"/>
</mask>
<g mask="url(#mask1)">
<circle cx="16" cy="16" r="16" fill="#EF4349"/>
<circle cx="15.331" cy="16" r="17.8251" fill="#EF4349"/>
<rect x="13.1919" y="8.17432" width="6.77354" height="15.3296" transform="rotate(-25.0615 13.1919 8.17432)" fill="#CF3E43"/>
<circle cx="21.3914" cy="21.3475" r="4.99103" fill="#CF3E43"/>
<path d="M9.62695 9.66441L19.3931 5.30485L20.9916 8.88579C22.9178 13.2008 20.9813 18.2602 16.6663 20.1864L14.7131 21.0583L9.62695 9.66441Z" fill="white"/>
<rect x="14.2612" y="18.1391" width="4.27802" height="6.41703" fill="white"/>
<path d="M13.905 15.2871C13.905 16.4684 12.9473 17.4261 11.766 17.4261C10.5846 17.4261 9.62695 16.4684 9.62695 15.2871C9.62695 14.1057 10.5846 13.148 11.766 13.148C12.9473 13.148 13.905 14.1057 13.905 15.2871Z" fill="white"/>
<mask id="mask2" mask-type="alpha" maskUnits="userSpaceOnUse" x="-3" y="-2" width="37" height="36">
<circle cx="15.331" cy="16" r="17.8251" fill="#FFB114"/>
</mask>
<g mask="url(#mask2)">
<path d="M12.264 23.2419C14.4916 21.0143 18.1032 21.0143 20.3307 23.2419L37.4725 40.3837C39.7001 42.6112 39.7001 46.2228 37.4725 48.4504L20.3307 65.5921C18.1032 67.8197 14.4916 67.8197 12.264 65.5921L-4.87777 48.4504C-7.10533 46.2228 -7.10533 42.6112 -4.87777 40.3837L12.264 23.2419Z" fill="#6A61E7"/>
</g>
<path d="M19.9653 18.6459L24.585 16.3566L28.1023 23.4544L23.4827 25.7437L19.9653 18.6459Z" fill="#CF3E43"/>
<path d="M22.1045 22.683L22.5655 22.4168L24.348 25.5042L23.887 25.7704L22.1045 22.683Z" fill="#EF4349"/>
<path d="M23.1738 22.3265L23.6348 22.0603L25.4174 25.1477L24.9563 25.4139L23.1738 22.3265Z" fill="#EF4349"/>
<path d="M24.2432 21.6135L24.7042 21.3473L26.4867 24.4347L26.0257 24.7009L24.2432 21.6135Z" fill="#EF4349"/>
<path d="M25.313 20.9005L25.774 20.6343L27.5565 23.7217L27.0955 23.9879L25.313 20.9005Z" fill="#EF4349"/>
<path d="M6.06152 20.9794L13.0533 17.4259L17.6876 26.544C13.8261 28.5066 9.10478 26.9672 7.14222 23.1058L6.06152 20.9794Z" fill="#EF4349"/>
</g>
<defs>
<linearGradient id="paint0_linear" x1="18.5" y1="10.5" x2="29.8422" y2="32.3405" gradientUnits="userSpaceOnUse">
<stop offset="0.00130733" stop-color="#EBEEFF"/>
<stop offset="1" stop-color="white"/>
</linearGradient>
</defs>
</svg>
