<svg width="32" height="32" viewBox="0 0 32 32" fill="none" xmlns="http://www.w3.org/2000/svg">
<mask id="mask0" mask-type="alpha" maskUnits="userSpaceOnUse" x="0" y="0" width="32" height="32">
<circle cx="16" cy="16" r="16" fill="#C4C4C4"/>
</mask>
<g mask="url(#mask0)">
<circle cx="16" cy="16" r="16" fill="url(#paint0_linear)"/>
<path fill-rule="evenodd" clip-rule="evenodd" d="M-0.175781 24.9671C-0.175781 22.2482 2.02836 20.044 4.7473 20.044H27.2528H27.2528C29.9717 20.0441 32.1758 22.2482 32.1758 24.9671V40.2638H27.2528V65.435C27.2528 66.3923 26.8713 67.3029 25.9938 67.6856C24.554 68.3136 21.6282 69.099 16 69.099C10.3719 69.099 7.44611 68.3136 6.00624 67.6856C5.12879 67.3029 4.7473 66.3923 4.7473 65.435V40.2638H-0.175781V24.9671Z" fill="#C4C4DC"/>
<path d="M9 11.8571C9 8.07005 12.07 5 15.8571 5C19.6442 5 22.7143 8.07005 22.7143 11.8571V19.2418C22.7143 23.0289 19.6442 26.0989 15.8571 26.0989C12.07 26.0989 9 23.0289 9 19.2418V11.8571Z" fill="#F2F2FF"/>
<path d="M9.27742 13.6509C9.27742 13.6509 12.2871 10.843 13.1609 9.84667C13.1609 10.1788 14.3841 11.1419 15.7821 12.3375C17.1801 13.5331 21.0246 15.1605 23.209 15.8247V9.84667C23.209 7.35583 20.5877 3.86865 16.6559 3.86865C12.724 3.86865 10.5396 5.86133 9.66586 7.854C8.79211 9.84667 9.27742 13.6509 9.27742 13.6509Z" fill="#757586"/>
<mask id="mask1" mask-type="alpha" maskUnits="userSpaceOnUse" x="0" y="0" width="32" height="32">
<circle cx="16" cy="16" r="16" fill="#C4C4C4"/>
</mask>
<g mask="url(#mask1)">
<circle cx="16" cy="16" r="16" fill="#EF4349"/>
<path d="M12.9937 15.1602C15.167 13.8769 18.3077 15.1717 20.0087 18.0523L33.0987 40.2192C34.7998 43.0998 34.417 46.4754 32.2437 47.7587L15.52 57.6344C13.3468 58.9177 10.206 57.6229 8.50501 54.7423L-4.585 32.5753C-6.28604 29.6947 -5.90324 26.3192 -3.73001 25.0359L12.9937 15.1602Z" fill="#6A61E7"/>
<path d="M8.30957 11.5817C8.30957 8.22176 11.0333 5.49802 14.3932 5.49802H14.7305C18.0904 5.49802 20.8142 8.22176 20.8142 11.5817V16.8389C20.8142 20.1988 18.0904 22.9226 14.7305 22.9226H14.3932C11.0333 22.9226 8.30957 20.1989 8.30957 16.8389V11.5817Z" fill="white"/>
<path d="M10.3425 15.3004C10.3425 16.3587 9.48449 17.2167 8.42612 17.2167C7.36774 17.2167 6.50977 16.3587 6.50977 15.3004C6.50977 14.242 7.36774 13.384 8.42612 13.384C9.48449 13.384 10.3425 14.242 10.3425 15.3004Z" fill="white"/>
<path d="M8.30957 9.67299C8.30957 6.98507 10.4886 4.80608 13.1765 4.80608H24.3108C24.3108 9.53518 20.4771 13.3689 15.748 13.3689H8.30957V9.67299Z" fill="#CF3E43"/>
</g>
</g>
<defs>
<linearGradient id="paint0_linear" x1="18.5" y1="10.5" x2="29.8422" y2="32.3405" gradientUnits="userSpaceOnUse">
<stop offset="0.00130733" stop-color="#EBEEFF"/>
<stop offset="1" stop-color="white"/>
</linearGradient>
</defs>
</svg>
