<svg width="32" height="32" viewBox="0 0 32 32" fill="none" xmlns="http://www.w3.org/2000/svg">
<path fill-rule="evenodd" clip-rule="evenodd" d="M18.6641 20.0921L17.4196 21.3366L12.0863 16.0033L17.4196 10.6699L18.6641 11.9144L14.5752 16.0033L18.6641 20.0921Z" fill="black" fill-opacity="0.54"/>
<path d="M18.6641 20.0921L18.7583 19.9979L18.8526 20.0921L18.7583 20.1864L18.6641 20.0921ZM17.4196 21.3366L17.5139 21.4309L17.4196 21.5252L17.3253 21.4309L17.4196 21.3366ZM12.0863 16.0033L11.992 16.0975L11.8977 16.0033L11.992 15.909L12.0863 16.0033ZM17.4196 10.6699L17.3253 10.5756L17.4196 10.4814L17.5139 10.5756L17.4196 10.6699ZM18.6641 11.9144L18.7583 11.8201L18.8526 11.9144L18.7583 12.0086L18.6641 11.9144ZM14.5752 16.0033L14.4809 16.0975L14.3866 16.0033L14.4809 15.909L14.5752 16.0033ZM18.7583 20.1864L17.5139 21.4309L17.3253 21.2423L18.5698 19.9979L18.7583 20.1864ZM17.3253 21.4309L11.992 16.0975L12.1806 15.909L17.5139 21.2423L17.3253 21.4309ZM11.992 15.909L17.3253 10.5756L17.5139 10.7642L12.1806 16.0975L11.992 15.909ZM17.5139 10.5756L18.7583 11.8201L18.5698 12.0086L17.3253 10.7642L17.5139 10.5756ZM18.7583 12.0086L14.6695 16.0975L14.4809 15.909L18.5698 11.8201L18.7583 12.0086ZM14.6695 15.909L18.7583 19.9979L18.5698 20.1864L14.4809 16.0975L14.6695 15.909Z" fill="black" fill-opacity="0.54"/>
<rect x="0.666667" y="0.666667" width="30.6667" height="30.6667" rx="4.66667" stroke="black" stroke-opacity="0.08" stroke-width="1.33333"/>
</svg>
