<svg width="18" height="16" viewBox="0 0 18 16" fill="none" xmlns="http://www.w3.org/2000/svg">
<path fill-rule="evenodd" clip-rule="evenodd" d="M7.86888 3.75611C8.93043 3.0468 10.1785 2.66821 11.4552 2.66821C12.3029 2.66821 13.1423 2.83518 13.9255 3.15958C14.7087 3.48399 15.4203 3.95947 16.0197 4.55889C16.6191 5.15831 17.0946 5.86992 17.419 6.6531C17.7434 7.43628 17.9104 8.27569 17.9104 9.12339C17.9104 10.4001 17.5318 11.6481 16.8225 12.7097C16.1132 13.7712 15.105 14.5986 13.9255 15.0872C12.7459 15.5758 11.448 15.7036 10.1958 15.4545C8.94366 15.2055 7.79345 14.5907 6.89068 13.6879C5.98791 12.7851 5.37311 11.6349 5.12404 10.3827C4.87496 9.13055 5.0028 7.83263 5.49137 6.6531C5.97995 5.47357 6.80733 4.46541 7.86888 3.75611ZM11.4024 5.79541C11.2308 5.79541 11.0663 5.86355 10.945 5.98485C10.8237 6.10614 10.7556 6.27065 10.7556 6.44219V9.6308L9.86951 11.1637C9.78375 11.3129 9.76077 11.4901 9.80565 11.6563C9.85053 11.8224 9.95959 11.964 10.1088 12.0497C10.2581 12.1355 10.4353 12.1585 10.6014 12.1136C10.7676 12.0687 10.9091 11.9597 10.9949 11.8104L11.9651 10.1288C12.0273 10.0119 12.0521 9.8787 12.0362 9.74722L12.0492 9.67607V6.44219C12.0492 6.27065 11.981 6.10614 11.8597 5.98485C11.7384 5.86355 11.5739 5.79541 11.4024 5.79541Z" fill="white"/>
<path fill-rule="evenodd" clip-rule="evenodd" d="M7.56743 3.21502C7.91207 2.98475 8.27431 2.7857 8.64983 2.6192C7.79498 1.3885 6.37118 0.582764 4.75919 0.582764C2.14478 0.582764 0.0253906 2.70216 0.0253906 5.31656C0.0253906 7.81469 1.96045 9.86086 4.41343 10.0379C4.28595 8.94134 4.41208 7.82894 4.78333 6.78722C4.7415 6.79314 4.69877 6.79621 4.65534 6.79621H4.55211V6.90356C4.55211 7.07362 4.41425 7.21148 4.24419 7.21148C4.07413 7.21148 3.93627 7.07362 3.93627 6.90356V6.79621H3.53987C3.36989 6.79621 3.23209 6.65841 3.23209 6.48843C3.23209 6.31845 3.36989 6.18065 3.53987 6.18065H4.65534C4.81691 6.18065 4.94835 6.04927 4.94835 5.88777C4.94835 5.72627 4.81691 5.59487 4.65534 5.59487H3.99486C3.50661 5.59487 3.10938 5.19781 3.10938 4.70978C3.10938 4.24145 3.47526 3.85714 3.93627 3.82685V3.71734C3.93627 3.54728 4.07413 3.40942 4.24419 3.40942C4.41425 3.40942 4.55211 3.54728 4.55211 3.71734V3.8247H4.97079C5.14077 3.8247 5.27857 3.96249 5.27857 4.13247C5.27857 4.30246 5.14077 4.44025 4.97079 4.44025H3.99486C3.84618 4.44025 3.72521 4.56117 3.72521 4.70978C3.72521 4.8584 3.84618 4.97931 3.99486 4.97931H4.65534C4.98744 4.97931 5.2785 5.15828 5.43708 5.4248C5.9779 4.54753 6.70313 3.79253 7.56743 3.21502Z" fill="white"/>
</svg>
