<svg width="18" height="16" viewBox="0 0 18 16" fill="none" xmlns="http://www.w3.org/2000/svg">
<path fill-rule="evenodd" clip-rule="evenodd" d="M7.59087 3.13446C7.9355 2.90418 8.29775 2.70513 8.67326 2.53863C7.81842 1.30793 6.39462 0.502197 4.78263 0.502197C2.16822 0.502197 0.0488281 2.62159 0.0488281 5.23599C0.0488281 7.73412 1.98389 9.78029 4.43687 9.95736C4.29546 8.74103 4.46609 7.50524 4.93714 6.36804C5.48248 5.05147 6.40598 3.92617 7.59087 3.13446ZM4.55032 2.58765C4.42477 2.58765 4.30436 2.63752 4.21559 2.7263C4.12681 2.81507 4.07694 2.93548 4.07694 3.06103V5.39479L3.42841 6.5167C3.36563 6.62592 3.34882 6.75561 3.38167 6.87724C3.41451 6.99886 3.49433 7.10245 3.60356 7.16523C3.71278 7.228 3.84247 7.24481 3.9641 7.21197C4.08572 7.17912 4.18931 7.0993 4.25209 6.99008L4.96216 5.75929C5.0077 5.67372 5.02588 5.57623 5.01423 5.48L5.0237 5.42792V3.06103C5.0237 2.93548 4.97382 2.81507 4.88505 2.7263C4.79627 2.63752 4.67586 2.58765 4.55032 2.58765Z" fill="#9BA2B3"/>
<path fill-rule="evenodd" clip-rule="evenodd" d="M7.89231 3.67554C8.95386 2.96624 10.2019 2.58765 11.4786 2.58765C12.3263 2.58765 13.1657 2.75461 13.9489 3.07902C14.7321 3.40342 15.4437 3.87891 16.0431 4.47832C16.6425 5.07774 17.118 5.78936 17.4424 6.57254C17.7668 7.35571 17.9338 8.19512 17.9338 9.04283C17.9338 10.3195 17.5552 11.5676 16.8459 12.6291C16.1366 13.6907 15.1284 14.5181 13.9489 15.0066C12.7694 15.4952 11.4715 15.623 10.2193 15.374C8.96709 15.1249 7.81689 14.5101 6.91412 13.6073C6.01135 12.7046 5.39655 11.5543 5.14747 10.3022C4.8984 9.04999 5.02623 7.75206 5.51481 6.57254C6.00339 5.39301 6.83077 4.38484 7.89231 3.67554ZM10.9653 8.63191H11.9578C12.7108 8.63191 13.3234 9.24429 13.3234 9.99699C13.3234 10.7497 12.7108 11.362 11.9578 11.362H11.8027V11.5233C11.8027 11.7789 11.5955 11.986 11.34 11.986C11.0844 11.986 10.8773 11.7789 10.8773 11.5233V11.362H10.2816C10.0262 11.362 9.81916 11.155 9.81916 10.8996C9.81916 10.6441 10.0262 10.4371 10.2816 10.4371H11.9578C12.2006 10.4371 12.3981 10.2397 12.3981 9.99699C12.3981 9.75431 12.2006 9.55686 11.9578 9.55686H10.9653C10.2317 9.55686 9.63477 8.96024 9.63477 8.22691C9.63477 7.52317 10.1846 6.9457 10.8773 6.90019V6.73563C10.8773 6.4801 11.0844 6.27295 11.34 6.27295C11.5955 6.27295 11.8027 6.4801 11.8027 6.73563V6.89695H12.4318C12.6872 6.89695 12.8943 7.10401 12.8943 7.35943C12.8943 7.61485 12.6872 7.8219 12.4318 7.8219H10.9653C10.7419 7.8219 10.5601 8.00359 10.5601 8.22691C10.5601 8.45022 10.7419 8.63191 10.9653 8.63191Z" fill="#9BA2B3"/>
</svg>
