<svg width="14" height="10" viewBox="0 0 14 10" fill="none" xmlns="http://www.w3.org/2000/svg">
<path d="M12.6875 0.40625H2.01464C1.39505 0.40625 0.86814 0.828813 0.733365 1.43406C-0.0302772 4.87059 0.00660879 4.6989 0.00280808 4.7345C-0.0011567 4.77188 0.000237808 4.61298 0.000237808 7.18738C0.000237808 7.79046 0.490885 8.28111 1.09397 8.28111H1.80558C2.00034 9.03505 2.68625 9.59359 3.50018 9.59359C4.3141 9.59359 5.00001 9.03505 5.19478 8.28111H9.46172C9.65648 9.03505 10.3424 9.59359 11.1563 9.59359C11.9702 9.59359 12.6562 9.03505 12.8509 8.28111H12.9063C13.5094 8.28111 14 7.79046 14 7.18738V1.71873C14 0.995033 13.4113 0.40625 12.6875 0.40625ZM13.125 1.71873V3.4687H11.5938V1.28123H12.6875C12.9288 1.28123 13.125 1.4775 13.125 1.71873ZM9.1876 3.4687V1.28123H10.7188V3.4687H9.1876ZM6.7814 3.4687V1.28123H8.31262V3.4687H6.7814ZM4.37519 3.4687V1.28123H5.90641V3.4687H4.37519ZM1.58746 1.62409C1.63244 1.42222 1.80807 1.28123 2.01464 1.28123H3.5002V3.67205L2.49274 4.34368H0.983119L1.58746 1.62409ZM3.5002 8.7186C3.01773 8.7186 2.62522 8.32609 2.62522 7.84362C2.62522 7.36115 3.01773 6.96863 3.5002 6.96863C3.98268 6.96863 4.37519 7.36115 4.37519 7.84362C4.37519 8.32609 3.98265 8.7186 3.5002 8.7186ZM11.1563 8.7186C10.6738 8.7186 10.2813 8.32609 10.2813 7.84362C10.2813 7.36115 10.6738 6.96863 11.1563 6.96863C11.6388 6.96863 12.0313 7.36115 12.0313 7.84362C12.0313 8.32609 11.6388 8.7186 11.1563 8.7186ZM12.9063 7.40613H12.8509C12.6562 6.65219 11.9702 6.09365 11.1563 6.09365C10.3424 6.09365 9.65648 6.65219 9.46172 7.40613H5.1948C5.00004 6.65219 4.31413 6.09365 3.5002 6.09365C2.68628 6.09365 2.00037 6.65219 1.8056 7.40613H1.094C0.973385 7.40613 0.87525 7.30799 0.87525 7.18738V6.74989H1.094C1.33563 6.74989 1.53149 6.554 1.53149 6.3124C1.53149 6.07079 1.33563 5.8749 1.094 5.8749H0.87525V5.21867H2.62522C2.7116 5.21867 2.79603 5.1931 2.86789 5.14519L4.07017 4.34368H13.125V7.18738C13.125 7.30802 13.0269 7.40613 12.9063 7.40613Z" fill="black"/>
</svg>
