<svg width="8" height="4" viewBox="0 0 8 4" fill="none" xmlns="http://www.w3.org/2000/svg">
<path d="M3.62329 3.77573L0.79829 0.945728C0.751426 0.899247 0.714229 0.843946 0.688844 0.783017C0.66346 0.722087 0.650391 0.656734 0.650391 0.590728C0.650391 0.524722 0.66346 0.45937 0.688844 0.39844C0.714229 0.33751 0.751426 0.28221 0.79829 0.235728C0.891971 0.142603 1.0187 0.090332 1.15079 0.090332C1.28288 0.090332 1.40961 0.142603 1.50329 0.235728L4.00329 2.71073L6.47829 0.235729C6.57197 0.142603 6.6987 0.0903323 6.83079 0.0903323C6.96288 0.0903323 7.08961 0.142603 7.18329 0.235729C7.23053 0.282036 7.26812 0.337258 7.29387 0.398196C7.31962 0.459134 7.33301 0.524575 7.33329 0.590729C7.33301 0.656882 7.31962 0.722324 7.29387 0.783261C7.26812 0.844199 7.23053 0.899421 7.18329 0.945729L4.35829 3.77573C4.31147 3.82648 4.25464 3.86699 4.19139 3.89469C4.12814 3.92239 4.05984 3.9367 3.99079 3.9367C3.92174 3.9367 3.85344 3.92239 3.79019 3.89469C3.72694 3.86699 3.67011 3.82648 3.62329 3.77573Z" fill="#576075"/>
</svg>
