<svg width="17" height="17" viewBox="0 0 17 17" fill="none" xmlns="http://www.w3.org/2000/svg">
<path d="M14.4334 16.2875H1.96618C1.02725 16.2875 0.266113 15.5212 0.266113 14.5759V2.02411C0.266113 1.0788 1.02725 0.3125 1.96618 0.3125H14.4334C15.3723 0.3125 16.1334 1.0788 16.1334 2.02411V14.5759C16.1334 15.5212 15.3723 16.2875 14.4334 16.2875ZM7.18377 12.7909L13.7007 6.2297C13.922 6.00691 13.922 5.64565 13.7007 5.42286L12.8993 4.61601C12.678 4.39322 12.3192 4.39319 12.0979 4.61601L6.78305 9.96686L4.30169 7.46866C4.0804 7.24586 3.72158 7.24586 3.50025 7.46866L2.69884 8.2755C2.47755 8.4983 2.47755 8.85955 2.69884 9.08235L6.38233 12.7908C6.60365 13.0137 6.96244 13.0137 7.18377 12.7909Z" fill="#EEF1F6"/>
</svg>
