<svg width="14" height="14" viewBox="0 0 14 14" fill="none" xmlns="http://www.w3.org/2000/svg">
<path d="M7.00004 3.66671C6.82323 3.66671 6.65366 3.73695 6.52864 3.86197C6.40361 3.98699 6.33338 4.15656 6.33338 4.33337V7.00004C6.33338 7.17685 6.40361 7.34642 6.52864 7.47145C6.65366 7.59647 6.82323 7.66671 7.00004 7.66671C7.17685 7.66671 7.34642 7.59647 7.47145 7.47145C7.59647 7.34642 7.66671 7.17685 7.66671 7.00004V4.33337C7.66671 4.15656 7.59647 3.98699 7.47145 3.86197C7.34642 3.73695 7.17685 3.66671 7.00004 3.66671ZM7.61338 9.41337C7.59878 9.37089 7.57861 9.33054 7.55338 9.29337L7.47338 9.19337C7.37963 9.10087 7.26058 9.03821 7.13125 9.01329C7.00193 8.98837 6.86812 9.00232 6.74671 9.05337C6.66592 9.08714 6.59151 9.13449 6.52671 9.19337C6.46492 9.25567 6.41604 9.32955 6.38286 9.41077C6.34969 9.49199 6.33287 9.57897 6.33338 9.66671C6.33443 9.75383 6.35255 9.83989 6.38671 9.92004C6.41665 10.0028 6.46442 10.0779 6.52663 10.1401C6.58885 10.2023 6.66398 10.2501 6.74671 10.28C6.82651 10.3153 6.9128 10.3335 7.00004 10.3335C7.08729 10.3335 7.17358 10.3153 7.25338 10.28C7.33611 10.2501 7.41124 10.2023 7.47345 10.1401C7.53567 10.0779 7.58344 10.0028 7.61338 9.92004C7.64754 9.83989 7.66566 9.75383 7.66671 9.66671C7.66998 9.62232 7.66998 9.57776 7.66671 9.53337C7.65523 9.49086 7.63724 9.45038 7.61338 9.41337ZM7.00004 0.333374C5.6815 0.333374 4.39257 0.724367 3.29624 1.45691C2.19991 2.18945 1.34543 3.23064 0.840847 4.44882C0.336263 5.66699 0.20424 7.00744 0.461475 8.30064C0.71871 9.59385 1.35365 10.7817 2.286 11.7141C3.21835 12.6464 4.40623 13.2814 5.69944 13.5386C6.99265 13.7958 8.33309 13.6638 9.55127 13.1592C10.7694 12.6547 11.8106 11.8002 12.5432 10.7038C13.2757 9.60751 13.6667 8.31858 13.6667 7.00004C13.6667 6.12456 13.4943 5.25766 13.1592 4.44882C12.8242 3.63998 12.3331 2.90505 11.7141 2.286C11.095 1.66694 10.3601 1.17588 9.55127 0.840844C8.74243 0.505812 7.87552 0.333374 7.00004 0.333374ZM7.00004 12.3334C5.94521 12.3334 4.91406 12.0206 4.037 11.4345C3.15994 10.8485 2.47635 10.0156 2.07269 9.04102C1.66902 8.06648 1.5634 6.99412 1.76919 5.95956C1.97498 4.92499 2.48293 3.97468 3.22881 3.2288C3.97469 2.48292 4.925 1.97497 5.95956 1.76919C6.99413 1.5634 8.06648 1.66902 9.04102 2.07268C10.0156 2.47635 10.8485 3.15994 11.4345 4.037C12.0206 4.91406 12.3334 5.94521 12.3334 7.00004C12.3334 8.41453 11.7715 9.77108 10.7713 10.7713C9.77109 11.7715 8.41453 12.3334 7.00004 12.3334Z" fill="#EF4349"/>
</svg>
