<svg width="14" height="14" viewBox="0 0 14 14" fill="none" xmlns="http://www.w3.org/2000/svg">
<path d="M8.81338 4.86004L5.95338 7.72671L4.85338 6.62671C4.79361 6.55692 4.72007 6.50024 4.63736 6.46022C4.55465 6.42021 4.46456 6.39772 4.37275 6.39418C4.28093 6.39063 4.18938 6.4061 4.10383 6.43962C4.01828 6.47313 3.94058 6.52397 3.87561 6.58894C3.81064 6.65391 3.7598 6.73161 3.72629 6.81716C3.69277 6.90271 3.6773 6.99426 3.68084 7.08608C3.68439 7.17789 3.70688 7.26798 3.74689 7.35069C3.78691 7.4334 3.84359 7.50694 3.91338 7.56671L5.48004 9.14004C5.54234 9.20183 5.61621 9.25071 5.69744 9.28389C5.77866 9.31706 5.86564 9.33388 5.95338 9.33337C6.12827 9.33264 6.29587 9.2632 6.42004 9.14004L9.75338 5.80671C9.81586 5.74473 9.86546 5.671 9.89931 5.58976C9.93315 5.50852 9.95058 5.42138 9.95058 5.33337C9.95058 5.24537 9.93315 5.15823 9.89931 5.07699C9.86546 4.99575 9.81586 4.92202 9.75338 4.86004C9.62847 4.73587 9.4595 4.66618 9.28338 4.66618C9.10725 4.66618 8.93829 4.73587 8.81338 4.86004ZM7.00004 0.333374C5.6815 0.333374 4.39257 0.724367 3.29624 1.45691C2.19991 2.18945 1.34543 3.23064 0.840847 4.44882C0.336263 5.66699 0.20424 7.00744 0.461475 8.30064C0.71871 9.59385 1.35365 10.7817 2.286 11.7141C3.21835 12.6464 4.40624 13.2814 5.69944 13.5386C6.99265 13.7958 8.33309 13.6638 9.55127 13.1592C10.7694 12.6547 11.8106 11.8002 12.5432 10.7038C13.2757 9.60751 13.6667 8.31858 13.6667 7.00004C13.6667 6.12456 13.4943 5.25765 13.1592 4.44882C12.8242 3.63998 12.3331 2.90505 11.7141 2.286C11.095 1.66694 10.3601 1.17588 9.55127 0.840844C8.74243 0.505812 7.87552 0.333374 7.00004 0.333374ZM7.00004 12.3334C5.94521 12.3334 4.91406 12.0206 4.037 11.4345C3.15994 10.8485 2.47635 10.0156 2.07269 9.04102C1.66902 8.06648 1.5634 6.99412 1.76919 5.95956C1.97498 4.92499 2.48293 3.97468 3.22881 3.2288C3.97469 2.48292 4.925 1.97497 5.95956 1.76919C6.99413 1.5634 8.06648 1.66902 9.04102 2.07268C10.0156 2.47635 10.8485 3.15994 11.4345 4.037C12.0206 4.91406 12.3334 5.94521 12.3334 7.00004C12.3334 8.41453 11.7715 9.77108 10.7713 10.7713C9.77109 11.7715 8.41453 12.3334 7.00004 12.3334Z" fill="#00A15D"/>
</svg>
