<svg width="24" height="24" viewBox="0 0 24 24" fill="none" xmlns="http://www.w3.org/2000/svg">
<rect width="24" height="24" rx="5" fill="white" fill-opacity="0.5"/>
<path d="M15.9117 8.48689L10.0474 14.4953L8.15042 12.4081C8.07673 12.3277 7.98857 12.2632 7.89095 12.2183C7.79334 12.1734 7.68819 12.1489 7.5815 12.1463C7.47482 12.1437 7.36869 12.1631 7.26918 12.2032C7.16966 12.2433 7.07871 12.3035 7.00152 12.3803C6.92433 12.457 6.86241 12.5488 6.81929 12.6505C6.77617 12.7522 6.7527 12.8617 6.75022 12.9728C6.74774 13.084 6.76629 13.1945 6.80483 13.2981C6.84336 13.4018 6.90112 13.4965 6.9748 13.5769L9.4329 16.2486C9.50527 16.3277 9.59232 16.3908 9.68877 16.4338C9.78522 16.4769 9.88906 16.4991 9.99399 16.4991C10.0972 16.5043 10.2003 16.4873 10.2969 16.449C10.3935 16.4106 10.4814 16.3519 10.5551 16.2764L17.0072 9.68357C17.1577 9.53118 17.2448 9.32338 17.2498 9.10483C17.2548 8.88627 17.1773 8.6744 17.0339 8.51472C16.9634 8.43374 16.8778 8.36855 16.7823 8.32308C16.6868 8.27762 16.5835 8.25283 16.4786 8.25023C16.3736 8.24763 16.2693 8.26726 16.1718 8.30794C16.0744 8.34862 15.9859 8.4095 15.9117 8.48689Z" fill="#373D49"/>
</svg>
