<svg width="14" height="14" viewBox="0 0 14 14" fill="none" xmlns="http://www.w3.org/2000/svg">
<rect width="14" height="14" fill="#020202"/>
<g id="Frame">
<rect width="1280" height="720" transform="translate(-965 -255)" fill="#F9F9FB"/>
<g id="Rectangle 3152" filter="url(#filter0_d)">
<rect x="-857" y="-159" width="1064" height="578" rx="10" fill="white"/>
</g>
<g id="Group 5291">
<rect id="Rectangle 3144" opacity="0.7" x="-24.5" y="-78.5" width="207" height="385" rx="4.5" fill="#EEF1F6" fill-opacity="0.6" stroke="#DEE2ED"/>
<g id="Group 5279">
<g id="Approve / 24 / Outline">
<path id="Vector" d="M8.81332 4.86004L5.95332 7.72671L4.85332 6.62671C4.79355 6.55692 4.72001 6.50024 4.6373 6.46022C4.55459 6.42021 4.4645 6.39772 4.37268 6.39418C4.28087 6.39063 4.18932 6.4061 4.10377 6.43962C4.01822 6.47313 3.94052 6.52397 3.87555 6.58894C3.81058 6.65391 3.75974 6.73161 3.72622 6.81716C3.69271 6.90271 3.67724 6.99426 3.68078 7.08608C3.68433 7.17789 3.70682 7.26798 3.74683 7.35069C3.78685 7.4334 3.84353 7.50694 3.91332 7.56671L5.47998 9.14004C5.54228 9.20183 5.61615 9.25071 5.69738 9.28389C5.7786 9.31706 5.86558 9.33388 5.95332 9.33337C6.12821 9.33264 6.29581 9.2632 6.41998 9.14004L9.75332 5.80671C9.8158 5.74473 9.8654 5.671 9.89924 5.58976C9.93309 5.50852 9.95052 5.42138 9.95052 5.33337C9.95052 5.24537 9.93309 5.15823 9.89924 5.07699C9.8654 4.99575 9.8158 4.92202 9.75332 4.86004C9.62841 4.73587 9.45944 4.66618 9.28332 4.66618C9.10719 4.66618 8.93822 4.73587 8.81332 4.86004ZM6.99998 0.333374C5.68144 0.333374 4.39251 0.724367 3.29618 1.45691C2.19985 2.18945 1.34537 3.23064 0.840786 4.44882C0.336202 5.66699 0.204179 7.00744 0.461414 8.30064C0.718649 9.59385 1.35359 10.7817 2.28594 11.7141C3.21829 12.6464 4.40617 13.2814 5.69938 13.5386C6.99259 13.7958 8.33303 13.6638 9.55121 13.1592C10.7694 12.6547 11.8106 11.8002 12.5431 10.7038C13.2757 9.60751 13.6666 8.31858 13.6666 7.00004C13.6666 6.12456 13.4942 5.25765 13.1592 4.44882C12.8241 3.63998 12.3331 2.90505 11.714 2.286C11.095 1.66694 10.36 1.17588 9.55121 0.840844C8.74237 0.505812 7.87546 0.333374 6.99998 0.333374ZM6.99998 12.3334C5.94515 12.3334 4.914 12.0206 4.03694 11.4345C3.15988 10.8485 2.47629 10.0156 2.07263 9.04102C1.66896 8.06648 1.56334 6.99412 1.76913 5.95956C1.97492 4.92499 2.48287 3.97468 3.22875 3.2288C3.97463 2.48292 4.92494 1.97497 5.9595 1.76919C6.99407 1.5634 8.06642 1.66902 9.04096 2.07268C10.0155 2.47635 10.8485 3.15994 11.4345 4.037C12.0205 4.91406 12.3333 5.94521 12.3333 7.00004C12.3333 8.41453 11.7714 9.77108 10.7712 10.7713C9.77103 11.7715 8.41447 12.3334 6.99998 12.3334Z" fill="#8A93A8"/>
</g>
</g>
</g>
</g>
<defs>
<filter id="filter0_d" x="-885" y="-179" width="1120" height="634" filterUnits="userSpaceOnUse" color-interpolation-filters="sRGB">
<feFlood flood-opacity="0" result="BackgroundImageFix"/>
<feColorMatrix in="SourceAlpha" type="matrix" values="0 0 0 0 0 0 0 0 0 0 0 0 0 0 0 0 0 0 127 0"/>
<feMorphology radius="6" operator="dilate" in="SourceAlpha" result="effect1_dropShadow"/>
<feOffset dy="8"/>
<feGaussianBlur stdDeviation="11"/>
<feColorMatrix type="matrix" values="0 0 0 0 0.341176 0 0 0 0 0.376471 0 0 0 0 0.458824 0 0 0 0.09 0"/>
<feBlend mode="normal" in2="BackgroundImageFix" result="effect1_dropShadow"/>
<feBlend mode="normal" in="SourceGraphic" in2="effect1_dropShadow" result="shape"/>
</filter>
</defs>
</svg>
