<svg width="54" height="46" viewBox="0 0 54 46" fill="none" xmlns="http://www.w3.org/2000/svg">
<ellipse cx="14.3125" cy="14.6207" rx="14.1592" ry="14.1593" fill="white"/>
<path d="M14.3125 0.461426C11.5121 0.461426 8.77455 1.29185 6.44608 2.8477C4.11762 4.40354 2.3028 6.61492 1.23113 9.20219C0.159455 11.7895 -0.120944 14.6364 0.425391 17.383C0.971726 20.1297 2.32026 22.6526 4.30045 24.6328C6.28065 26.613 8.80357 27.9616 11.5502 28.5079C14.2968 29.0543 17.1437 28.7739 19.731 27.7022C22.3182 26.6305 24.5296 24.8157 26.0854 22.4872C27.6413 20.1587 28.4717 17.4212 28.4717 14.6207C28.4717 12.7613 28.1054 10.9201 27.3939 9.20219C26.6823 7.4843 25.6394 5.92339 24.3245 4.60858C23.0097 3.29377 21.4489 2.25081 19.731 1.53924C18.0131 0.827667 16.1719 0.461426 14.3125 0.461426ZM14.3125 25.9481C12.0722 25.9481 9.88214 25.2838 8.01937 24.0391C6.1566 22.7944 4.70474 21.0253 3.8474 18.9555C2.99006 16.8857 2.76575 14.6081 3.20281 12.4108C3.63988 10.2135 4.71871 8.19518 6.30286 6.61101C7.88702 5.02684 9.90536 3.94801 12.1026 3.51094C14.2999 3.07386 16.5775 3.29819 18.6473 4.15553C20.7171 5.01288 22.4862 6.46474 23.7308 8.32753C24.9755 10.1903 25.6398 12.3804 25.6398 14.6207C25.6398 17.6249 24.4464 20.5061 22.3221 22.6304C20.1979 24.7547 17.3167 25.9481 14.3125 25.9481Z" fill="#6A61E7"/>
<path d="M15.363 13.73H13.1861C12.696 13.73 12.2973 13.3315 12.2973 12.8416C12.2973 12.3518 12.696 11.9533 13.1861 11.9533H16.7556C17.0317 11.9533 17.2556 11.7294 17.2556 11.4533V10.4244C17.2556 10.1483 17.0317 9.9244 16.7556 9.9244H15.0228V9.05566C15.0228 8.77952 14.7989 8.55566 14.5228 8.55566H13.493C13.2169 8.55566 12.993 8.77952 12.993 9.05566V9.9315C11.4735 10.0313 10.2676 11.298 10.2676 12.8416C10.2676 14.4502 11.5768 15.7589 13.1861 15.7589H15.363C15.8956 15.7589 16.3288 16.1919 16.3288 16.7243C16.3288 17.2566 15.8956 17.6896 15.363 17.6896H11.172C10.8959 17.6896 10.672 17.9134 10.672 18.1896V19.2184C10.672 19.4946 10.8959 19.7184 11.172 19.7184H12.993V20.5872C12.993 20.8633 13.2169 21.0872 13.493 21.0872H14.5228C14.7989 21.0872 15.0228 20.8633 15.0228 20.5872V19.7184H15.363C17.0148 19.7184 18.3585 18.3753 18.3585 16.7243C18.3585 15.0732 17.0148 13.73 15.363 13.73Z" fill="#6A61E7"/>
<ellipse cx="34.6889" cy="26.2574" rx="19.3109" ry="19.3111" fill="white"/>
<path d="M34.6889 6.94629C30.8695 6.94629 27.136 8.07886 23.9603 10.2008C20.7846 12.3227 18.3095 15.3387 16.8479 18.8673C15.3863 22.396 15.0039 26.2788 15.749 30.0248C16.4941 33.7708 18.3333 37.2117 21.034 39.9124C23.7347 42.6131 27.1755 44.4523 30.9215 45.1974C34.6674 45.9425 38.5502 45.5601 42.0788 44.0985C45.6075 42.6369 48.6234 40.1617 50.7453 36.986C52.8672 33.8103 53.9998 30.0767 53.9998 26.2574C53.9998 23.7214 53.5003 21.2103 52.5298 18.8673C51.5594 16.5244 50.1369 14.3956 48.3438 12.6024C46.5506 10.8092 44.4218 9.38673 42.0788 8.41626C39.7359 7.44578 37.2248 6.94629 34.6889 6.94629ZM34.6889 41.7062C31.6334 41.7062 28.6465 40.8002 26.106 39.1026C23.5655 37.4051 21.5854 34.9923 20.4161 32.1694C19.2468 29.3465 18.9409 26.2402 19.537 23.2434C20.1331 20.2467 21.6044 17.4939 23.765 15.3334C25.9255 13.1728 28.6782 11.7014 31.675 11.1054C34.6717 10.5093 37.778 10.8152 40.6008 11.9845C43.4237 13.1538 45.8365 15.1339 47.534 17.6744C49.2316 20.215 50.1376 23.2019 50.1376 26.2574C50.1376 30.3547 48.51 34.2841 45.6128 37.1814C42.7156 40.0786 38.7861 41.7062 34.6889 41.7062ZM34.6889 14.6707C34.1767 14.6707 33.6855 14.8742 33.3234 15.2363C32.9612 15.5985 32.7578 16.0897 32.7578 16.6018V26.1222L30.1122 30.6989C29.8561 31.1445 29.7875 31.6736 29.9215 32.1697C30.0555 32.6659 30.3811 33.0885 30.8267 33.3445C31.2723 33.6006 31.8013 33.6692 32.2975 33.5352C32.7936 33.4012 33.2162 33.0756 33.4723 32.63L36.3689 27.6091C36.5547 27.2601 36.6289 26.8624 36.5813 26.4698L36.62 26.2574V16.6018C36.62 16.0897 36.4165 15.5985 36.0544 15.2363C35.6922 14.8742 35.201 14.6707 34.6889 14.6707Z" fill="url(#paint0_linear)"/>
<defs>
<linearGradient id="paint0_linear" x1="15.3779" y1="45.5685" x2="56.9255" y2="10.4029" gradientUnits="userSpaceOnUse">
<stop stop-color="#EF4349"/>
<stop offset="1" stop-color="#4778EB"/>
</linearGradient>
</defs>
</svg>
