<svg width="48" height="48" viewBox="0 0 48 48" fill="none" xmlns="http://www.w3.org/2000/svg">
<circle cx="24" cy="24" r="23.52" fill="white"/>
<path d="M24 0.47998C19.3482 0.47998 14.8008 1.8594 10.933 4.44381C7.06513 7.02822 4.05052 10.7015 2.27034 14.9993C0.490171 19.297 0.0243971 24.0261 0.931921 28.5885C1.83945 33.1509 4.07951 37.3418 7.36884 40.6311C10.6582 43.9204 14.849 46.1605 19.4115 47.068C23.9739 47.9756 28.703 47.5098 33.0007 45.7296C37.2984 43.9494 40.9717 40.9348 43.5561 37.067C46.1405 33.1991 47.52 28.6518 47.52 24C47.52 20.9113 46.9116 17.8528 45.7296 14.9993C44.5476 12.1457 42.8152 9.55286 40.6311 7.36883C38.4471 5.18479 35.8543 3.45232 33.0007 2.27033C30.1471 1.08834 27.0887 0.47998 24 0.47998ZM24 42.816C20.2785 42.816 16.6406 41.7124 13.5464 39.6449C10.4521 37.5774 8.04041 34.6387 6.61627 31.2005C5.19213 27.7624 4.81951 23.9791 5.54553 20.3292C6.27155 16.6792 8.0636 13.3265 10.6951 10.6951C13.3265 8.06359 16.6792 6.27154 20.3292 5.54552C23.9791 4.8195 27.7624 5.19212 31.2005 6.61626C34.6387 8.0404 37.5774 10.4521 39.6449 13.5464C41.7124 16.6406 42.816 20.2785 42.816 24C42.816 28.9903 40.8336 33.7762 37.3049 37.3049C33.7762 40.8336 28.9903 42.816 24 42.816ZM24 9.88798C23.3762 9.88798 22.778 10.1358 22.3369 10.5769C21.8958 11.0179 21.648 11.6162 21.648 12.24V23.8353L18.4257 29.4096C18.1138 29.9523 18.0303 30.5966 18.1935 31.2009C18.3567 31.8052 18.7533 32.3199 19.296 32.6318C19.8387 32.9437 20.483 33.0272 21.0873 32.864C21.6916 32.7008 22.2063 32.3043 22.5182 31.7616L26.0462 25.6464C26.2725 25.2212 26.3628 24.7368 26.3049 24.2587L26.352 24V12.24C26.352 11.6162 26.1042 11.0179 25.6631 10.5769C25.222 10.1358 24.6238 9.88798 24 9.88798Z" fill="url(#paint0_linear)"/>
<defs>
<linearGradient id="paint0_linear" x1="0.47998" y1="47.52" x2="51.083" y2="4.6896" gradientUnits="userSpaceOnUse">
<stop stop-color="#EF4349"/>
<stop offset="1" stop-color="#4778EB"/>
</linearGradient>
</defs>
</svg>
