<svg width="9" height="10" viewBox="0 0 9 10" fill="none" xmlns="http://www.w3.org/2000/svg">
<path opacity="0.54" d="M4.95361 4.81814L8.42374 1.14734C8.57918 0.982913 8.57918 0.716343 8.42374 0.551912C8.26829 0.387481 8.0163 0.387481 7.86086 0.551912L4.39073 4.22271L0.920612 0.552473C0.76517 0.388042 0.513173 0.388042 0.357731 0.552473C0.202289 0.716905 0.202289 0.983474 0.357731 1.1479L3.82785 4.8187L0.358262 8.48894C0.20282 8.65337 0.20282 8.91994 0.358262 9.08437C0.436248 9.16631 0.537577 9.20784 0.639437 9.20784C0.741296 9.20784 0.843156 9.16687 0.920612 9.08437L4.39073 5.41357L7.86086 9.08437C7.93884 9.16631 8.04017 9.20784 8.14203 9.20784C8.24389 9.20784 8.34575 9.16687 8.42321 9.08437C8.57865 8.91994 8.57865 8.65337 8.42321 8.48894L4.95361 4.81814Z" fill="black"/>
</svg>
