<svg width="68" height="54" viewBox="0 0 68 54" fill="none" xmlns="http://www.w3.org/2000/svg">
<path d="M55.3996 14.4001C53.3629 9.72007 49.8479 5.83698 45.3932 3.34581C40.9385 0.854647 35.7898 -0.107169 30.7362 0.607754C25.6826 1.32268 21.0027 3.6749 17.4138 7.30397C13.8249 10.933 11.5249 15.6388 10.8663 20.7001C7.68825 21.4611 4.90037 23.3628 3.03209 26.044C1.16381 28.7252 0.345248 31.9991 0.731846 35.2441C1.11845 38.4891 2.68328 41.4791 5.12919 43.6463C7.5751 45.8135 10.7317 47.0069 13.9996 47.0001C14.8837 47.0001 15.7315 46.6489 16.3567 46.0238C16.9818 45.3986 17.333 44.5508 17.333 43.6667C17.333 42.7827 16.9818 41.9348 16.3567 41.3097C15.7315 40.6846 14.8837 40.3334 13.9996 40.3334C12.2315 40.3334 10.5358 39.631 9.28559 38.3808C8.03535 37.1305 7.33297 35.4348 7.33297 33.6667C7.33297 31.8986 8.03535 30.2029 9.28559 28.9527C10.5358 27.7024 12.2315 27.0001 13.9996 27.0001C14.8837 27.0001 15.7315 26.6489 16.3567 26.0237C16.9818 25.3986 17.333 24.5508 17.333 23.6667C17.3415 19.7243 18.7473 15.9126 21.3005 12.9087C23.8538 9.90477 27.3893 7.90323 31.2788 7.25964C35.1683 6.61605 39.1601 7.37208 42.5449 9.39342C45.9297 11.4148 48.4883 14.5705 49.7663 18.3001C49.9568 18.8729 50.2993 19.3832 50.7573 19.7765C51.2152 20.1698 51.7713 20.4314 52.3663 20.5334C54.5865 20.953 56.5992 22.1121 58.0764 23.8218C59.5536 25.5316 60.4082 27.6913 60.501 29.9489C60.5937 32.2065 59.9192 34.429 58.5873 36.2542C57.2554 38.0794 55.3446 39.3997 53.1663 40.0001C52.3088 40.2211 51.5742 40.7737 51.1241 41.5363C50.674 42.299 50.5453 43.2092 50.7663 44.0667C50.9873 44.9243 51.5399 45.6589 52.3026 46.109C53.0652 46.559 53.9754 46.6877 54.833 46.4667C58.3409 45.5398 61.4506 43.4934 63.6897 40.6383C65.9287 37.7832 67.175 34.2754 67.2391 30.6476C67.3032 27.0198 66.1817 23.4702 64.0449 20.5378C61.908 17.6054 58.8727 15.4504 55.3996 14.4001ZM36.3663 21.3001C36.0493 20.9966 35.6755 20.7587 35.2663 20.6001C34.4548 20.2667 33.5445 20.2667 32.733 20.6001C32.3238 20.7587 31.95 20.9966 31.633 21.3001L21.633 31.3001C21.0053 31.9277 20.6527 32.7791 20.6527 33.6667C20.6527 34.5544 21.0053 35.4057 21.633 36.0334C22.2606 36.6611 23.112 37.0137 23.9996 37.0137C24.8873 37.0137 25.7386 36.6611 26.3663 36.0334L30.6663 31.7001V50.3334C30.6663 51.2174 31.0175 52.0653 31.6426 52.6904C32.2677 53.3155 33.1156 53.6667 33.9996 53.6667C34.8837 53.6667 35.7315 53.3155 36.3567 52.6904C36.9818 52.0653 37.333 51.2174 37.333 50.3334V31.7001L41.633 36.0334C41.9428 36.3458 42.3115 36.5938 42.7177 36.763C43.1239 36.9323 43.5596 37.0194 43.9996 37.0194C44.4397 37.0194 44.8754 36.9323 45.2816 36.763C45.6878 36.5938 46.0564 36.3458 46.3663 36.0334C46.6787 35.7235 46.9267 35.3548 47.0959 34.9486C47.2652 34.5424 47.3523 34.1068 47.3523 33.6667C47.3523 33.2267 47.2652 32.791 47.0959 32.3848C46.9267 31.9786 46.6787 31.6099 46.3663 31.3001L36.3663 21.3001Z" fill="#EEF1F6"/>
</svg>
