<svg width="56" height="56" viewBox="0 0 56 56" fill="none" xmlns="http://www.w3.org/2000/svg">
<ellipse cx="28.5837" cy="28" rx="27.4167" ry="26.8333" fill="#D8DBE2"/>
<path d="M27.6023 12.8334C22.8721 12.8334 19.25 16.863 19.25 21.6108H18.0568C13.9308 21.6108 10.5 25.0362 10.5 29.2162C10.5 33.3963 13.938 36.7718 18.0568 36.7718H24.8182C24.9236 36.7733 25.0282 36.7538 25.1261 36.7143C25.2239 36.6749 25.3129 36.6164 25.388 36.5421C25.4631 36.4679 25.5227 36.3794 25.5633 36.2818C25.604 36.1843 25.625 36.0796 25.625 35.9738C25.625 35.8681 25.604 35.7634 25.5633 35.6658C25.5227 35.5683 25.4631 35.4798 25.388 35.4056C25.3129 35.3313 25.2239 35.2728 25.1261 35.2334C25.0282 35.1939 24.9236 35.1744 24.8182 35.1759H18.0568C14.8031 35.1759 12.0909 32.5191 12.0909 29.2162C12.0909 25.9134 14.8102 23.2067 18.0568 23.2067H20.0455C20.2564 23.2067 20.4587 23.1226 20.6079 22.9729C20.7571 22.8233 20.8409 22.6203 20.8409 22.4087V21.6108C20.8409 17.6675 23.7695 14.4293 27.6023 14.4293H28.3977C31.2288 14.4293 33.2807 15.8996 34.4382 18.3567C34.5021 18.4944 34.6039 18.611 34.7316 18.6927C34.8593 18.7745 35.0076 18.8179 35.1591 18.818H36.3523C38.119 18.818 39.5341 20.2375 39.5341 22.0098V22.8077C39.5344 22.971 39.5845 23.1303 39.6779 23.264C39.7712 23.3978 39.9033 23.4996 40.0561 23.5558C40.5804 23.7439 41.0633 23.9697 41.4606 24.254C41.5448 24.3244 41.6425 24.3765 41.7478 24.4072C41.853 24.4379 41.9634 24.4465 42.0721 24.4323C42.1807 24.4182 42.2853 24.3817 42.3793 24.3251C42.4732 24.2686 42.5545 24.1931 42.6181 24.1036C42.6816 24.014 42.726 23.9122 42.7485 23.8047C42.771 23.6971 42.771 23.586 42.7487 23.4784C42.7264 23.3708 42.6822 23.2689 42.6188 23.1792C42.5554 23.0896 42.4742 23.014 42.3803 22.9573C41.9836 22.6734 41.5543 22.5049 41.125 22.3215V22.0098C41.125 19.3751 38.9788 17.2221 36.3523 17.2221H35.5817C34.1436 14.5842 31.6072 12.8334 28.3977 12.8334H27.6023ZM27.9503 24.8026C27.765 24.8129 27.5891 24.8879 27.4531 25.0145L21.4996 30.6002C21.4111 30.6677 21.3376 30.7532 21.284 30.8511C21.2305 30.9489 21.1979 31.0569 21.1886 31.1682C21.1792 31.2794 21.1932 31.3914 21.2297 31.4968C21.2662 31.6023 21.3243 31.6989 21.4003 31.7805C21.4764 31.862 21.5686 31.9266 21.6711 31.9701C21.7735 32.0137 21.884 32.0351 21.9953 32.0332C22.1065 32.0312 22.2161 32.0059 22.317 31.9588C22.4179 31.9116 22.5078 31.8438 22.581 31.7597L27.2045 27.4333V42.3574C27.2031 42.4631 27.2225 42.5681 27.2618 42.6662C27.3011 42.7644 27.3595 42.8536 27.4335 42.9289C27.5075 43.0042 27.5957 43.0641 27.693 43.1049C27.7902 43.1457 27.8946 43.1667 28 43.1667C28.1054 43.1667 28.2098 43.1457 28.307 43.1049C28.4043 43.0641 28.4925 43.0042 28.5665 42.9289C28.6405 42.8536 28.6989 42.7644 28.7382 42.6662C28.7775 42.5681 28.7969 42.4631 28.7955 42.3574V27.4333L33.419 31.7597C33.5724 31.9047 33.7769 31.9827 33.9875 31.9766C34.1982 31.9706 34.3978 31.8809 34.5427 31.7274C34.6875 31.5738 34.7657 31.3689 34.7601 31.1576C34.7545 30.9462 34.6656 30.7458 34.5128 30.6002L28.5469 25.0145C28.4273 24.9003 28.2753 24.8262 28.1119 24.8026C28.0581 24.7971 28.004 24.7971 27.9503 24.8026ZM43.8594 25.1891C43.7259 25.1964 43.5964 25.2373 43.4829 25.3081C43.3694 25.3789 43.2755 25.4772 43.2098 25.594C43.1442 25.7108 43.1089 25.8423 43.1073 25.9763C43.1057 26.1104 43.1378 26.2427 43.2006 26.3611C43.6405 27.2175 43.9091 28.1906 43.9091 29.2162C43.9091 32.5191 41.1969 35.1759 37.9432 35.1759H31.1818C31.0764 35.1744 30.9718 35.1939 30.8739 35.2334C30.7761 35.2728 30.6871 35.3313 30.612 35.4056C30.5369 35.4798 30.4773 35.5683 30.4367 35.6658C30.396 35.7634 30.375 35.8681 30.375 35.9738C30.375 36.0796 30.396 36.1843 30.4367 36.2818C30.4773 36.3794 30.5369 36.4679 30.612 36.5421C30.6871 36.6164 30.7761 36.6749 30.8739 36.7143C30.9718 36.7538 31.0764 36.7733 31.1818 36.7718H37.9432C42.062 36.7718 45.5 33.3963 45.5 29.2162C45.5 27.9125 45.1617 26.6974 44.6175 25.6379C44.5547 25.5081 44.458 25.3978 44.3376 25.3188C44.2172 25.2397 44.0777 25.1949 43.9339 25.1891C43.9091 25.1879 43.8842 25.1879 43.8594 25.1891Z" fill="black" fill-opacity="0.38"/>
</svg>
