<svg width="76" height="66" viewBox="0 0 76 66" fill="none" xmlns="http://www.w3.org/2000/svg">
<path d="M37.1477 0.5C27.0117 0.5 19.25 9.13498 19.25 19.3088H16.6932C7.8518 19.3088 0.5 26.6489 0.5 35.6061C0.5 44.5634 7.86713 51.7966 16.6932 51.7966H31.1818C31.4077 51.7998 31.632 51.758 31.8416 51.6735C32.0512 51.589 32.242 51.4636 32.4028 51.3045C32.5637 51.1454 32.6914 50.9557 32.7786 50.7467C32.8658 50.5376 32.9107 50.3133 32.9107 50.0867C32.9107 49.8601 32.8658 49.6357 32.7786 49.4267C32.6914 49.2176 32.5637 49.0281 32.4028 48.869C32.242 48.7099 32.0512 48.5844 31.8416 48.5C31.632 48.4155 31.4077 48.3736 31.1818 48.3768H16.6932C9.7209 48.3768 3.90909 42.6837 3.90909 35.6061C3.90909 28.5286 9.73624 22.7285 16.6932 22.7285H20.9545C21.4066 22.7285 21.8401 22.5483 22.1598 22.2276C22.4794 21.907 22.659 21.4721 22.6591 21.0186V19.3088C22.6591 10.8588 28.9347 3.91975 37.1477 3.91975H38.8523C44.9188 3.91975 49.3158 7.0705 51.7962 12.3356C51.9331 12.6308 52.1512 12.8807 52.4249 13.0558C52.6985 13.2309 53.0163 13.324 53.3409 13.3242H55.8977C59.6835 13.3242 62.7159 16.3661 62.7159 20.1637V21.8736C62.7165 22.2235 62.824 22.5648 63.0241 22.8514C63.2241 23.1381 63.507 23.3563 63.8345 23.4766C64.9581 23.8797 65.9928 24.3635 66.8441 24.9727C67.0245 25.1235 67.234 25.2353 67.4595 25.3011C67.685 25.3668 67.9215 25.3852 68.1544 25.3549C68.3873 25.3246 68.6114 25.2464 68.8128 25.1252C69.0141 25.004 69.1883 24.8424 69.3244 24.6504C69.4606 24.4585 69.5557 24.2404 69.6039 24.0099C69.6521 23.7793 69.6522 23.5413 69.6044 23.3107C69.5566 23.0801 69.4618 22.8619 69.3259 22.6697C69.1901 22.4776 69.0161 22.3157 68.815 22.1942C67.9649 21.5858 67.0449 21.2248 66.125 20.8316V20.1637C66.125 14.5179 61.5259 9.90435 55.8977 9.90435H54.2464C51.1648 4.25175 45.7298 0.5 38.8523 0.5H37.1477ZM37.8935 26.1483C37.4964 26.1704 37.1196 26.3311 36.8281 26.6025L24.0707 38.5717C23.8809 38.7165 23.7235 38.8997 23.6087 39.1093C23.4938 39.319 23.4242 39.5505 23.4041 39.7888C23.3841 40.0272 23.4141 40.2671 23.4922 40.4931C23.5704 40.7191 23.695 40.9262 23.8579 41.1009C24.0208 41.2756 24.2184 41.4141 24.438 41.5074C24.6576 41.6006 24.8943 41.6466 25.1327 41.6424C25.3711 41.6383 25.606 41.5839 25.8222 41.483C26.0384 41.382 26.2311 41.2367 26.3878 41.0564L36.2955 31.7856V63.7658C36.2923 63.9924 36.334 64.2173 36.4182 64.4276C36.5024 64.6378 36.6275 64.8292 36.7861 64.9905C36.9447 65.1519 37.1337 65.2801 37.3421 65.3675C37.5505 65.455 37.7741 65.5 38 65.5C38.2259 65.5 38.4495 65.455 38.6579 65.3675C38.8663 65.2801 39.0553 65.1519 39.2139 64.9905C39.3725 64.8292 39.4976 64.6378 39.5818 64.4276C39.666 64.2173 39.7077 63.9924 39.7045 63.7658V31.7856L49.6122 41.0564C49.9409 41.3671 50.379 41.5343 50.8304 41.5213C51.2818 41.5083 51.7097 41.3162 52.02 40.9872C52.3304 40.6581 52.498 40.219 52.486 39.7661C52.474 39.3133 52.2834 38.8837 51.956 38.5717L39.1719 26.6025C38.9157 26.3577 38.5899 26.199 38.2397 26.1483C38.1246 26.1365 38.0086 26.1365 37.8935 26.1483ZM71.9844 26.9765C71.6984 26.9922 71.4209 27.0799 71.1777 27.2315C70.9344 27.3832 70.7331 27.5939 70.5925 27.8442C70.4518 28.0944 70.3763 28.3762 70.3728 28.6635C70.3694 28.9508 70.4382 29.2343 70.5728 29.4879C71.5153 31.3231 72.0909 33.4083 72.0909 35.6061C72.0909 42.6837 66.2791 48.3768 59.3068 48.3768H44.8182C44.5923 48.3736 44.368 48.4155 44.1584 48.5C43.9488 48.5844 43.758 48.7099 43.5972 48.869C43.4363 49.0281 43.3086 49.2176 43.2214 49.4267C43.1342 49.6357 43.0893 49.8601 43.0893 50.0867C43.0893 50.3133 43.1342 50.5376 43.2214 50.7467C43.3086 50.9557 43.4363 51.1454 43.5972 51.3045C43.758 51.4636 43.9488 51.589 44.1584 51.6735C44.368 51.758 44.5923 51.7998 44.8182 51.7966H59.3068C68.1329 51.7966 75.5 44.5634 75.5 35.6061C75.5 32.8125 74.775 30.2087 73.609 27.9383C73.4744 27.6601 73.267 27.4238 73.0091 27.2544C72.7511 27.085 72.4522 26.989 72.1442 26.9765C72.0909 26.974 72.0376 26.974 71.9844 26.9765Z" fill="white"/>
</svg>
