<svg width="16" height="14" viewBox="0 0 16 14" fill="none" xmlns="http://www.w3.org/2000/svg">
<path d="M15.0312 1.45536H8.9375V0.732143C8.9375 0.466964 8.72656 0.25 8.46875 0.25H7.53125C7.27344 0.25 7.0625 0.466964 7.0625 0.732143V1.45536H0.96875C0.710938 1.45536 0.5 1.67232 0.5 1.9375V2.41964C0.5 2.68482 0.710938 2.90179 0.96875 2.90179H7.0625V3.625C7.0625 3.89018 7.27344 4.10714 7.53125 4.10714H8.46875C8.72656 4.10714 8.9375 3.89018 8.9375 3.625V2.90179H15.0312C15.2891 2.90179 15.5 2.68482 15.5 2.41964V1.9375C15.5 1.67232 15.2891 1.45536 15.0312 1.45536ZM15.0312 11.0982H5.1875V10.375C5.1875 10.1098 4.97656 9.89286 4.71875 9.89286H3.78125C3.52344 9.89286 3.3125 10.1098 3.3125 10.375V11.0982H0.96875C0.710938 11.0982 0.5 11.3152 0.5 11.5804V12.0625C0.5 12.3277 0.710938 12.5446 0.96875 12.5446H3.3125V13.2679C3.3125 13.533 3.52344 13.75 3.78125 13.75H4.71875C4.97656 13.75 5.1875 13.533 5.1875 13.2679V12.5446H15.0312C15.2891 12.5446 15.5 12.3277 15.5 12.0625V11.5804C15.5 11.3152 15.2891 11.0982 15.0312 11.0982ZM15.0312 6.27679H12.6875V5.55357C12.6875 5.28839 12.4766 5.07143 12.2188 5.07143H11.2812C11.0234 5.07143 10.8125 5.28839 10.8125 5.55357V6.27679H0.96875C0.710938 6.27679 0.5 6.49375 0.5 6.75893V7.24107C0.5 7.50625 0.710938 7.72321 0.96875 7.72321H10.8125V8.44643C10.8125 8.71161 11.0234 8.92857 11.2812 8.92857H12.2188C12.4766 8.92857 12.6875 8.71161 12.6875 8.44643V7.72321H15.0312C15.2891 7.72321 15.5 7.50625 15.5 7.24107V6.75893C15.5 6.49375 15.2891 6.27679 15.0312 6.27679Z" fill="#9BA2B3"/>
</svg>
