<svg width="14" height="14" viewBox="0 0 14 14" fill="none" xmlns="http://www.w3.org/2000/svg">
<path d="M6.33399 5.00065H7.66732C7.84413 5.00065 8.0137 5.07089 8.13872 5.19591C8.26375 5.32094 8.33399 5.49051 8.33399 5.66732C8.33399 5.84413 8.40423 6.0137 8.52925 6.13872C8.65427 6.26375 8.82384 6.33398 9.00065 6.33398C9.17746 6.33398 9.34703 6.26375 9.47206 6.13872C9.59708 6.0137 9.66732 5.84413 9.66732 5.66732C9.66732 5.13688 9.45661 4.62818 9.08153 4.2531C8.70646 3.87803 8.19775 3.66732 7.66732 3.66732H6.33399C5.80355 3.66732 5.29485 3.87803 4.91977 4.2531C4.5447 4.62818 4.33399 5.13688 4.33399 5.66732V8.33398C4.33399 8.86442 4.5447 9.37313 4.91977 9.7482C5.29485 10.1233 5.80355 10.334 6.33399 10.334H7.66732C8.19775 10.334 8.70646 10.1233 9.08153 9.7482C9.45661 9.37313 9.66732 8.86442 9.66732 8.33398C9.66732 8.15717 9.59708 7.9876 9.47206 7.86258C9.34703 7.73756 9.17746 7.66732 9.00065 7.66732C8.82384 7.66732 8.65427 7.73756 8.52925 7.86258C8.40423 7.9876 8.33399 8.15717 8.33399 8.33398C8.33399 8.5108 8.26375 8.68036 8.13872 8.80539C8.0137 8.93041 7.84413 9.00065 7.66732 9.00065H6.33399C6.15718 9.00065 5.98761 8.93041 5.86258 8.80539C5.73756 8.68036 5.66732 8.5108 5.66732 8.33398V5.66732C5.66732 5.49051 5.73756 5.32094 5.86258 5.19591C5.98761 5.07089 6.15718 5.00065 6.33399 5.00065ZM7.00065 0.333984C5.68211 0.333984 4.39318 0.724978 3.29685 1.45752C2.20052 2.19006 1.34604 3.23125 0.841457 4.44943C0.336873 5.6676 0.204851 7.00805 0.462086 8.30125C0.71932 9.59446 1.35426 10.7823 2.28661 11.7147C3.21896 12.647 4.40685 13.282 5.70005 13.5392C6.99326 13.7965 8.3337 13.6644 9.55188 13.1598C10.7701 12.6553 11.8112 11.8008 12.5438 10.7045C13.2763 9.60812 13.6673 8.31919 13.6673 7.00065C13.6673 6.12517 13.4949 5.25827 13.1599 4.44943C12.8248 3.64059 12.3338 2.90566 11.7147 2.28661C11.0956 1.66755 10.3607 1.17649 9.55188 0.841454C8.74304 0.506423 7.87613 0.333984 7.00065 0.333984ZM7.00065 12.334C5.94582 12.334 4.91467 12.0212 4.03761 11.4352C3.16055 10.8491 2.47696 10.0162 2.0733 9.04163C1.66963 8.06709 1.56401 6.99474 1.7698 5.96017C1.97559 4.9256 2.48354 3.9753 3.22942 3.22941C3.9753 2.48354 4.92561 1.97558 5.96017 1.7698C6.99474 1.56401 8.06709 1.66963 9.04163 2.07329C10.0162 2.47696 10.8491 3.16055 11.4352 4.03761C12.0212 4.91467 12.334 5.94582 12.334 7.00065C12.334 8.41514 11.7721 9.77169 10.7719 10.7719C9.7717 11.7721 8.41514 12.334 7.00065 12.334Z" fill="#A3ACC2"/>
</svg>
