<svg width="120" height="120" viewBox="0 0 120 120" fill="none" xmlns="http://www.w3.org/2000/svg">
<g clip-path="url(#clip0)">
<ellipse cx="61.2507" cy="60.0002" rx="58.75" ry="57.5" fill="#EF4349"/>
<g clip-path="url(#clip1)">
<path d="M37.4995 27.8571V92.1428H74.9995L91.0709 76.0713V27.8571H37.4995Z" fill="#F7F8F9"/>
<path d="M74.9995 76.0714V92.1428L91.0709 76.0714H74.9995Z" fill="#BABFCA"/>
<path opacity="0.5" d="M58.928 92.1428H74.9994V76.0714L58.928 92.1428Z" fill="#D8DBE2"/>
<path d="M26.7852 43.9285V62.6785H69.6423V43.9285H26.7852Z" fill="#A10E13"/>
<path d="M37.5528 49.6392C37.3546 49.2561 36.993 49.066 36.468 49.066C36.1787 49.066 35.9403 49.1436 35.7528 49.3017C35.5653 49.457 35.418 49.7061 35.3108 50.0544C35.2037 50.4026 35.1287 50.8579 35.0858 51.4231C35.0403 51.9856 35.0216 52.674 35.0216 53.4883C35.0216 54.3561 35.051 55.0579 35.11 55.5936C35.1662 56.1294 35.26 56.5419 35.3832 56.8392C35.5064 57.1365 35.6617 57.3347 35.8492 57.4338C36.0367 57.5356 36.2537 57.5892 36.5001 57.5892C36.7037 57.5892 36.8939 57.5544 37.0707 57.4847C37.2475 57.4151 37.4001 57.2758 37.5287 57.0669C37.66 56.8579 37.7617 56.5633 37.8341 56.1829C37.9091 55.8026 37.9466 55.3017 37.9466 54.6802H40.2582C40.2582 55.299 40.21 55.891 40.1135 56.4481C40.0171 57.0052 39.835 57.4927 39.5751 57.9106C39.31 58.3258 38.943 58.6526 38.4662 58.8883C37.9894 59.124 37.3707 59.2445 36.61 59.2445C35.7448 59.2445 35.051 59.1026 34.5394 58.8267C34.0251 58.5481 33.6314 58.1463 33.3582 57.6213C33.085 57.0963 32.9082 56.4695 32.8278 55.741C32.7501 55.0151 32.7073 54.2088 32.7073 53.3329C32.7073 52.4651 32.7501 51.6642 32.8278 50.9302C32.9082 50.199 33.0876 49.5669 33.3582 49.0419C33.6341 48.5195 34.0251 48.107 34.5394 47.8124C35.051 47.5204 35.7448 47.3704 36.61 47.3704C37.4376 47.3704 38.0858 47.5044 38.5626 47.7722C39.0394 48.0401 39.3957 48.3802 39.6287 48.7927C39.8617 49.2052 40.0144 49.6499 40.0707 50.1267C40.1296 50.6035 40.1591 51.0508 40.1591 51.4686H37.8475C37.8475 50.6249 37.7483 50.0169 37.5528 49.6392Z" fill="white"/>
<path d="M45.0452 55.8161C45.0452 56.084 45.0694 56.3277 45.1095 56.5447C45.1551 56.7643 45.2327 56.9492 45.3506 57.0992C45.4685 57.2518 45.6292 57.3697 45.8274 57.4554C46.0229 57.5384 46.2747 57.584 46.572 57.584C46.9283 57.584 47.2443 57.4688 47.5283 57.2384C47.8095 57.0081 47.9542 56.6492 47.9542 56.1697C47.9542 55.9125 47.9167 55.6902 47.8497 55.5027C47.7801 55.3152 47.6649 55.1465 47.5042 54.9992C47.3408 54.8465 47.1292 54.7125 46.8693 54.5893C46.6095 54.4661 46.2827 54.3402 45.897 54.2117C45.3854 54.0402 44.9408 53.85 44.5631 53.6465C44.1881 53.4456 43.8747 53.2072 43.6229 52.9313C43.3711 52.6581 43.1863 52.342 43.0685 51.9831C42.9506 51.6215 42.8917 51.209 42.8917 50.7349C42.8917 49.5992 43.2077 48.7554 43.8399 48.1983C44.4693 47.6411 45.3399 47.3625 46.4435 47.3625C46.9577 47.3625 47.4318 47.4188 47.8658 47.5313C48.2997 47.6438 48.6747 47.8233 48.9908 48.0777C49.3068 48.3295 49.5533 48.6509 49.7301 49.0393C49.9042 49.4304 49.9952 49.8992 49.9952 50.4456V50.767H47.7801C47.7801 50.2206 47.6836 49.8 47.4935 49.5027C47.3006 49.2108 46.9792 49.0608 46.5292 49.0608C46.272 49.0608 46.0577 49.1009 45.8863 49.1733C45.7176 49.2483 45.5783 49.3474 45.4765 49.4706C45.3747 49.5938 45.3024 49.7411 45.2649 49.9018C45.2247 50.0625 45.2086 50.2286 45.2086 50.4C45.2086 50.7563 45.2836 51.0509 45.4336 51.292C45.5836 51.5358 45.9051 51.7581 46.3979 51.959L48.1818 52.7304C48.6211 52.9233 48.9801 53.1242 49.256 53.3358C49.5345 53.5447 49.7595 53.7697 49.9229 54.0108C50.089 54.2518 50.2042 54.5143 50.2685 54.8063C50.3327 55.0929 50.3649 55.417 50.3649 55.7679C50.3649 56.9786 50.014 57.8599 49.3122 58.4117C48.6104 58.9634 47.6327 59.242 46.3792 59.242C45.072 59.242 44.1372 58.9581 43.572 58.3902C43.0095 57.8224 42.731 57.0081 42.731 55.9474V55.4813H45.0452V55.8161Z" fill="white"/>
<path d="M56.4745 56.0732H56.5253L58.2289 47.5875H60.6262L57.9905 59.0625H55.0173L52.3843 47.5875H54.8593L56.4745 56.0732Z" fill="white"/>
</g>
</g>
<defs>
<clipPath id="clip0">
<rect width="120" height="120" fill="white"/>
</clipPath>
<clipPath id="clip1">
<rect width="64.2857" height="64.2857" fill="white" transform="translate(26.7856 27.8571)"/>
</clipPath>
</defs>
</svg>
