<svg width="40" height="40" viewBox="0 0 40 40" fill="none" xmlns="http://www.w3.org/2000/svg">
<g clip-path="url(#clip0)">
<circle cx="20.0006" cy="20" r="20" fill="#00A15D"/>
<path d="M12 8V32H26L32 26V8H12Z" fill="#F7F8F9"/>
<path d="M26 26V32L32 26H26Z" fill="#BABFCA"/>
<path opacity="0.5" d="M20 32H26V26L20 32Z" fill="#D8DBE2"/>
<path d="M8 14V21H24V14H8Z" fill="#007644"/>
<path d="M12.0201 16.1314C11.9461 15.9884 11.8111 15.9174 11.6151 15.9174C11.5071 15.9174 11.4181 15.9464 11.3481 16.0054C11.2781 16.0634 11.2231 16.1564 11.1831 16.2864C11.1431 16.4164 11.1151 16.5864 11.0991 16.7974C11.0821 17.0074 11.0751 17.2644 11.0751 17.5684C11.0751 17.8924 11.0861 18.1544 11.1081 18.3544C11.1291 18.5544 11.1641 18.7084 11.2101 18.8194C11.2561 18.9304 11.3141 19.0044 11.3841 19.0414C11.4541 19.0794 11.5351 19.0994 11.6271 19.0994C11.7031 19.0994 11.7741 19.0864 11.8401 19.0604C11.9061 19.0344 11.9631 18.9824 12.0111 18.9044C12.0601 18.8264 12.0981 18.7164 12.1251 18.5744C12.1531 18.4324 12.1671 18.2454 12.1671 18.0134H13.0301C13.0301 18.2444 13.0121 18.4654 12.9761 18.6734C12.9401 18.8814 12.8721 19.0634 12.7751 19.2194C12.6761 19.3744 12.5391 19.4964 12.3611 19.5844C12.1831 19.6724 11.9521 19.7174 11.6681 19.7174C11.3451 19.7174 11.0861 19.6644 10.8951 19.5614C10.7031 19.4574 10.5561 19.3074 10.4541 19.1114C10.3521 18.9154 10.2861 18.6814 10.2561 18.4094C10.2271 18.1384 10.2111 17.8374 10.2111 17.5104C10.2111 17.1864 10.2271 16.8874 10.2561 16.6134C10.2861 16.3404 10.3531 16.1044 10.4541 15.9084C10.5571 15.7134 10.7031 15.5594 10.8951 15.4494C11.0861 15.3404 11.3451 15.2844 11.6681 15.2844C11.9771 15.2844 12.2191 15.3344 12.3971 15.4344C12.5751 15.5344 12.7081 15.6614 12.7951 15.8154C12.8821 15.9694 12.9391 16.1354 12.9601 16.3134C12.9821 16.4914 12.9931 16.6584 12.9931 16.8144H12.1301C12.1301 16.4994 12.0931 16.2724 12.0201 16.1314Z" fill="white"/>
<path d="M14.8169 18.438C14.8169 18.538 14.8259 18.629 14.8409 18.71C14.8579 18.792 14.8869 18.861 14.9309 18.917C14.9749 18.974 15.0349 19.018 15.1089 19.05C15.1819 19.081 15.2759 19.098 15.3869 19.098C15.5199 19.098 15.6379 19.055 15.7439 18.969C15.8489 18.883 15.9029 18.749 15.9029 18.57C15.9029 18.474 15.8889 18.391 15.8639 18.321C15.8379 18.251 15.7949 18.188 15.7349 18.133C15.6739 18.076 15.5949 18.026 15.4979 17.98C15.4009 17.934 15.2789 17.887 15.1349 17.839C14.9439 17.775 14.7779 17.704 14.6369 17.628C14.4969 17.553 14.3799 17.464 14.2859 17.361C14.1919 17.259 14.1229 17.141 14.0789 17.007C14.0349 16.872 14.0129 16.718 14.0129 16.541C14.0129 16.117 14.1309 15.802 14.3669 15.594C14.6019 15.386 14.9269 15.282 15.3389 15.282C15.5309 15.282 15.7079 15.303 15.8699 15.345C16.0319 15.387 16.1719 15.454 16.2899 15.549C16.4079 15.643 16.4999 15.763 16.5659 15.908C16.6309 16.054 16.6649 16.229 16.6649 16.433V16.553H15.8379C15.8379 16.349 15.8019 16.192 15.7309 16.081C15.6589 15.972 15.5389 15.916 15.3709 15.916C15.2749 15.916 15.1949 15.931 15.1309 15.958C15.0679 15.986 15.0159 16.023 14.9779 16.069C14.9399 16.115 14.9129 16.17 14.8989 16.23C14.8839 16.29 14.8779 16.352 14.8779 16.416C14.8779 16.549 14.9059 16.659 14.9619 16.749C15.0179 16.84 15.1379 16.923 15.3219 16.998L15.9879 17.286C16.1519 17.358 16.2859 17.433 16.3889 17.512C16.4929 17.59 16.5769 17.674 16.6379 17.764C16.6999 17.854 16.7429 17.952 16.7669 18.061C16.7909 18.168 16.8029 18.289 16.8029 18.42C16.8029 18.872 16.6719 19.201 16.4099 19.407C16.1479 19.613 15.7829 19.717 15.3149 19.717C14.8269 19.717 14.4779 19.611 14.2669 19.399C14.0569 19.187 13.9529 18.883 13.9529 18.487V18.313H14.8169V18.438Z" fill="white"/>
<path d="M19.0844 18.534H19.1034L19.7394 15.366H20.6344L19.6504 19.65H18.5404L17.5574 15.366H18.4814L19.0844 18.534Z" fill="white"/>
</g>
<defs>
<clipPath id="clip0">
<rect width="40" height="40" fill="white"/>
</clipPath>
</defs>
</svg>
