<svg width="48" height="48" viewBox="0 0 48 48" fill="none" xmlns="http://www.w3.org/2000/svg">
<circle cx="24.0005" cy="24" r="23.52" fill="white"/>
<path d="M24.0005 0.47998C19.3487 0.47998 14.8013 1.8594 10.9335 4.44381C7.06562 7.02822 4.051 10.7015 2.27083 14.9993C0.49066 19.297 0.0248853 24.0261 0.932409 28.5885C1.83993 33.1509 4.08 37.3418 7.36932 40.6311C10.6587 43.9204 14.8495 46.1605 19.4119 47.068C23.9744 47.9756 28.7035 47.5098 33.0012 45.7296C37.2989 43.9494 40.9722 40.9348 43.5566 37.067C46.141 33.1991 47.5205 28.6518 47.5205 24C47.5205 20.9113 46.9121 17.8528 45.7301 14.9993C44.5481 12.1457 42.8156 9.55286 40.6316 7.36883C38.4476 5.18479 35.8548 3.45232 33.0012 2.27033C30.1476 1.08834 27.0892 0.47998 24.0005 0.47998ZM24.0005 42.816C20.279 42.816 16.6411 41.7124 13.5469 39.6449C10.4526 37.5774 8.0409 34.6387 6.61676 31.2005C5.19262 27.7624 4.82 23.9791 5.54602 20.3292C6.27204 16.6792 8.06409 13.3265 10.6956 10.6951C13.327 8.06359 16.6797 6.27154 20.3297 5.54552C23.9796 4.8195 27.7629 5.19212 31.201 6.61626C34.6392 8.0404 37.5779 10.4521 39.6454 13.5464C41.7129 16.6406 42.8165 20.2785 42.8165 24C42.8165 28.9903 40.8341 33.7762 37.3054 37.3049C33.7767 40.8336 28.9908 42.816 24.0005 42.816Z" fill="url(#paint0_linear)"/>
<path d="M25.7454 22.4994H22.1293C21.3152 22.4994 20.6529 21.8374 20.6529 21.0237C20.6529 20.2101 21.3152 19.548 22.1293 19.548H28.6575C28.9336 19.548 29.1575 19.3242 29.1575 19.048V16.6779C29.1575 16.4018 28.9336 16.1779 28.6575 16.1779H25.1802V14.4043C25.1802 14.1282 24.9563 13.9043 24.6802 13.9043H22.3085C22.0324 13.9043 21.8085 14.1282 21.8085 14.4043V16.1897C19.2845 16.3555 17.2812 18.4596 17.2812 21.0237C17.2812 23.6957 19.4561 25.8695 22.1293 25.8695H25.7454C26.63 25.8695 27.3496 26.5889 27.3496 27.4732C27.3496 28.3574 26.63 29.0767 25.7454 29.0767H18.4531C18.177 29.0767 17.9531 29.3005 17.9531 29.5767V31.9468C17.9531 32.223 18.177 32.4468 18.4531 32.4468H21.8085V34.2204C21.8085 34.4966 22.0324 34.7204 22.3085 34.7204H24.6802C24.9563 34.7204 25.1802 34.4966 25.1802 34.2204V32.4468H25.7454C28.4891 32.4468 30.7213 30.2157 30.7213 27.4732C30.7213 24.7306 28.4891 22.4994 25.7454 22.4994Z" fill="url(#paint1_linear)"/>
<defs>
<linearGradient id="paint0_linear" x1="0.480469" y1="47.52" x2="51.0835" y2="4.68959" gradientUnits="userSpaceOnUse">
<stop stop-color="#EF4349"/>
<stop offset="1" stop-color="#4778EB"/>
</linearGradient>
<linearGradient id="paint1_linear" x1="17.2812" y1="34.7204" x2="36.3902" y2="24.2778" gradientUnits="userSpaceOnUse">
<stop stop-color="#EF4349"/>
<stop offset="1" stop-color="#4778EB"/>
</linearGradient>
</defs>
</svg>
