<svg width="54" height="46" viewBox="0 0 54 46" fill="none" xmlns="http://www.w3.org/2000/svg">
<ellipse cx="14.3785" cy="14.6183" rx="14.1383" ry="14.1383" fill="white"/>
<path d="M14.3785 0.47998C11.5822 0.47998 8.84874 1.30918 6.52371 2.86271C4.19868 4.41624 2.38655 6.62434 1.31645 9.20777C0.24636 11.7912 -0.0336248 14.6339 0.511904 17.3765C1.05743 20.1191 2.40397 22.6383 4.38125 24.6155C6.35852 26.5928 8.87772 27.9393 11.6203 28.4849C14.3628 29.0304 17.2056 28.7504 19.789 27.6803C22.3724 26.6102 24.5805 24.7981 26.1341 22.4731C27.6876 20.148 28.5168 17.4145 28.5168 14.6183C28.5168 12.7616 28.1511 10.9231 27.4406 9.20777C26.7301 7.49244 25.6886 5.93385 24.3758 4.62099C23.0629 3.30813 21.5043 2.26671 19.789 1.55619C18.0737 0.845678 16.2352 0.47998 14.3785 0.47998ZM14.3785 25.9289C12.1415 25.9289 9.95469 25.2655 8.09467 24.0227C6.23465 22.7799 4.78494 21.0134 3.92887 18.9466C3.07279 16.8799 2.8488 14.6057 3.28523 12.4117C3.72165 10.2176 4.79888 8.20226 6.3807 6.62044C7.96252 5.03862 9.97788 3.96139 12.1719 3.52497C14.366 3.08854 16.6402 3.31253 18.7069 4.16861C20.7737 5.02468 22.5401 6.47439 23.783 8.33441C25.0258 10.1944 25.6891 12.3812 25.6891 14.6183C25.6891 17.618 24.4975 20.4949 22.3763 22.6161C20.2552 24.7372 17.3783 25.9289 14.3785 25.9289ZM14.3785 6.13529C14.0035 6.13529 13.6439 6.28425 13.3788 6.54939C13.1136 6.81454 12.9647 7.17415 12.9647 7.54912V14.5193L11.0277 17.8701C10.8403 18.1963 10.79 18.5836 10.8881 18.9469C10.9863 19.3101 11.2246 19.6195 11.5509 19.807C11.8771 19.9945 12.2644 20.0447 12.6277 19.9466C12.9909 19.8485 13.3003 19.6101 13.4878 19.2839L15.6085 15.6079C15.7446 15.3524 15.7989 15.0612 15.7641 14.7738L15.7923 14.6183V7.54912C15.7923 7.17415 15.6434 6.81454 15.3782 6.54939C15.1131 6.28425 14.7535 6.13529 14.3785 6.13529Z" fill="#6A61E7"/>
<circle cx="34.7209" cy="26.2341" r="19.2795" fill="white"/>
<path d="M34.7209 6.95459C30.9078 6.95459 27.1803 8.08531 24.0098 10.2038C20.8393 12.3222 18.3682 15.3333 16.909 18.8561C15.4498 22.379 15.068 26.2554 15.8119 29.9953C16.5558 33.7351 18.392 37.1704 21.0882 39.8667C23.7845 42.563 27.2198 44.3992 30.9596 45.1431C34.6995 45.887 38.5759 45.5052 42.0988 44.046C45.6217 42.5867 48.6327 40.1156 50.7512 36.9451C52.8696 33.7747 54.0003 30.0472 54.0003 26.2341C54.0003 23.7022 53.5017 21.1952 52.5328 18.8561C51.5639 16.517 50.1438 14.3917 48.3535 12.6014C46.5633 10.8112 44.4379 9.39104 42.0988 8.42215C39.7597 7.45327 37.2527 6.95459 34.7209 6.95459ZM34.7209 41.6576C31.6704 41.6576 28.6884 40.753 26.152 39.0583C23.6156 37.3635 21.6387 34.9547 20.4714 32.1364C19.304 29.3181 18.9985 26.2169 19.5937 23.2251C20.1888 20.2332 21.6577 17.485 23.8148 15.3279C25.9718 13.1709 28.72 11.702 31.7119 11.1068C34.7038 10.5117 37.8049 10.8172 40.6232 11.9845C43.4415 13.1519 45.8503 15.1288 47.5451 17.6652C49.2399 20.2016 50.1444 23.1836 50.1444 26.2341C50.1444 30.3246 48.5195 34.2477 45.627 37.1402C42.7345 40.0326 38.8115 41.6576 34.7209 41.6576Z" fill="url(#paint0_linear)"/>
<path d="M36.15 25.0074H33.1858C32.5186 25.0074 31.9757 24.4647 31.9757 23.7977C31.9757 23.1308 32.5186 22.5881 33.1858 22.5881H38.4469C38.7231 22.5881 38.9469 22.3643 38.9469 22.0881V20.3256C38.9469 20.0495 38.7231 19.8256 38.4469 19.8256H35.6867V18.4619C35.6867 18.1858 35.4628 17.9619 35.1867 17.9619H33.4229C33.1468 17.9619 32.9229 18.1858 32.9229 18.4619V19.8353C30.854 19.9712 29.2119 21.6959 29.2119 23.7977C29.2119 25.988 30.9946 27.7699 33.1858 27.7699H36.15C36.8751 27.7699 37.465 28.3596 37.465 29.0844C37.465 29.8092 36.8751 30.3988 36.15 30.3988H30.2626C29.9865 30.3988 29.7626 30.6226 29.7626 30.8988V32.6613C29.7626 32.9374 29.9865 33.1613 30.2626 33.1613H32.9229V34.525C32.9229 34.8011 33.1468 35.025 33.4229 35.025H35.1867C35.4628 35.025 35.6867 34.8011 35.6867 34.525V33.1613H36.15C38.3991 33.1613 40.2288 31.3324 40.2288 29.0844C40.2288 26.8363 38.3991 25.0074 36.15 25.0074Z" fill="url(#paint1_linear)"/>
<defs>
<linearGradient id="paint0_linear" x1="15.4414" y1="45.5135" x2="56.921" y2="10.4052" gradientUnits="userSpaceOnUse">
<stop stop-color="#EF4349"/>
<stop offset="1" stop-color="#4778EB"/>
</linearGradient>
<linearGradient id="paint1_linear" x1="29.2119" y1="35.025" x2="44.8756" y2="26.4651" gradientUnits="userSpaceOnUse">
<stop stop-color="#EF4349"/>
<stop offset="1" stop-color="#4778EB"/>
</linearGradient>
</defs>
</svg>
