<svg width="24" height="24" viewBox="0 0 24 24" fill="none" xmlns="http://www.w3.org/2000/svg">
<path fill-rule="evenodd" clip-rule="evenodd" d="M11.5556 14.8073V5.33312C11.5556 5.08766 11.7545 4.88867 12 4.88867C12.2455 4.88867 12.4444 5.08766 12.4444 5.33312V14.8073L14.9182 12.2629C15.0951 12.0808 15.3874 12.0808 15.5644 12.2629C15.7345 12.4378 15.7345 12.7162 15.5644 12.8911L12.717 15.8199C12.3243 16.2238 11.6757 16.2238 11.283 15.8199L8.43559 12.8911C8.26554 12.7162 8.26554 12.4378 8.43559 12.2629C8.61256 12.0808 8.90487 12.0808 9.08184 12.2629L11.5556 14.8073ZM19.5429 18.1966C19.7953 18.1966 20 18.4013 20 18.6538C20 18.9062 19.7953 19.1109 19.5429 19.1109H4.45714C4.20467 19.1109 4 18.9062 4 18.6538C4 18.4013 4.20467 18.1966 4.45714 18.1966H19.5429Z" fill="black" fill-opacity="0.54"/>
<rect x="0.5" y="0.5" width="23" height="23" rx="3.5" stroke="black" stroke-opacity="0.08"/>
</svg>
