<svg width="80" height="80" viewBox="0 0 80 80" fill="none" xmlns="http://www.w3.org/2000/svg">
<path fill-rule="evenodd" clip-rule="evenodd" d="M20 66.6666H43.3333C44.2174 66.6666 45.0652 67.0178 45.6904 67.6429C46.3155 68.2681 46.6667 69.1159 46.6667 70C46.6667 70.884 46.3155 71.7319 45.6904 72.357C45.0652 72.9821 44.2174 73.3333 43.3333 73.3333H20C17.3478 73.3333 14.8043 72.2797 12.9289 70.4044C11.0536 68.529 10 65.9855 10 63.3333V16.6666C10 14.0145 11.0536 11.4709 12.9289 9.59556C14.8043 7.72019 17.3478 6.66663 20 6.66663H40.1667C40.5541 6.71444 40.9281 6.8391 41.2667 7.03329C41.3662 7.01916 41.4672 7.01916 41.5667 7.03329C41.9094 7.19356 42.2245 7.40735 42.5 7.66663L62.5 27.6666C62.7593 27.9422 62.9731 28.2572 63.1333 28.6V28.9C63.2316 29.1921 63.2986 29.4937 63.3333 29.8V30V40C63.3333 40.884 62.9821 41.7319 62.357 42.357C61.7319 42.9821 60.8841 43.3333 60 43.3333C59.1159 43.3333 58.2681 42.9821 57.643 42.357C57.0179 41.7319 56.6667 40.884 56.6667 40V33.3333H46.6667C44.0145 33.3333 41.471 32.2797 39.5956 30.4044C37.7202 28.529 36.6667 25.9855 36.6667 23.3333V13.3333H20C19.1159 13.3333 18.2681 13.6845 17.643 14.3096C17.0179 14.9347 16.6667 15.7826 16.6667 16.6666V63.3333C16.6667 64.2174 17.0179 65.0652 17.643 65.6903C18.2681 66.3154 19.1159 66.6666 20 66.6666ZM51.9667 26.6666L43.3333 18.0333V23.3333C43.3333 24.2174 43.6845 25.0652 44.3096 25.6903C44.9348 26.3154 45.7826 26.6666 46.6667 26.6666H51.9667ZM24.3096 27.6429C24.9348 27.0178 25.7826 26.6666 26.6667 26.6666H30C30.8841 26.6666 31.7319 27.0178 32.357 27.6429C32.9821 28.2681 33.3333 29.1159 33.3333 30C33.3333 30.884 32.9821 31.7319 32.357 32.357C31.7319 32.9821 30.8841 33.3333 30 33.3333H26.6667C25.7826 33.3333 24.9348 32.9821 24.3096 32.357C23.6845 31.7319 23.3333 30.884 23.3333 30C23.3333 29.1159 23.6845 28.2681 24.3096 27.6429ZM26.6667 40H46.6667C47.5507 40 48.3986 40.3512 49.0237 40.9763C49.6488 41.6014 50 42.4492 50 43.3333C50 44.2174 49.6488 45.0652 49.0237 45.6903C48.3986 46.3154 47.5507 46.6666 46.6667 46.6666H26.6667C25.7826 46.6666 24.9348 46.3154 24.3096 45.6903C23.6845 45.0652 23.3333 44.2174 23.3333 43.3333C23.3333 42.4492 23.6845 41.6014 24.3096 40.9763C24.9348 40.3512 25.7826 40 26.6667 40ZM42.357 59.0237C41.7319 59.6488 40.8841 60 40 60H26.6667C25.7826 60 24.9348 59.6488 24.3096 59.0237C23.6845 58.3985 23.3333 57.5507 23.3333 56.6666C23.3333 55.7826 23.6845 54.9347 24.3096 54.3096C24.9348 53.6845 25.7826 53.3333 26.6667 53.3333H40C40.8841 53.3333 41.7319 53.6845 42.357 54.3096C42.9821 54.9347 43.3333 55.7826 43.3333 56.6666C43.3333 57.5507 42.9821 58.3985 42.357 59.0237ZM50.9726 65.7166L57.6392 72.3833C57.9562 72.6867 58.3301 72.9246 58.7392 73.0833C59.5508 73.4166 60.461 73.4166 61.2726 73.0833C61.6817 72.9246 62.0555 72.6867 62.3726 72.3833L69.0392 65.7166C69.6669 65.0889 70.0195 64.2376 70.0195 63.3499C70.0195 62.4622 69.6669 61.6109 69.0392 60.9832C68.4116 60.3556 67.5602 60.0029 66.6726 60.0029C65.7849 60.0029 64.9336 60.3556 64.3059 60.9832L63.3392 61.9832V53.3499C63.3392 52.4659 62.988 51.618 62.3629 50.9929C61.7378 50.3678 60.89 50.0166 60.0059 50.0166C59.1218 50.0166 58.274 50.3678 57.6489 50.9929C57.0238 51.618 56.6726 52.4659 56.6726 53.3499V61.9832L55.7059 60.9832C55.396 60.6708 55.0274 60.4228 54.6212 60.2536C54.215 60.0844 53.7793 59.9972 53.3392 59.9972C52.8992 59.9972 52.4635 60.0844 52.0573 60.2536C51.6511 60.4228 51.2824 60.6708 50.9726 60.9832C50.6601 61.2931 50.4122 61.6618 50.2429 62.068C50.0737 62.4742 49.9866 62.9099 49.9866 63.3499C49.9866 63.79 50.0737 64.2256 50.2429 64.6318C50.4122 65.038 50.6601 65.4067 50.9726 65.7166Z" fill="#6A61E7"/>
</svg>
