<svg width="28" height="29" viewBox="0 0 28 29" fill="none" xmlns="http://www.w3.org/2000/svg">
<path d="M14.301 14.8637C14.811 14.4273 15.2201 13.8874 15.5005 13.2808C15.7809 12.6742 15.926 12.0151 15.926 11.3482C15.926 10.095 15.4224 8.89316 14.5262 8.00702C13.6299 7.12088 12.4143 6.62305 11.1467 6.62305C9.87922 6.62305 8.66361 7.12088 7.76733 8.00702C6.87105 8.89316 6.36753 10.095 6.36753 11.3482C6.36752 12.0151 6.51263 12.6742 6.793 13.2808C7.07337 13.8874 7.48245 14.4273 7.99246 14.8637C6.65442 15.4628 5.51919 16.4302 4.7225 17.6502C3.92582 18.8703 3.50141 20.2914 3.5 21.7436C3.5 21.9942 3.6007 22.2346 3.77996 22.4118C3.95922 22.5891 4.20234 22.6886 4.45584 22.6886C4.70935 22.6886 4.95247 22.5891 5.13173 22.4118C5.31098 22.2346 5.41169 21.9942 5.41169 21.7436C5.41169 20.2398 6.01591 18.7975 7.09145 17.7341C8.16698 16.6708 9.62571 16.0734 11.1467 16.0734C12.6678 16.0734 14.1265 16.6708 15.202 17.7341C16.2776 18.7975 16.8818 20.2398 16.8818 21.7436C16.8818 21.9942 16.9825 22.2346 17.1618 22.4118C17.341 22.5891 17.5841 22.6886 17.8377 22.6886C18.0912 22.6886 18.3343 22.5891 18.5135 22.4118C18.6928 22.2346 18.7935 21.9942 18.7935 21.7436C18.7921 20.2914 18.3677 18.8703 17.571 17.6502C16.7743 16.4302 15.6391 15.4628 14.301 14.8637ZM11.1467 14.1833C10.5796 14.1833 10.0252 14.017 9.55363 13.7055C9.08207 13.394 8.71453 12.9512 8.49749 12.4332C8.28046 11.9151 8.22367 11.3451 8.33432 10.7951C8.44496 10.2452 8.71807 9.73999 9.1191 9.3435C9.52013 8.947 10.0311 8.67698 10.5873 8.56759C11.1436 8.4582 11.7201 8.51434 12.2441 8.72892C12.7681 8.94351 13.2159 9.30689 13.531 9.77312C13.8461 10.2393 14.0143 10.7875 14.0143 11.3482C14.0143 12.1001 13.7122 12.8212 13.1744 13.3529C12.6366 13.8846 11.9073 14.1833 11.1467 14.1833ZM20.4567 14.4857C21.0684 13.8047 21.468 12.9633 21.6073 12.063C21.7467 11.1626 21.6199 10.2417 21.2421 9.4109C20.8644 8.58014 20.2519 7.87502 19.4783 7.38042C18.7047 6.88581 17.8031 6.6228 16.8818 6.62305C16.6283 6.62305 16.3852 6.72261 16.2059 6.89984C16.0267 7.07707 15.926 7.31744 15.926 7.56808C15.926 7.81872 16.0267 8.05909 16.2059 8.23632C16.3852 8.41355 16.6283 8.51311 16.8818 8.51311C17.6423 8.51311 18.3717 8.81181 18.9095 9.3435C19.4472 9.87518 19.7493 10.5963 19.7493 11.3482C19.748 11.8446 19.6148 12.3319 19.3632 12.7614C19.1116 13.191 18.7504 13.5477 18.3156 13.7959C18.1739 13.8767 18.0555 13.9921 17.9718 14.1311C17.8881 14.2701 17.8419 14.428 17.8377 14.5897C17.8337 14.7501 17.871 14.9089 17.9463 15.0511C18.0215 15.1933 18.1322 15.3142 18.2678 15.4024L18.6406 15.6481L18.7648 15.7143C19.917 16.2546 20.889 17.1091 21.5664 18.1773C22.2437 19.2455 22.5983 20.4828 22.5882 21.7436C22.5882 21.9942 22.6889 22.2346 22.8682 22.4118C23.0474 22.5891 23.2905 22.6886 23.544 22.6886C23.7975 22.6886 24.0407 22.5891 24.2199 22.4118C24.3992 22.2346 24.4999 21.9942 24.4999 21.7436C24.5077 20.2934 24.1403 18.8653 23.4326 17.5949C22.725 16.3246 21.7005 15.2543 20.4567 14.4857Z" fill="url(#paint0_linear)"/>
<defs>
<linearGradient id="paint0_linear" x1="3.5" y1="22.6886" x2="20.9342" y2="3.40004" gradientUnits="userSpaceOnUse">
<stop stop-color="#EF4349"/>
<stop offset="1" stop-color="#4778EB"/>
</linearGradient>
</defs>
</svg>
