<svg width="16" height="16" viewBox="0 0 16 16" fill="none" xmlns="http://www.w3.org/2000/svg">
<path d="M7.21232 1.45161C7.5624 0.849462 8.4376 0.849463 8.78768 1.45161L15.8768 13.6452C16.2269 14.2473 15.7893 15 15.0891 15H0.91089C0.210731 15 -0.226868 14.2473 0.123211 13.6452L7.21232 1.45161Z" fill="#D03630"/>
<path d="M8.88182 5H7.12276L7.26821 11.287H8.73182L8.88182 5ZM8.00002 14C8.53637 14 8.99545 13.5739 9 13.0435C8.99545 12.5217 8.53637 12.0957 8.00002 12.0957C7.44548 12.0957 6.99549 12.5217 7.00003 13.0435C6.99549 13.5739 7.44548 14 8.00002 14Z" fill="white"/>
</svg>
