<svg width="24" height="24" viewBox="0 0 24 24" fill="none" xmlns="http://www.w3.org/2000/svg">
<rect width="24" height="24" rx="3.75" fill="white"/>
<path d="M10.645 12.645L8 15.295V14.5C8 14.3674 7.94732 14.2402 7.85355 14.1464C7.75979 14.0527 7.63261 14 7.5 14C7.36739 14 7.24021 14.0527 7.14645 14.1464C7.05268 14.2402 7 14.3674 7 14.5V16.5C7.00079 16.5653 7.01438 16.6299 7.04 16.69C7.09074 16.8122 7.18783 16.9093 7.31 16.96C7.37011 16.9856 7.43466 16.9992 7.5 17H9.5C9.63261 17 9.75979 16.9473 9.85355 16.8536C9.94732 16.7598 10 16.6326 10 16.5C10 16.3674 9.94732 16.2402 9.85355 16.1464C9.75979 16.0527 9.63261 16 9.5 16H8.705L11.355 13.355C11.4492 13.2608 11.502 13.1332 11.502 13C11.502 12.8668 11.4492 12.7392 11.355 12.645C11.2608 12.5508 11.1332 12.498 11 12.498C10.8668 12.498 10.7392 12.5508 10.645 12.645ZM8.705 8H9.5C9.63261 8 9.75979 7.94732 9.85355 7.85355C9.94732 7.75979 10 7.63261 10 7.5C10 7.36739 9.94732 7.24021 9.85355 7.14645C9.75979 7.05268 9.63261 7 9.5 7H7.5C7.43466 7.00079 7.37011 7.01438 7.31 7.04C7.18783 7.09074 7.09074 7.18783 7.04 7.31C7.01438 7.37011 7.00079 7.43466 7 7.5V9.5C7 9.63261 7.05268 9.75979 7.14645 9.85355C7.24021 9.94732 7.36739 10 7.5 10C7.63261 10 7.75979 9.94732 7.85355 9.85355C7.94732 9.75979 8 9.63261 8 9.5V8.705L10.645 11.355C10.6915 11.4019 10.7468 11.4391 10.8077 11.4644C10.8686 11.4898 10.934 11.5029 11 11.5029C11.066 11.5029 11.1314 11.4898 11.1923 11.4644C11.2532 11.4391 11.3085 11.4019 11.355 11.355C11.4019 11.3085 11.4391 11.2532 11.4644 11.1923C11.4898 11.1314 11.5029 11.066 11.5029 11C11.5029 10.934 11.4898 10.8686 11.4644 10.8077C11.4391 10.7468 11.4019 10.6915 11.355 10.645L8.705 8ZM16.5 14C16.3674 14 16.2402 14.0527 16.1464 14.1464C16.0527 14.2402 16 14.3674 16 14.5V15.295L13.355 12.645C13.2608 12.5508 13.1332 12.498 13 12.498C12.8668 12.498 12.7392 12.5508 12.645 12.645C12.5508 12.7392 12.498 12.8668 12.498 13C12.498 13.1332 12.5508 13.2608 12.645 13.355L15.295 16H14.5C14.3674 16 14.2402 16.0527 14.1464 16.1464C14.0527 16.2402 14 16.3674 14 16.5C14 16.6326 14.0527 16.7598 14.1464 16.8536C14.2402 16.9473 14.3674 17 14.5 17H16.5C16.5653 16.9992 16.6299 16.9856 16.69 16.96C16.8122 16.9093 16.9093 16.8122 16.96 16.69C16.9856 16.6299 16.9992 16.5653 17 16.5V14.5C17 14.3674 16.9473 14.2402 16.8536 14.1464C16.7598 14.0527 16.6326 14 16.5 14ZM16.96 7.31C16.9093 7.18783 16.8122 7.09074 16.69 7.04C16.6299 7.01438 16.5653 7.00079 16.5 7H14.5C14.3674 7 14.2402 7.05268 14.1464 7.14645C14.0527 7.24021 14 7.36739 14 7.5C14 7.63261 14.0527 7.75979 14.1464 7.85355C14.2402 7.94732 14.3674 8 14.5 8H15.295L12.645 10.645C12.5981 10.6915 12.5609 10.7468 12.5356 10.8077C12.5102 10.8686 12.4971 10.934 12.4971 11C12.4971 11.066 12.5102 11.1314 12.5356 11.1923C12.5609 11.2532 12.5981 11.3085 12.645 11.355C12.6915 11.4019 12.7468 11.4391 12.8077 11.4644C12.8686 11.4898 12.934 11.5029 13 11.5029C13.066 11.5029 13.1314 11.4898 13.1923 11.4644C13.2532 11.4391 13.3085 11.4019 13.355 11.355L16 8.705V9.5C16 9.63261 16.0527 9.75979 16.1464 9.85355C16.2402 9.94732 16.3674 10 16.5 10C16.6326 10 16.7598 9.94732 16.8536 9.85355C16.9473 9.75979 17 9.63261 17 9.5V7.5C16.9992 7.43466 16.9856 7.37011 16.96 7.31Z" fill="black" fill-opacity="0.54"/>
<rect x="0.375" y="0.375" width="23.25" height="23.25" rx="3.375" stroke="black" stroke-opacity="0.08" stroke-width="0.75"/>
</svg>
