<svg width="24" height="24" viewBox="0 0 24 24" fill="none" xmlns="http://www.w3.org/2000/svg">
<path d="M11.8 11.4V15.4H12.6V11.4H11.8Z" fill="black" fill-opacity="0.56"/>
<path d="M12.2 8.2C11.7582 8.2 11.4 8.55817 11.4 9C11.4 9.44183 11.7582 9.8 12.2 9.8C12.6418 9.8 13 9.44183 13 9C13 8.55817 12.6418 8.2 12.2 8.2Z" fill="black" fill-opacity="0.56"/>
<path fill-rule="evenodd" clip-rule="evenodd" d="M19.4 12.2C19.4 16.1764 16.1764 19.4 12.2 19.4C8.22355 19.4 5 16.1764 5 12.2C5 8.22355 8.22355 5 12.2 5C16.1764 5 19.4 8.22355 19.4 12.2ZM18.6 12.2C18.6 15.7346 15.7346 18.6 12.2 18.6C8.66538 18.6 5.8 15.7346 5.8 12.2C5.8 8.66538 8.66538 5.8 12.2 5.8C15.7346 5.8 18.6 8.66538 18.6 12.2Z" fill="black" fill-opacity="0.56"/>
<path d="M11.8 11.4V15.4H12.6V11.4H11.8Z" stroke="black" stroke-opacity="0.56" stroke-width="0.3"/>
<path d="M12.2 8.2C11.7582 8.2 11.4 8.55817 11.4 9C11.4 9.44183 11.7582 9.8 12.2 9.8C12.6418 9.8 13 9.44183 13 9C13 8.55817 12.6418 8.2 12.2 8.2Z" stroke="black" stroke-opacity="0.56" stroke-width="0.3"/>
<path fill-rule="evenodd" clip-rule="evenodd" d="M19.4 12.2C19.4 16.1764 16.1764 19.4 12.2 19.4C8.22355 19.4 5 16.1764 5 12.2C5 8.22355 8.22355 5 12.2 5C16.1764 5 19.4 8.22355 19.4 12.2ZM18.6 12.2C18.6 15.7346 15.7346 18.6 12.2 18.6C8.66538 18.6 5.8 15.7346 5.8 12.2C5.8 8.66538 8.66538 5.8 12.2 5.8C15.7346 5.8 18.6 8.66538 18.6 12.2Z" stroke="black" stroke-opacity="0.56" stroke-width="0.3"/>
<path d="M4 1H20V-1H4V1ZM23 4V20H25V4H23ZM20 23H4V25H20V23ZM1 20V4H-1V20H1ZM4 23C2.34315 23 1 21.6569 1 20H-1C-1 22.7614 1.23858 25 4 25V23ZM23 20C23 21.6569 21.6569 23 20 23V25C22.7614 25 25 22.7614 25 20H23ZM20 1C21.6569 1 23 2.34315 23 4H25C25 1.23858 22.7614 -1 20 -1V1ZM4 -1C1.23858 -1 -1 1.23858 -1 4H1C1 2.34315 2.34315 1 4 1V-1Z" fill="black" fill-opacity="0.08"/>
</svg>
