<svg width="16" height="16" viewBox="0 0 16 16" fill="none" xmlns="http://www.w3.org/2000/svg">
<circle cx="8" cy="8" r="7.5" fill="#4174D6" stroke="#4174D6"/>
<path d="M7.97999 5.83999C7.67999 5.83999 7.43332 5.75332 7.23999 5.57999C7.05332 5.39999 6.95999 5.17999 6.95999 4.91999C6.95999 4.65332 7.05332 4.43332 7.23999 4.25999C7.43332 4.07999 7.67999 3.98999 7.97999 3.98999C8.27332 3.98999 8.51332 4.07999 8.69999 4.25999C8.89332 4.43332 8.98999 4.65332 8.98999 4.91999C8.98999 5.17999 8.89332 5.39999 8.69999 5.57999C8.51332 5.75332 8.27332 5.83999 7.97999 5.83999ZM8.82999 6.41999V12H7.11999V6.41999H8.82999Z" fill="white"/>
</svg>
