<svg width="12" height="12" viewBox="0 0 12 12" fill="none" xmlns="http://www.w3.org/2000/svg">
<path d="M5.70156 5.39961V8.39961H6.30156V5.39961H5.70156Z" fill="black" fill-opacity="0.54"/>
<path d="M6.00156 2.99961C5.67019 2.99961 5.40156 3.26824 5.40156 3.59961C5.40156 3.93098 5.67019 4.19961 6.00156 4.19961C6.33293 4.19961 6.60156 3.93098 6.60156 3.59961C6.60156 3.26824 6.33293 2.99961 6.00156 2.99961Z" fill="black" fill-opacity="0.54"/>
<path fill-rule="evenodd" clip-rule="evenodd" d="M11.4016 5.99961C11.4016 8.98195 8.9839 11.3996 6.00156 11.3996C3.01922 11.3996 0.601562 8.98195 0.601562 5.99961C0.601562 3.01727 3.01922 0.599609 6.00156 0.599609C8.9839 0.599609 11.4016 3.01727 11.4016 5.99961ZM10.8016 5.99961C10.8016 8.65058 8.65253 10.7996 6.00156 10.7996C3.3506 10.7996 1.20156 8.65058 1.20156 5.99961C1.20156 3.34864 3.3506 1.19961 6.00156 1.19961C8.65253 1.19961 10.8016 3.34864 10.8016 5.99961Z" fill="black" fill-opacity="0.54"/>
<path d="M5.70156 5.39961V8.39961H6.30156V5.39961H5.70156Z" stroke="black" stroke-opacity="0.54" stroke-width="0.3"/>
<path d="M6.00156 2.99961C5.67019 2.99961 5.40156 3.26824 5.40156 3.59961C5.40156 3.93098 5.67019 4.19961 6.00156 4.19961C6.33293 4.19961 6.60156 3.93098 6.60156 3.59961C6.60156 3.26824 6.33293 2.99961 6.00156 2.99961Z" stroke="black" stroke-opacity="0.54" stroke-width="0.3"/>
<path fill-rule="evenodd" clip-rule="evenodd" d="M11.4016 5.99961C11.4016 8.98195 8.9839 11.3996 6.00156 11.3996C3.01922 11.3996 0.601562 8.98195 0.601562 5.99961C0.601562 3.01727 3.01922 0.599609 6.00156 0.599609C8.9839 0.599609 11.4016 3.01727 11.4016 5.99961ZM10.8016 5.99961C10.8016 8.65058 8.65253 10.7996 6.00156 10.7996C3.3506 10.7996 1.20156 8.65058 1.20156 5.99961C1.20156 3.34864 3.3506 1.19961 6.00156 1.19961C8.65253 1.19961 10.8016 3.34864 10.8016 5.99961Z" stroke="black" stroke-opacity="0.54" stroke-width="0.3"/>
</svg>
