<svg width="59" height="32" viewBox="0 0 59 32" fill="none" xmlns="http://www.w3.org/2000/svg">
<path d="M59 0H0V32H59V0Z" fill="#EF4349"/>
<path d="M48.431 19.1659C48.3971 19.1659 48.3291 19.1316 48.3291 19.0632V7.2557C48.3291 7.18725 48.2611 7.15303 48.2271 7.18725C48.2271 7.18725 47.4114 7.76907 46.5278 8.48779C45.6442 9.20651 45.1684 9.7541 45.1684 9.7541C45.1684 9.7541 45.0664 9.85677 45.0664 9.92522V18.8921C45.0664 19.8846 45.3043 20.6375 45.8141 21.1851C46.3239 21.6985 47.3095 21.9723 48.3631 21.9723H49.6545C49.7225 21.9723 49.7565 21.9381 49.7565 21.8696V19.3028C49.7565 19.2343 49.7225 19.2001 49.6545 19.2001H48.431V19.1659Z" fill="white"/>
<path d="M44.3189 10.3703C44.2849 10.336 44.2509 10.3018 44.1829 10.3018C43.1973 10.3018 42.1777 10.3018 41.1921 10.3018C41.1242 10.3018 41.0562 10.336 41.0562 10.4045C40.6144 11.9446 40.2065 13.4505 39.7307 14.9906C39.3909 16.2911 39.051 17.5916 38.7112 18.8922C38.3713 17.5916 38.0654 16.2911 37.7256 14.9906C37.2497 13.4505 36.7739 11.9104 36.2981 10.3703C36.2641 10.3018 36.2302 10.2676 36.1622 10.2676C35.6524 12.1157 35.1426 13.9981 34.6328 15.8462C35.2785 17.8654 35.9243 19.8505 36.57 21.8697C36.604 21.9382 36.638 21.9724 36.706 21.9724C37.9635 21.9724 39.2209 21.9724 40.4784 21.9724C40.5464 21.9724 40.6144 21.9382 40.6144 21.8697C41.9059 18.0708 43.1633 14.2719 44.3189 10.5072C44.3529 10.4729 44.3529 10.4045 44.3189 10.3703Z" fill="#FFD600"/>
<path d="M36.5688 11.3617L34.9035 16.8035L34.5977 15.8794L36.127 10.3008C36.127 10.3008 36.229 10.3008 36.263 10.4035C36.3309 10.5404 36.5688 11.3617 36.5688 11.3617Z" fill="#FDBC2C"/>
<path d="M36.1619 10.3018C36.0939 10.3018 36.0259 10.3018 35.9579 10.3018C34.9723 10.3018 34.0207 10.3018 33.0351 10.3018H33.0012C32.9332 10.3018 32.8652 10.336 32.8652 10.4045C32.4914 11.9446 32.1515 13.4847 31.7776 15.0248C31.5397 16.0515 31.3358 17.0783 31.0979 18.105C30.826 17.0783 30.5541 16.0515 30.2823 15.0248C29.8404 13.4847 29.3986 11.9446 28.9908 10.4045C28.9228 10.336 28.8888 10.2676 28.8209 10.2676C27.8692 10.2676 26.8836 10.2676 25.932 10.2676C25.8641 10.2676 25.7961 10.3018 25.7961 10.3703C25.3543 11.9104 24.9124 13.4505 24.4706 14.9906C24.1987 16.0173 23.9268 17.0441 23.6889 18.0708C23.451 17.0441 23.2131 16.0173 23.0092 15.0248C22.6354 13.4847 22.2955 11.9446 21.9556 10.4387C21.9556 10.3703 21.8877 10.336 21.8197 10.336C20.8001 10.336 19.7805 10.336 18.7609 10.336C18.727 10.336 18.659 10.3703 18.659 10.4045C18.659 10.4387 18.625 10.4729 18.625 10.5414C19.6106 14.3061 20.6642 18.105 21.7857 21.9039C21.8197 21.9724 21.8537 22.0066 21.9217 22.0066C23.0092 22.0066 24.0968 22.0066 25.1843 22.0066C25.2523 22.0066 25.3203 21.9724 25.3203 21.9039C25.7621 20.2954 26.2039 18.6868 26.6797 17.0783C26.9176 16.2227 27.1215 15.4013 27.3594 14.5457C27.5974 15.4013 27.8013 16.2227 28.0392 17.0783C28.515 18.6868 28.9568 20.2954 29.4326 21.9039C29.4666 21.9724 29.5006 22.0066 29.5685 22.0066C30.6901 22.0066 31.7776 22.0066 32.8992 22.0066C32.9672 22.0066 33.0351 21.9724 33.0351 21.9039C33.5789 19.8847 34.1567 17.8654 34.7005 15.8804C34.7005 15.8804 34.7005 15.8804 34.7005 15.9146C35.1423 13.9981 35.6521 12.1499 36.1619 10.3018Z" fill="white"/>
<path d="M18.3875 18.1384C18.3536 16.9405 17.9117 15.64 15.0909 14.7159C14.9549 14.6817 14.785 14.6132 14.6491 14.579C13.6635 14.271 12.6779 13.9972 12.6779 13.4154C12.6439 12.8678 13.2556 12.5598 14.0713 12.5255C14.785 12.4913 15.5327 12.7651 16.4163 13.3469C16.4843 13.4154 16.5863 13.3812 16.6542 13.3127C17.0961 12.6624 17.5719 12.0122 18.0137 11.3619C18.0477 11.3277 18.0477 11.2592 18.0477 11.225C18.0477 11.1908 18.0137 11.1223 17.9797 11.1223C17.13 10.5747 15.7706 9.85602 13.9014 9.92447C11.1825 9.99292 9.24525 11.4646 9.34721 13.6892C9.41518 15.2293 10.6727 16.256 12.7798 16.9747C12.9158 17.009 13.0517 17.0774 13.1877 17.1116C14.2072 17.4539 15.1588 17.7961 15.1588 18.4464C15.1928 19.0624 14.683 19.4047 13.7314 19.4389C13.6974 19.4389 13.6635 19.4389 13.6295 19.4389C12.7798 19.4389 11.8962 19.1309 10.8766 18.4122C10.8426 18.3779 10.7746 18.3779 10.7406 18.3779C10.7067 18.3779 10.6387 18.4122 10.6387 18.4464C10.1969 19.1309 9.72106 19.8154 9.27924 20.4999C9.21127 20.5683 9.24525 20.7052 9.31322 20.7394C10.4688 21.5608 12.1341 22.0742 13.5615 22.0742C13.6295 22.0742 13.6974 22.0742 13.7314 22.0742C16.6882 21.9373 18.4895 20.4656 18.3875 18.1384Z" fill="white"/>
</svg>
