<svg width="14" height="14" viewBox="0 0 14 14" fill="none" xmlns="http://www.w3.org/2000/svg">
<path fill-rule="evenodd" clip-rule="evenodd" d="M3.11101 1.17971C4.26215 0.410543 5.61553 0 7 0C7.91926 0 8.82951 0.18106 9.67879 0.532843C10.5281 0.884626 11.2997 1.40024 11.9497 2.05025C12.5998 2.70026 13.1154 3.47194 13.4672 4.32122C13.8189 5.17049 14 6.08075 14 7C14 8.38447 13.5895 9.73785 12.8203 10.889C12.0511 12.0401 10.9579 12.9373 9.67879 13.4672C8.3997 13.997 6.99224 14.1356 5.63437 13.8655C4.2765 13.5954 3.02922 12.9287 2.05026 11.9497C1.07129 10.9708 0.404603 9.7235 0.134506 8.36563C-0.13559 7.00776 0.00303298 5.6003 0.532846 4.32122C1.06266 3.04213 1.95987 1.94888 3.11101 1.17971ZM6.48681 6.50252H7.47926C8.2323 6.50252 8.84492 7.1149 8.84492 7.86759C8.84492 8.62029 8.2323 9.23263 7.47926 9.23263H7.32414V9.39395C7.32414 9.64949 7.11699 9.85664 6.86146 9.85664C6.60592 9.85664 6.39877 9.64949 6.39877 9.39395V9.23263H5.80312C5.5477 9.23263 5.34065 9.02558 5.34065 8.77016C5.34065 8.51474 5.5477 8.30768 5.80312 8.30768H7.47926C7.72205 8.30768 7.91955 8.11027 7.91955 7.86759C7.91955 7.62492 7.72205 7.42747 7.47926 7.42747H6.48681C5.75314 7.42747 5.15625 6.83084 5.15625 6.09751C5.15625 5.39378 5.70604 4.8163 6.39877 4.7708V4.60624C6.39877 4.35071 6.60592 4.14355 6.86146 4.14355C7.11699 4.14355 7.32414 4.35071 7.32414 4.60624V4.76756H7.95327C8.20868 4.76756 8.41574 4.97461 8.41574 5.23003C8.41574 5.48545 8.20868 5.69251 7.95327 5.69251H6.48681C6.26339 5.69251 6.08162 5.8742 6.08162 6.09751C6.08162 6.32083 6.26339 6.50252 6.48681 6.50252Z" fill="#9BA2B3"/>
</svg>
