<svg width="24" height="24" viewBox="0 0 24 24" fill="none" xmlns="http://www.w3.org/2000/svg">
<path d="M11.6612 0C7.283 0 3.71829 3.56548 3.71829 7.94367C3.71829 11.7759 5.57476 15.1039 7.43527 17.4778H5.30563C5.17484 17.4778 5.04608 17.5101 4.93078 17.5718C4.81547 17.6335 4.71718 17.7227 4.64463 17.8316L1.46685 22.5982C1.38712 22.7179 1.34135 22.8569 1.33442 23.0005C1.32749 23.1441 1.35966 23.2869 1.42751 23.4137C1.49535 23.5405 1.59632 23.6465 1.71966 23.7204C1.84299 23.7943 1.98407 23.8333 2.12785 23.8333H21.1945C21.3383 23.8333 21.4794 23.7943 21.6027 23.7204C21.726 23.6465 21.827 23.5405 21.8949 23.4137C21.9627 23.2869 21.9949 23.1441 21.9879 23.0005C21.981 22.8569 21.9353 22.7179 21.8555 22.5982L18.6777 17.8316C18.6052 17.7227 18.5069 17.6335 18.3916 17.5718C18.2763 17.5101 18.1475 17.4778 18.0167 17.4778H15.8871C17.7476 15.1039 19.6049 11.7759 19.6049 7.94367C19.6049 3.56548 16.0394 0 11.6612 0ZM11.6612 1.58889C15.1807 1.58889 18.0152 4.42417 18.0152 7.94367C18.0152 14.0923 12.5023 18.817 11.6612 19.5197C10.8203 18.8172 5.30408 14.0925 5.30408 7.94367C5.30408 4.42417 8.1417 1.58889 11.6612 1.58889ZM5.73078 19.0667H8.79761C10.1165 20.4781 11.1747 21.2824 11.1747 21.2824C11.314 21.3904 11.4853 21.449 11.6616 21.449C11.8378 21.449 12.0091 21.3904 12.1484 21.2824C12.1484 21.2824 13.2066 20.4781 14.5255 19.0667H17.5916L19.7104 22.2444H3.612L5.73078 19.0667Z" fill="url(#paint0_linear)"/>
<path d="M11.6612 3.97302C9.4768 3.97302 7.68799 5.7589 7.68799 7.94329C7.68799 10.1277 9.4768 11.9165 11.6612 11.9165C13.8456 11.9165 15.6344 10.1277 15.6344 7.94329C15.6344 5.7589 13.8456 3.97302 11.6612 3.97302ZM11.6612 5.5623C12.9869 5.5623 14.0451 6.6176 14.0451 7.94329C14.0451 9.26898 12.9869 10.3272 11.6612 10.3272C10.3355 10.3272 9.27727 9.26898 9.27727 7.94329C9.27727 6.6176 10.3355 5.5623 11.6612 5.5623Z" fill="url(#paint1_linear)"/>
<defs>
<linearGradient id="paint0_linear" x1="1.3335" y1="23.8333" x2="26.1294" y2="5.64456" gradientUnits="userSpaceOnUse">
<stop stop-color="#EF4349"/>
<stop offset="1" stop-color="#6A61E7"/>
</linearGradient>
<linearGradient id="paint1_linear" x1="7.68799" y1="11.9165" x2="16.2336" y2="4.68077" gradientUnits="userSpaceOnUse">
<stop stop-color="#EF4349"/>
<stop offset="1" stop-color="#6A61E7"/>
</linearGradient>
</defs>
</svg>
