<svg width="14" height="13" viewBox="0 0 14 13" fill="none" xmlns="http://www.w3.org/2000/svg">
<path d="M13.212 1.36687L9.21203 0.0335326H9.16537C9.13433 0.0304137 9.10307 0.0304137 9.07203 0.0335326H8.9187H8.83203H8.78537L4.9987 1.33353L1.21203 0.0335326C1.11178 0.000473611 1.0051 -0.00830387 0.90079 0.00792246C0.796478 0.0241488 0.697511 0.0649151 0.612034 0.126866C0.525872 0.18821 0.455543 0.269175 0.406857 0.363071C0.35817 0.456967 0.332523 0.561099 0.332033 0.666866V10.0002C0.331673 10.14 0.375246 10.2763 0.456595 10.39C0.537943 10.5036 0.652953 10.5888 0.785367 10.6335L4.78537 11.9669C4.91967 12.0107 5.0644 12.0107 5.1987 11.9669L8.9987 10.7002L12.7854 12.0002C12.8562 12.0098 12.9279 12.0098 12.9987 12.0002C13.1381 12.0022 13.2742 11.9576 13.3854 11.8735C13.4715 11.8122 13.5419 11.7312 13.5905 11.6373C13.6392 11.5434 13.6649 11.4393 13.6654 11.3335V2.0002C13.6657 1.86044 13.6222 1.7241 13.5408 1.61045C13.4595 1.4968 13.3444 1.41159 13.212 1.36687ZM4.33203 10.4069L1.66537 9.5202V1.59353L4.33203 2.4802V10.4069ZM8.33203 9.5202L5.66537 10.4069V2.4802L8.33203 1.59353V9.5202ZM12.332 10.4069L9.66537 9.5202V1.59353L12.332 2.4802V10.4069Z" fill="white"/>
</svg>
