<svg width="392" height="308" viewBox="0 0 392 308" fill="none" xmlns="http://www.w3.org/2000/svg">
<g clip-path="url(#clip0)">
<path d="M331.901 41.487C331.611 40.605 329.846 41.1195 329 41.487V47C329.604 46.6325 330.886 45.7871 331.176 45.3461C331.539 44.7948 332.264 42.5896 331.901 41.487Z" fill="#F58B8E"/>
<path d="M331.901 47.487C331.611 46.605 329.846 47.1195 329 47.487V53C329.604 52.6325 330.886 51.7871 331.176 51.3461C331.539 50.7948 332.264 48.5896 331.901 47.487Z" fill="#F58B8E"/>
<path d="M331.901 53.4059C331.611 52.6708 329.846 53.0996 329 53.4059V58C329.604 57.6937 330.886 56.9893 331.176 56.6218C331.539 56.1623 332.264 54.3247 331.901 53.4059Z" fill="#F58B8E"/>
<path d="M308.959 118.091H387.277C388.92 118.091 390.289 116.722 390.289 115.08C390.289 113.439 388.92 112.07 387.277 112.07H308.959C307.316 112.07 305.947 113.439 305.947 115.08C305.947 116.722 307.247 118.091 308.959 118.091Z" fill="#F8AEB1"/>
<path d="M164.577 37.2274H215.579C217.291 37.2274 218.66 35.8591 218.66 34.1489C218.66 32.4386 217.291 31.0703 215.579 31.0703H164.577C162.865 31.0703 161.496 32.4386 161.496 34.1489C161.496 35.7907 162.865 37.2274 164.577 37.2274Z" fill="#F8AEB1"/>
<path d="M352.43 157.976H361.398C363.794 157.976 365.711 156.06 365.711 153.666V145.251C365.711 142.857 363.794 140.941 361.398 140.941H352.361C349.965 140.941 348.048 142.857 348.048 145.251V153.666C348.117 156.06 350.034 157.976 352.43 157.976Z" fill="#6A61E7"/>
<path d="M90.4347 308.001H95.3638C96.6645 308.001 97.6914 306.975 97.6914 305.675V301.092C97.6914 299.792 96.6645 298.766 95.3638 298.766H90.4347C89.1339 298.766 88.107 299.792 88.107 301.092V305.675C88.107 306.975 89.1339 308.001 90.4347 308.001Z" fill="#F8AEB1"/>
<path d="M2.32917 111.179H7.25829C8.55902 111.179 9.58594 110.153 9.58594 108.853V104.201C9.58594 102.901 8.55902 101.875 7.25829 101.875H2.32917C1.02843 101.875 0.0015564 102.901 0.0015564 104.201V108.785C0.0015564 110.153 1.02843 111.179 2.32917 111.179Z" fill="#6A61E7"/>
<path d="M259.464 307.045H288.422C290.544 307.045 292.324 305.335 292.324 303.146C292.324 301.025 290.613 299.246 288.422 299.246H259.464C257.341 299.246 255.561 300.956 255.561 303.146C255.63 305.266 257.341 307.045 259.464 307.045Z" fill="#F8AEB1"/>
<path d="M73.4594 279.473H306.907C309.577 279.473 311.836 277.284 311.836 274.548V80.2577C311.836 77.5896 309.645 75.332 306.907 75.332H73.4594C70.7894 75.332 68.5302 77.5212 68.5302 80.2577V274.548C68.5302 277.284 70.7894 279.473 73.4594 279.473Z" fill="#FBD2D4"/>
<path d="M311.836 99.9609H68.5302" stroke="#FFF7CC" stroke-width="1.9411" stroke-miterlimit="10"/>
<path d="M73.4594 279.473H306.907C309.577 279.473 311.836 277.284 311.836 274.548V80.2577C311.836 77.5896 309.645 75.332 306.907 75.332H73.4594C70.7894 75.332 68.5302 77.5212 68.5302 80.2577V274.548C68.5302 277.284 70.7894 279.473 73.4594 279.473Z" stroke="#FFF7CC" stroke-width="1.9411" stroke-miterlimit="10"/>
<path d="M291.229 91.3412C289.339 91.3412 287.806 89.8097 287.806 87.9206C287.806 86.0315 289.339 84.5 291.229 84.5C293.12 84.5 294.652 86.0315 294.652 87.9206C294.652 89.8097 293.12 91.3412 291.229 91.3412Z" stroke="#FFF7CC" stroke-width="1.9411" stroke-miterlimit="10"/>
<path d="M277.948 91.3412C276.058 91.3412 274.525 89.8097 274.525 87.9206C274.525 86.0315 276.058 84.5 277.948 84.5C279.839 84.5 281.371 86.0315 281.371 87.9206C281.371 89.8097 279.839 91.3412 277.948 91.3412Z" stroke="#FFF7CC" stroke-width="1.9411" stroke-miterlimit="10"/>
<path d="M264.6 91.3412C262.71 91.3412 261.177 89.8097 261.177 87.9206C261.177 86.0315 262.71 84.5 264.6 84.5C266.491 84.5 268.023 86.0315 268.023 87.9206C268.023 89.8097 266.491 91.3412 264.6 91.3412Z" stroke="#FFF7CC" stroke-width="1.9411" stroke-miterlimit="10"/>
<path d="M295.72 240.315H327.554C332.894 240.315 337.207 236.005 337.207 230.669V203.646C337.207 198.31 332.894 194 327.554 194H295.652C290.312 194 285.999 198.31 285.999 203.646V230.669C285.999 236.005 290.381 240.315 295.72 240.315Z" fill="#6A61E7"/>
<path d="M311.672 227.181C317.628 227.181 322.488 222.323 322.488 216.372C322.488 210.42 317.628 205.562 311.672 205.562C305.716 205.562 300.855 210.42 300.855 216.372C300.787 222.255 305.647 227.181 311.672 227.181ZM311.672 208.709C315.848 208.709 319.271 212.13 319.271 216.303C319.271 220.476 315.848 223.897 311.672 223.897C307.496 223.897 304.073 220.476 304.073 216.303C304.073 212.13 307.427 208.709 311.672 208.709Z" fill="#FFF7CC"/>
<path d="M305.236 208.711L317.695 223.898" stroke="#FFF7CC" stroke-width="4.522" stroke-miterlimit="10"/>
<path d="M46.7205 177.315H78.5542C83.8941 177.315 88.207 173.005 88.207 167.669V140.646C88.207 135.31 83.8941 131 78.5542 131H46.652C41.3122 131 36.9992 135.31 36.9992 140.646V167.669C36.9992 173.005 41.3806 177.315 46.7205 177.315Z" fill="#F8AEB1"/>
<path d="M67.7143 164.057C67.7143 162.833 67.1933 161.659 66.266 160.793C65.3386 159.928 64.0808 159.441 62.7693 159.441C61.4578 159.441 60.2 159.928 59.2726 160.793C58.3452 161.659 57.8242 162.833 57.8242 164.057" stroke="#FFF7CC" stroke-width="2" stroke-linecap="round"/>
<path d="M71.1619 160.709C70.2208 158.449 68.3885 156.669 66.0679 155.76C63.7473 154.851 61.1286 154.888 58.7878 155.862C56.447 156.837 54.5759 158.67 53.5861 160.957" stroke="#FFF7CC" stroke-width="2" stroke-linecap="round"/>
<path d="M75.308 159.233C74.0289 155.79 71.3696 153.021 67.9152 151.535C64.4608 150.048 60.4942 149.966 56.888 151.306C53.2819 152.646 50.3315 155.299 48.686 158.68" stroke="#FFF7CC" stroke-width="2" stroke-linecap="round"/>
<path d="M80.8654 156.896C79.0785 152.15 75.382 148.345 70.589 146.318C65.796 144.291 60.2992 144.208 55.3078 146.087C50.3164 147.966 46.2393 151.654 43.9734 156.339" stroke="#FFF7CC" stroke-width="2" stroke-linecap="round"/>
<path d="M177.448 206.954L177.927 200.113L220.715 202.234V208.87C220.715 208.87 230.368 218.037 234.133 278.924H157.184C157.184 278.855 148.695 224.947 177.448 206.954Z" fill="#6A61E7"/>
<path d="M220.785 208.8L177.45 206.953" stroke="black" stroke-width="1.5516" stroke-miterlimit="10"/>
<path d="M211.953 236.848L203.053 240.474L198.33 278.853" stroke="black" stroke-width="1.5516" stroke-miterlimit="10"/>
<path d="M271.659 111.347L232.17 121.422L240.703 147.848L278.579 137.083C286.416 134.901 290.436 126.242 287.072 118.827C284.464 112.884 277.896 109.71 271.659 111.347Z" fill="#F58B8E"/>
<path d="M232.176 121.377C224.485 123.36 219.946 131.379 222.204 139.019C224.403 146.45 232.152 150.775 239.575 148.642L261.843 142.314L253.311 115.888L232.176 121.377Z" fill="#FFF7CC"/>
<path d="M312.636 76.9261L286.003 132.001L268.002 112.501L301.781 68.8827L305.502 61.5012L305.502 52.0012C307.169 50.3345 307.302 49.3012 308.502 48.5012C310.002 47.5012 310.002 47.0012 309.002 49.0012C308.202 50.6012 311.502 50.8345 310.502 52.0012L310.502 62.5012L326.002 64.5012L312.636 76.9261Z" fill="#F58B8E"/>
<rect x="310.211" y="33.3516" width="19.1209" height="31.6483" rx="2" fill="black"/>
<rect x="310.871" y="35.3281" width="17.8022" height="28.3516" rx="2" fill="white"/>
<path d="M324.718 30.0568C324.718 28.8327 324.197 27.6588 323.27 26.7932C322.342 25.9277 321.085 25.4414 319.773 25.4414C318.462 25.4414 317.204 25.9277 316.276 26.7932C315.349 27.6588 314.828 28.8327 314.828 30.0568" stroke="#6A61E7" stroke-width="2" stroke-linecap="round"/>
<path d="M328.17 26.7092C327.229 24.4491 325.396 22.6688 323.076 21.7598C320.755 20.8509 318.136 20.8878 315.796 21.8624C313.455 22.8371 311.584 24.6696 310.594 26.9569" stroke="#6A61E7" stroke-width="2" stroke-linecap="round"/>
<path d="M332.312 25.2326C331.033 21.7903 328.374 19.0214 324.919 17.5349C321.465 16.0484 317.498 15.9661 313.892 17.3062C310.286 18.6462 307.335 21.2988 305.69 24.6804" stroke="#6A61E7" stroke-width="2" stroke-linecap="round"/>
<path d="M337.869 22.8956C336.082 18.1497 332.386 14.3447 327.593 12.3177C322.8 10.2907 317.303 10.2078 312.312 12.0871C307.32 13.9664 303.243 17.6541 300.977 22.3388" stroke="#6A61E7" stroke-width="2" stroke-linecap="round"/>
<path d="M266.41 112.5L276.548 118.508" stroke="#C91118" stroke-width="1.5" stroke-miterlimit="10"/>
<path d="M226.259 123.969L237.281 124.79C237.281 124.79 253.3 146.477 220.782 202.164L177.995 200.044L174.777 140.046L180.049 123.012H199.217L226.259 123.969Z" fill="#FFF7CC"/>
<path d="M238.788 160.979C238.788 160.979 242.005 154.275 239.952 139.43" stroke="#FBD2D4" stroke-width="1.5516" stroke-miterlimit="10"/>
<path d="M139.741 162.142L153.984 143.671L174.785 162.142L159.685 179.838C154.181 185.878 144.687 185.616 139.484 179.347C135.375 174.289 135.467 167.022 139.741 162.142Z" fill="#F58B8E"/>
<path d="M165.436 128.168C170.64 122.191 179.847 121.667 185.645 127.033C191.328 132.298 191.744 141.116 186.527 146.878L170.977 164.048L151.142 144.611L165.436 128.168Z" fill="#FFF7CC"/>
<path d="M170.975 164.048L183.824 149.84" stroke="#FBD2D4" stroke-width="1.5516" stroke-miterlimit="10"/>
<path d="M218.454 136.707C219.121 137.357 219.245 138.412 218.78 139.244L216.083 144.043L220.84 139.818C221.634 139.103 222.814 139.065 223.607 139.802C224.457 140.616 224.465 142.001 223.593 142.774L219.359 146.729L224.849 143.647C225.75 143.155 226.968 143.33 227.528 144.241C228.214 145.239 227.883 146.575 226.905 147.125L218.034 153.524L218.961 161.473L220.584 155.967C220.886 154.834 222.019 154.168 223.208 154.547C224.204 154.829 224.812 155.885 224.666 156.901L223.855 162.525C223.376 165.845 221.766 168.864 219.247 170.991C219.237 171.058 219.17 171.049 219.16 171.116C215.953 174.181 210.586 172.093 210.586 172.093L151.502 184L141.627 162.356L207.421 159.533L208.535 151.808C208.536 151.324 208.604 150.85 208.74 150.385L208.75 150.317C208.935 149.514 209.255 148.73 209.711 147.966L215.425 137.101C215.998 136.007 217.478 135.806 218.454 136.707Z" fill="#F58B8E"/>
<path d="M140 164.643L164 161" stroke="#C91118" stroke-width="1.5" stroke-miterlimit="10"/>
<path d="M220.813 72.0195C222.292 72.5613 231.557 72.6078 232.094 74.1654C232.094 74.1654 232.07 86.0296 235.512 87.3435C244.84 90.9739 250.14 101.274 250.14 101.274C250.14 101.274 233.33 122.131 173.898 119.793C173.898 119.793 171.55 113.331 180.423 105.995C182.923 103.878 184.988 101.165 185.873 97.976C186.578 95.4677 186.541 94.4889 186.385 92.4817C185.849 86.7592 195.791 62.7761 220.813 72.0195Z" fill="black"/>
<path d="M224.244 88.864C224.905 92.5782 228.5 95.053 232.217 94.3913C235.933 93.7295 238.411 90.1356 237.75 86.4214C237.089 82.7071 233.494 80.2323 229.777 80.8941C225.994 81.5727 223.583 85.1497 224.244 88.864Z" fill="#C91118"/>
<path d="M223.18 108.239L222.221 123.084C221.879 128.283 219.757 131.841 214.622 131.499C210.241 131.225 205.038 127.668 204.764 123.289L207.366 99.9609L223.18 108.239Z" fill="#F58B8E"/>
<path d="M226.26 123.973L199.287 123.016C199.287 123.016 199.971 136.288 215.991 135.056C227.081 134.235 226.26 123.973 226.26 123.973Z" fill="#F58B8E"/>
<path d="M222.358 120.484L205.106 103.586L223.316 106.664L222.358 120.484Z" fill="#C91118"/>
<path d="M221.592 109.304C230.085 107.147 235.417 98.663 233.914 91.6334L230.285 75.1209C228.41 66.3506 219.889 60.6097 210.979 62.2377C201.936 63.8994 194.314 72.8234 195.924 81.9433L199.01 95.2056C201.388 105.401 211.188 111.17 221.592 109.304Z" fill="#F58B8E"/>
<path d="M223.497 88.1387L225.072 92.1149L222.965 92.7205" stroke="black" stroke-width="1.2385" stroke-miterlimit="10" stroke-linecap="round" stroke-linejoin="round"/>
<path d="M212.54 80.3296C212.54 80.3296 217.15 78.7351 217.705 80.6412C217.705 80.6412 218.041 81.9673 213.978 83.2112C209.932 84.5214 208.786 84.4595 208.085 83.3671C207.45 82.2579 210.35 80.8858 212.54 80.3296Z" fill="black"/>
<path d="M226.916 79.6447C226.916 79.6447 223.266 80.2897 223.372 82.0979C223.372 82.0979 223.476 83.342 226.629 82.6824C229.798 82.0892 230.692 81.4385 230.439 80.4439C230.286 79.283 228.575 79.2234 226.916 79.6447Z" fill="black"/>
<path d="M226.292 85.8038C226.511 86.6658 227.277 87.1771 228.139 86.958C229.002 86.7389 229.514 85.9736 229.295 85.1117C229.076 84.2497 228.31 83.7383 227.448 83.9574C226.635 84.0933 226.073 84.9418 226.292 85.8038Z" fill="black"/>
<path d="M213.502 88.557C213.721 89.419 214.486 89.9304 215.349 89.7113C216.212 89.4922 216.724 88.7269 216.505 87.8649C216.286 87.0029 215.52 86.4915 214.657 86.7106C213.861 86.9129 213.366 87.7445 213.502 88.557Z" fill="black"/>
<path d="M219.63 99.8666C219.63 99.8666 220.679 97.5494 224.316 97.5064" stroke="black" stroke-width="1.2385" stroke-miterlimit="10" stroke-linecap="round" stroke-linejoin="round"/>
<path d="M204.95 60.7333C207.039 60.0613 209.23 59.7872 211.422 59.7952C216.868 59.8235 226.984 61.2771 231.069 70.6859C232.257 73.137 232.078 74.1001 232.078 74.1001C232.078 74.1001 215.127 79.1116 203.829 76.8994C203.936 83.4367 203.569 87.5532 198.997 95.1377L191.568 88.4136L186.844 95.4013C186.895 95.6002 180.023 68.5472 204.95 60.7333Z" fill="black"/>
<path d="M190.154 97.5944C190.815 101.309 194.41 103.784 198.127 103.122C201.844 102.46 204.321 98.8661 203.66 95.1519C202.999 91.4376 199.404 88.9628 195.687 89.6245C191.971 90.2863 189.493 93.8802 190.154 97.5944Z" fill="#F58B8E"/>
<path d="M199.901 97.5886C199.901 97.5886 199.021 92.7303 194.477 94.3079" stroke="black" stroke-width="1.2385" stroke-miterlimit="10" stroke-linecap="round" stroke-linejoin="round"/>
<path d="M310.5 45.4991L305.5 51.999L308 56.9991C310.667 53.4991 311.505 50.4778 312 48.4991C312.5 46.4991 311.5 44.6657 310.5 45.4991Z" fill="#F58B8E"/>
<path d="M59 167L77 143" stroke="#FFF7CC" stroke-width="2" stroke-linecap="round"/>
</g>
<defs>
<clipPath id="clip0">
<rect width="392" height="308" fill="white" transform="matrix(-1 0 0 1 392 0)"/>
</clipPath>
</defs>
</svg>
