<svg width="245" height="173" viewBox="0 0 245 173" fill="none" xmlns="http://www.w3.org/2000/svg">
<g clip-path="url(#clip0)">
<path d="M51.9016 54.3928H2.95295C1.92606 54.3928 1.07031 53.5382 1.07031 52.5128C1.07031 51.4873 1.92606 50.6328 2.95295 50.6328H51.9016C52.9285 50.6328 53.7842 51.4873 53.7842 52.5128C53.7842 53.5382 52.9713 54.3928 51.9016 54.3928Z" fill="#F8AEB1"/>
<path d="M142.142 3.88836H110.265C109.196 3.88836 108.34 3.03383 108.34 1.96567C108.34 0.897501 109.196 0.0429688 110.265 0.0429688H142.142C143.212 0.0429688 144.067 0.897501 144.067 1.96567C144.067 2.9911 143.212 3.88836 142.142 3.88836Z" fill="#F8AEB1"/>
<path d="M24.7304 79.2991H19.1253C17.6277 79.2991 16.4297 78.1027 16.4297 76.6073V71.3519C16.4297 69.8565 17.6277 68.6602 19.1253 68.6602H24.7732C26.2708 68.6602 27.4688 69.8565 27.4688 71.3519V76.6073C27.426 78.1027 26.228 79.2991 24.7304 79.2991Z" fill="#6A61E7"/>
<path d="M188.477 172.999H185.396C184.583 172.999 183.941 172.358 183.941 171.546V168.683C183.941 167.871 184.583 167.23 185.396 167.23H188.477C189.29 167.23 189.932 167.871 189.932 168.683V171.546C189.932 172.358 189.29 172.999 188.477 172.999Z" fill="#F8AEB1"/>
<path d="M243.547 50.0765H240.467C239.654 50.0765 239.012 49.4356 239.012 48.6237V45.7183C239.012 44.9065 239.654 44.2656 240.467 44.2656H243.547C244.36 44.2656 245.002 44.9065 245.002 45.7183V48.581C245.002 49.4356 244.36 50.0765 243.547 50.0765Z" fill="#6A61E7"/>
<path d="M28.8397 139.031L13.308 147.021L17.8006 149.2L12.2383 155.823L16.5598 159.369L21.9082 152.234L25.5023 156.079L28.8397 139.031Z" fill="#FFF7CC"/>
<path d="M82.8387 172.402H64.7397C63.4132 172.402 62.3008 171.334 62.3008 169.967C62.3008 168.642 63.3705 167.531 64.7397 167.531H82.8387C84.1651 167.531 85.2776 168.599 85.2776 169.967C85.2348 171.291 84.1651 172.402 82.8387 172.402Z" fill="#F8AEB1"/>
<path d="M199.091 155.184H53.1862C51.5175 155.184 50.1055 153.816 50.1055 152.107V30.7638C50.1055 29.0975 51.4747 27.6875 53.1862 27.6875H199.091C200.76 27.6875 202.172 29.0547 202.172 30.7638V152.107C202.172 153.816 200.76 155.184 199.091 155.184Z" fill="#FBD2D4"/>
<path d="M50.1055 43.0703H202.172" stroke="#FFF7CC" stroke-width="1.9411" stroke-miterlimit="10"/>
<path d="M199.091 155.184H53.1862C51.5175 155.184 50.1055 153.816 50.1055 152.107V30.7638C50.1055 29.0975 51.4747 27.6875 53.1862 27.6875H199.091C200.76 27.6875 202.172 29.0547 202.172 30.7638V152.107C202.172 153.816 200.76 155.184 199.091 155.184Z" stroke="#FFF7CC" stroke-width="1.9411" stroke-miterlimit="10"/>
<path d="M62.9831 37.6867C64.1647 37.6867 65.1225 36.7303 65.1225 35.5504C65.1225 34.3705 64.1647 33.4141 62.9831 33.4141C61.8016 33.4141 60.8438 34.3705 60.8438 35.5504C60.8438 36.7303 61.8016 37.6867 62.9831 37.6867Z" stroke="#FFF7CC" stroke-width="1.9411" stroke-miterlimit="10"/>
<path d="M71.2839 37.6867C72.4654 37.6867 73.4233 36.7303 73.4233 35.5504C73.4233 34.3705 72.4654 33.4141 71.2839 33.4141C70.1024 33.4141 69.1445 34.3705 69.1445 35.5504C69.1445 36.7303 70.1024 37.6867 71.2839 37.6867Z" stroke="#FFF7CC" stroke-width="1.9411" stroke-miterlimit="10"/>
<path d="M79.6277 37.6867C80.8092 37.6867 81.767 36.7303 81.767 35.5504C81.767 34.3705 80.8092 33.4141 79.6277 33.4141C78.4461 33.4141 77.4883 34.3705 77.4883 35.5504C77.4883 36.7303 78.4461 37.6867 79.6277 37.6867Z" stroke="#FFF7CC" stroke-width="1.9411" stroke-miterlimit="10"/>
<path d="M81.681 132.241H4.44988C2.011 132.241 0 130.275 0 127.797V99.2131C0 96.7777 1.96822 94.7695 4.44988 94.7695H81.7237C84.1626 94.7695 86.1736 96.735 86.1736 99.2131V127.797C86.1308 130.233 84.1198 132.241 81.681 132.241Z" fill="#F8AEB1"/>
<path d="M10.4393 101.733C10.4393 102.63 9.71195 103.357 8.81342 103.357C7.91488 103.357 7.1875 102.63 7.1875 101.733C7.1875 100.836 7.91488 100.109 8.81342 100.109C9.71195 100.109 10.4393 100.836 10.4393 101.733Z" stroke="#FFF7CC" stroke-width="1.4768" stroke-miterlimit="10"/>
<path d="M15.1454 103.357C16.0434 103.357 16.7714 102.63 16.7714 101.733C16.7714 100.836 16.0434 100.109 15.1454 100.109C14.2475 100.109 13.5195 100.836 13.5195 101.733C13.5195 102.63 14.2475 103.357 15.1454 103.357Z" stroke="#FFF7CC" stroke-width="1.4768" stroke-miterlimit="10"/>
<path d="M21.4775 103.357C22.3754 103.357 23.1034 102.63 23.1034 101.733C23.1034 100.836 22.3754 100.109 21.4775 100.109C20.5795 100.109 19.8516 100.836 19.8516 101.733C19.8516 102.63 20.5795 103.357 21.4775 103.357Z" stroke="#FFF7CC" stroke-width="1.4768" stroke-miterlimit="10"/>
<path d="M0 107.887H86.1308" stroke="#FFF7CC" stroke-width="1.4768" stroke-miterlimit="10"/>
<path d="M220.526 47.2552H185.868C182.959 47.2552 180.648 44.9052 180.648 42.0426V14.0994C180.648 11.194 183.002 8.88672 185.868 8.88672H220.526C223.436 8.88672 225.746 11.2367 225.746 14.0994V41.9998C225.746 44.9052 223.436 47.2552 220.526 47.2552Z" fill="#F8AEB1"/>
<path d="M200.33 32.4275C196.009 32.4275 192.543 28.9239 192.543 24.6512C192.543 20.3359 196.052 16.875 200.33 16.875C204.652 16.875 208.118 20.3786 208.118 24.6512C208.16 28.9239 204.652 32.4275 200.33 32.4275ZM200.33 18.6268C196.993 18.6268 194.297 21.3186 194.297 24.6512C194.297 27.9839 196.993 30.6757 200.33 30.6757C203.668 30.6757 206.363 27.9839 206.363 24.6512C206.363 21.3186 203.668 18.6268 200.33 18.6268Z" fill="#FFF7CC"/>
<path d="M205.846 28.9058L204.605 30.1445L206.905 32.4406L208.145 31.202L205.846 28.9058Z" fill="#FFF7CC"/>
<path d="M209.357 30.8884L213.892 35.4175C214.363 35.8875 214.363 36.6993 213.892 37.1693L212.865 38.1947C212.395 38.6647 211.582 38.6647 211.111 38.1947L206.576 33.6657C206.105 33.1957 206.105 32.3839 206.576 31.9139L207.603 30.8884C208.073 30.3757 208.843 30.3757 209.357 30.8884Z" fill="#FFF7CC"/>
<path d="M36.8822 35.2072H16.9861C13.6487 35.2072 10.9531 32.5154 10.9531 29.1827V12.3057C10.9531 8.97303 13.6487 6.28125 16.9861 6.28125H36.925C40.2624 6.28125 42.958 8.97303 42.958 12.3057V29.1827C42.958 32.5154 40.2196 35.2072 36.8822 35.2072Z" fill="#6A61E7"/>
<path d="M26.9127 27.0055C23.1902 27.0055 20.1523 23.9719 20.1523 20.2547C20.1523 16.5375 23.1902 13.5039 26.9127 13.5039C30.6352 13.5039 33.6731 16.5375 33.6731 20.2547C33.7159 23.9292 30.678 27.0055 26.9127 27.0055ZM26.9127 15.4693C24.3027 15.4693 22.1633 17.6057 22.1633 20.212C22.1633 22.8183 24.3027 24.9546 26.9127 24.9546C29.5228 24.9546 31.6621 22.8183 31.6621 20.212C31.6621 17.6057 29.5655 15.4693 26.9127 15.4693Z" fill="#FFF7CC"/>
<path d="M30.9357 15.4688L23.1484 24.9541" stroke="#FFF7CC" stroke-width="4.522" stroke-miterlimit="10"/>
<path d="M134.096 109.894L133.796 105.621L107.054 106.946V111.09C107.054 111.09 101.021 116.815 98.668 154.842H146.761C146.761 154.799 152.067 121.131 134.096 109.894Z" fill="#6A61E7"/>
<path d="M107.012 111.048L134.096 109.895" stroke="black" stroke-width="1.5516" stroke-miterlimit="10"/>
<path d="M112.531 128.566L118.094 130.831L121.046 154.801" stroke="black" stroke-width="1.5516" stroke-miterlimit="10"/>
<path d="M77.7442 101.604L85.1464 77.25L101.406 83.3172L93.6183 106.646C92.0352 111.474 86.5156 113.739 81.9802 111.431C78.3433 109.637 76.5462 105.45 77.7442 101.604Z" fill="#F58B8E"/>
<path d="M89.1704 64.2165C90.6252 59.4739 95.7597 56.8676 100.466 58.4912C105.045 60.0721 107.526 65.0284 105.986 69.6001L101.408 83.3153L85.1484 77.2482L89.1704 64.2165Z" fill="#FFF7CC"/>
<path d="M90.2796 99.7664L71.7099 64.6024C71.7099 64.6024 72.1378 58.2361 61.5693 57.8516C61.4409 57.8516 61.2698 57.8516 61.1414 57.8516H57.5901C56.9483 57.8516 56.3492 58.3216 56.2637 58.9625C56.1781 59.7315 56.6915 60.3724 57.3761 60.4579L60.9275 60.9706L56.0925 62.2524L55.194 62.5942L48.6047 58.2361C48.0913 57.8516 47.3639 58.0225 47.0216 58.6206C46.7649 59.0479 46.8933 59.6034 47.2783 59.9452C47.7062 60.287 48.348 60.8424 49.0754 61.4833L47.6206 60.6288C47.0644 60.287 46.337 60.5433 46.0803 61.0988C45.8664 61.5688 46.0375 62.1242 46.4226 62.3806C46.7649 62.6369 47.2356 62.936 47.7062 63.2778L47.1928 63.0642C46.6365 62.8506 45.9947 63.0215 45.6524 63.4915C45.1818 64.1751 45.4813 65.0724 46.2087 65.3714L53.4397 68.405C54.6805 68.9178 55.8786 69.2596 57.3334 68.9178L63.7514 67.4223L78.128 107.628L90.2796 99.7664Z" fill="#F58B8E"/>
<path d="M82.6641 85.3242L86.1298 91.8186" stroke="#C91118" stroke-width="1.5" stroke-miterlimit="10"/>
<path d="M103.585 58.0669L96.6965 58.5796C96.6965 58.5796 86.6843 72.124 107.008 106.903L133.75 105.579L135.761 68.1077L132.467 57.4688H120.486L103.585 58.0669Z" fill="#FFF7CC"/>
<path d="M95.7533 81.1815C95.7533 81.1815 93.7423 76.9943 95.0259 67.7227" stroke="#FBD2D4" stroke-width="1.5516" stroke-miterlimit="10"/>
<path d="M157.881 96.6944L146.756 73.793L131.652 82.3383L142.991 104.172C145.344 108.701 151.121 110.068 155.271 107.12C158.566 104.727 159.678 100.326 157.881 96.6944Z" fill="#F58B8E"/>
<path d="M140.767 61.572C138.585 57.1285 133.108 55.3339 128.743 57.6412C124.465 59.9057 122.796 65.1611 125.021 69.4765L131.653 82.3372L146.757 73.7918L140.767 61.572Z" fill="#FFF7CC"/>
<path d="M131.653 82.3381L126.176 71.6992" stroke="#FBD2D4" stroke-width="1.5516" stroke-miterlimit="10"/>
<path d="M181.07 57.4689C180.728 56.9989 180.086 56.828 179.53 57.0417L176.321 58.2807L179.359 55.7171C179.872 55.2899 180.001 54.5635 179.616 54.0081C179.188 53.4099 178.332 53.2817 177.776 53.7517L174.952 56.0162L177.348 52.8972C177.733 52.3845 177.733 51.6154 177.22 51.1881C176.663 50.6754 175.808 50.7609 175.38 51.3163L170.63 56.2299L165.795 54.9481L169.347 54.4353C170.074 54.3499 170.588 53.709 170.459 52.9399C170.374 52.299 169.775 51.829 169.133 51.829H165.581C163.485 51.829 161.474 52.5554 159.933 53.9226C159.891 53.9226 159.891 53.9653 159.848 53.9653C157.666 55.6744 158.479 59.178 158.479 59.178L145.172 96.8201L158.35 102.674L165.966 62.2543H170.844C171.144 62.297 171.443 62.297 171.743 62.2543H171.786C172.299 62.2116 172.812 62.0834 173.326 61.8698L180.557 59.3062C181.284 59.0498 181.541 58.1526 181.07 57.4689Z" fill="#F58B8E"/>
<path d="M150.39 81.1836L147.48 91.2243" stroke="#C91118" stroke-width="1.5" stroke-miterlimit="10"/>
<path d="M103.073 27.0484C102.26 27.6039 96.6546 29.0566 96.569 30.082C96.569 30.082 98.4088 37.2601 96.5262 38.5846C91.4345 42.2164 89.8086 49.2663 89.8086 49.2663C89.8086 49.2663 103.201 59.307 138.843 48.7536C138.843 48.7536 139.271 44.4809 132.767 41.4046C130.927 40.5073 129.258 39.1828 128.232 37.3883C127.419 35.9783 127.29 35.3801 127.076 34.1411C126.52 30.5947 116.807 17.6059 103.073 27.0484Z" fill="black"/>
<path d="M103.584 37.77C103.756 40.12 101.958 42.1708 99.6051 42.3417C97.2518 42.5126 95.1981 40.7181 95.0269 38.3682C94.8558 36.0182 96.6528 33.9673 99.0061 33.7964C101.402 33.6255 103.413 35.42 103.584 37.77Z" fill="#C91118"/>
<path d="M105.512 48.2402L106.111 57.5119C106.325 60.7591 107.651 62.9809 110.86 62.7673C113.599 62.5964 116.85 60.3746 117.021 57.6401L115.396 43.0703L105.512 48.2402Z" fill="#F58B8E"/>
<path d="M103.587 58.0669L120.445 57.4688C120.445 57.4688 120.017 65.7577 110.005 64.9886C103.073 64.4759 103.587 58.0669 103.587 58.0669Z" fill="#F58B8E"/>
<path d="M106.025 55.8894L116.807 45.3359L105.426 47.2586L106.025 55.8894Z" fill="#C91118"/>
<path d="M108.334 49.7363C102.857 49.7363 98.3219 45.421 98.1508 40.9347L97.8085 30.3812C97.5945 24.784 101.873 19.9986 107.521 19.6141C113.255 19.2296 119.245 23.4595 119.673 29.2276L119.844 37.7302C119.972 44.2673 114.923 49.2664 108.334 49.7363Z" fill="#F58B8E"/>
<path d="M103.928 37.2148L103.586 39.8639L104.955 39.9066" stroke="black" stroke-width="1.2385" stroke-miterlimit="10" stroke-linecap="round" stroke-linejoin="round"/>
<path d="M109.362 30.8071C109.362 30.8071 106.324 30.5508 106.281 31.7898C106.281 31.7898 106.281 32.6444 108.934 32.7725C111.587 32.9434 112.271 32.7298 112.528 31.9607C112.742 31.1917 110.774 30.8071 109.362 30.8071Z" fill="black"/>
<path d="M100.547 32.6032C100.547 32.6032 102.858 32.4323 103.072 33.5432C103.072 33.5432 103.2 34.3123 101.189 34.3977C99.1781 34.5259 98.5362 34.2695 98.5362 33.6286C98.4507 32.9023 99.4776 32.6032 100.547 32.6032Z" fill="black"/>
<path d="M101.875 36.232C101.875 36.7874 101.49 37.2147 100.933 37.2147C100.377 37.2147 99.9492 36.8302 99.9492 36.2747C99.9492 35.7193 100.334 35.292 100.891 35.292C101.404 35.2493 101.875 35.6766 101.875 36.232Z" fill="black"/>
<path d="M110.047 35.9361C110.047 36.4915 109.661 36.9188 109.105 36.9188C108.549 36.9188 108.121 36.5342 108.121 35.9788C108.121 35.4234 108.506 34.9961 109.062 34.9961C109.576 34.9961 110.004 35.4234 110.047 35.9361Z" fill="black"/>
<path d="M107.178 41.7029C107.178 41.7029 105.723 41.062 104.012 42.5575" stroke="black" stroke-width="1.2385" stroke-miterlimit="10" stroke-linecap="round" stroke-linejoin="round"/>
<path d="M110.946 17.7757C109.576 17.6902 108.207 17.8611 106.881 18.2029C103.586 19.0575 97.6815 21.4929 96.6546 27.8164C96.3123 29.4828 96.569 30.0382 96.569 30.0382C96.569 30.0382 107.608 30.4655 114.112 27.3892C115.053 31.3627 115.909 33.7982 119.845 37.6863L123.311 32.4736L127.247 35.9772C127.247 36.1054 127.247 18.6729 110.946 17.7757Z" fill="black"/>
<path d="M125.577 37.813C125.748 40.1629 123.951 42.2138 121.597 42.3847C119.244 42.5556 117.19 40.7611 117.019 38.4111C116.848 36.0612 118.645 34.0103 120.998 33.8394C123.352 33.6685 125.405 35.463 125.577 37.813Z" fill="#F58B8E"/>
<path d="M119.671 39.3078C119.671 39.3078 119.457 36.2315 122.452 36.4878" stroke="black" stroke-width="1.2385" stroke-miterlimit="10" stroke-linecap="round" stroke-linejoin="round"/>
</g>
<defs>
<clipPath id="clip0">
<rect width="245" height="173" fill="white"/>
</clipPath>
</defs>
</svg>
