<svg width="18" height="17" viewBox="0 0 18 17" fill="none" xmlns="http://www.w3.org/2000/svg">
<path fill-rule="evenodd" clip-rule="evenodd" d="M14.2104 4.25983C14.1443 3.57104 13.9008 2.91112 13.5039 2.34433C13.1069 1.77755 12.5699 1.32323 11.9452 1.02559C11.3205 0.727964 10.6294 0.597174 9.93917 0.645958C9.24892 0.694743 8.58307 0.921441 8.00645 1.30398C7.51107 1.63522 7.0952 2.07207 6.78872 2.58315C6.48224 3.09422 6.29275 3.66683 6.23387 4.25983C6.17612 4.84896 6.25022 5.44355 6.45081 6.00048C6.6514 6.5574 6.97345 7.06269 7.39359 7.47969L8.81186 8.90063H5.42023C5.32156 8.90063 5.20717 8.90926 5.0877 8.93733C4.4919 9.07731 4.02786 9.38596 3.7338 9.81099C3.44258 10.2319 3.34474 10.7293 3.41376 11.1982C3.55398 12.1508 4.37338 12.9666 5.59482 12.9666H15.2454C15.6291 12.9666 15.8635 13.2143 15.9233 13.5175C15.9819 13.815 15.8626 14.0761 15.5402 14.1788C15.5402 14.1788 15.5414 14.1786 15.5375 14.1791C15.533 14.1797 15.5232 14.1806 15.5049 14.1806H4.47599C4.35465 13.2563 3.56387 12.5427 2.60642 12.5427C1.56497 12.5427 0.720703 13.387 0.720703 14.4284C0.720703 15.4699 1.56497 16.3142 2.60642 16.3142C3.27962 16.3142 3.87043 15.9614 4.20407 15.4306H15.5049C15.6254 15.4306 15.7664 15.4186 15.9194 15.3699C16.9483 15.0423 17.3096 14.087 17.1497 13.2758C16.9909 12.4702 16.3075 11.7166 15.2454 11.7166H5.59482C4.99071 11.7166 4.69996 11.3526 4.65044 11.0162C4.6246 10.8407 4.662 10.6664 4.76175 10.5222C4.85866 10.3821 5.04133 10.2323 5.3736 10.1542C5.37739 10.1533 5.39227 10.1506 5.42023 10.1506H10.1504C10.3657 10.1506 10.5557 10.0417 10.6681 9.8759L13.0507 7.47969C13.4709 7.06269 13.7929 6.5574 13.9935 6.00048C14.1941 5.44355 14.2682 4.84896 14.2104 4.25983ZM10.2222 2.54855C9.80258 2.54855 9.39243 2.67297 9.04356 2.90607C8.69469 3.13918 8.42278 3.4705 8.26222 3.85814C8.10165 4.24578 8.05964 4.67233 8.1415 5.08385C8.22335 5.49536 8.4254 5.87337 8.72208 6.17005C9.01877 6.46674 9.39677 6.66879 9.80829 6.75064C10.2198 6.8325 10.6464 6.79049 11.034 6.62992C11.4216 6.46936 11.753 6.19745 11.9861 5.84858C12.2192 5.49971 12.3436 5.08956 12.3436 4.66998C12.3423 4.10772 12.1184 3.56885 11.7209 3.17128C11.3233 2.7737 10.7844 2.54979 10.2222 2.54855Z" fill="#9BA2B3"/>
</svg>
