<svg width="26" height="20" viewBox="0 0 26 20" fill="none" xmlns="http://www.w3.org/2000/svg">
<path fill-rule="evenodd" clip-rule="evenodd" d="M1 13.6V19.6H25V17.2C25 13.4743 21.9582 11.2 18.4 11.2H16C14.6121 11.2 13.8157 11.4617 13.3021 11.8435C13.1649 11.9454 13.0564 12.0501 12.9694 12.1457C11.9173 11.5439 10.6988 11.2 9.4 11.2H3.4C2.07452 11.2 1 12.2745 1 13.6ZM3.4 12.4H9.4C12.7137 12.4 15.4 15.0863 15.4 18.4H2.2V13.6C2.2 12.9373 2.73726 12.4 3.4 12.4ZM13.975 12.8401C15.578 14.1607 16.6 16.161 16.6 18.4H23.8V17.2C23.8 14.2983 21.4691 12.4 18.4 12.4H16C14.7478 12.4 14.2443 12.6383 14.0179 12.8066C14.0029 12.8177 13.9887 12.8289 13.975 12.8401Z" fill="url(#paint0_linear)"/>
<path fill-rule="evenodd" clip-rule="evenodd" d="M11.8 4.60002C11.8 6.91962 9.9196 8.80002 7.6 8.80002C5.2804 8.80002 3.4 6.91962 3.4 4.60002C3.4 2.28043 5.2804 0.400024 7.6 0.400024C9.9196 0.400024 11.8 2.28043 11.8 4.60002ZM10.6 4.60002C10.6 6.25688 9.25686 7.60002 7.6 7.60002C5.94315 7.60002 4.6 6.25688 4.6 4.60002C4.6 2.94317 5.94315 1.60002 7.6 1.60002C9.25686 1.60002 10.6 2.94317 10.6 4.60002Z" fill="url(#paint1_linear)"/>
<path fill-rule="evenodd" clip-rule="evenodd" d="M17.2 8.80002C18.8569 8.80002 20.2 7.45688 20.2 5.80002C20.2 4.14317 18.8569 2.80002 17.2 2.80002C15.5431 2.80002 14.2 4.14317 14.2 5.80002C14.2 7.45688 15.5431 8.80002 17.2 8.80002ZM19 5.80002C19 6.79414 18.1941 7.60002 17.2 7.60002C16.2059 7.60002 15.4 6.79414 15.4 5.80002C15.4 4.80591 16.2059 4.00002 17.2 4.00002C18.1941 4.00002 19 4.80591 19 5.80002Z" fill="url(#paint2_linear)"/>
<path fill-rule="evenodd" clip-rule="evenodd" d="M1 13.6V19.6H25V17.2C25 13.4743 21.9582 11.2 18.4 11.2H16C14.6121 11.2 13.8157 11.4617 13.3021 11.8435C13.1649 11.9454 13.0564 12.0501 12.9694 12.1457C11.9173 11.5439 10.6988 11.2 9.4 11.2H3.4C2.07452 11.2 1 12.2745 1 13.6ZM3.4 12.4H9.4C12.7137 12.4 15.4 15.0863 15.4 18.4H2.2V13.6C2.2 12.9373 2.73726 12.4 3.4 12.4ZM13.975 12.8401C15.578 14.1607 16.6 16.161 16.6 18.4H23.8V17.2C23.8 14.2983 21.4691 12.4 18.4 12.4H16C14.7478 12.4 14.2443 12.6383 14.0179 12.8066C14.0029 12.8177 13.9887 12.8289 13.975 12.8401Z" stroke="url(#paint3_linear)" stroke-width="0.3"/>
<path fill-rule="evenodd" clip-rule="evenodd" d="M11.8 4.60002C11.8 6.91962 9.9196 8.80002 7.6 8.80002C5.2804 8.80002 3.4 6.91962 3.4 4.60002C3.4 2.28043 5.2804 0.400024 7.6 0.400024C9.9196 0.400024 11.8 2.28043 11.8 4.60002ZM10.6 4.60002C10.6 6.25688 9.25686 7.60002 7.6 7.60002C5.94315 7.60002 4.6 6.25688 4.6 4.60002C4.6 2.94317 5.94315 1.60002 7.6 1.60002C9.25686 1.60002 10.6 2.94317 10.6 4.60002Z" stroke="url(#paint4_linear)" stroke-width="0.3"/>
<path fill-rule="evenodd" clip-rule="evenodd" d="M17.2 8.80002C18.8569 8.80002 20.2 7.45688 20.2 5.80002C20.2 4.14317 18.8569 2.80002 17.2 2.80002C15.5431 2.80002 14.2 4.14317 14.2 5.80002C14.2 7.45688 15.5431 8.80002 17.2 8.80002ZM19 5.80002C19 6.79414 18.1941 7.60002 17.2 7.60002C16.2059 7.60002 15.4 6.79414 15.4 5.80002C15.4 4.80591 16.2059 4.00002 17.2 4.00002C18.1941 4.00002 19 4.80591 19 5.80002Z" stroke="url(#paint5_linear)" stroke-width="0.3"/>
<defs>
<linearGradient id="paint0_linear" x1="1" y1="19.6" x2="21.9089" y2="-2.52159" gradientUnits="userSpaceOnUse">
<stop stop-color="#EF4349"/>
<stop offset="1" stop-color="#6A61E7"/>
</linearGradient>
<linearGradient id="paint1_linear" x1="1" y1="19.6" x2="21.9089" y2="-2.52159" gradientUnits="userSpaceOnUse">
<stop stop-color="#EF4349"/>
<stop offset="1" stop-color="#6A61E7"/>
</linearGradient>
<linearGradient id="paint2_linear" x1="1" y1="19.6" x2="21.9089" y2="-2.52159" gradientUnits="userSpaceOnUse">
<stop stop-color="#EF4349"/>
<stop offset="1" stop-color="#6A61E7"/>
</linearGradient>
<linearGradient id="paint3_linear" x1="1" y1="19.6" x2="21.9089" y2="-2.52159" gradientUnits="userSpaceOnUse">
<stop stop-color="#EF4349"/>
<stop offset="1" stop-color="#6A61E7"/>
</linearGradient>
<linearGradient id="paint4_linear" x1="1" y1="19.6" x2="21.9089" y2="-2.52159" gradientUnits="userSpaceOnUse">
<stop stop-color="#EF4349"/>
<stop offset="1" stop-color="#6A61E7"/>
</linearGradient>
<linearGradient id="paint5_linear" x1="1" y1="19.6" x2="21.9089" y2="-2.52159" gradientUnits="userSpaceOnUse">
<stop stop-color="#EF4349"/>
<stop offset="1" stop-color="#6A61E7"/>
</linearGradient>
</defs>
</svg>
