<svg width="208" height="247" viewBox="0 0 208 247" fill="none" xmlns="http://www.w3.org/2000/svg">
<g clip-path="url(#clip0)">
<path opacity="0.8" fill-rule="evenodd" clip-rule="evenodd" d="M225.749 141L77.6853 224.243L77.6528 224.186L68.5892 229.32C63.7394 232.067 63.7683 239.064 68.6407 241.771C71.4305 243.321 71.49 247.312 68.7476 248.944L59.9124 254.203L51.45 249.533L50.0003 252.159L59.2157 257.245L59.9687 257.661L60.7078 257.221L70.2821 251.522C75.0126 248.706 74.9099 241.822 70.0976 239.148C67.273 237.579 67.2562 233.523 70.0677 231.93L70.8048 231.513L129.813 272.818L131.533 270.361L73.6964 229.875L78.2041 227.322L86.2822 232.128C91.7864 235.402 98.6397 235.409 104.15 232.144L168.35 194.109C178.607 188.032 191.368 188.059 201.6 194.179L240.23 217.288L241.771 214.714L203.14 191.605C191.964 184.919 178.025 184.89 166.821 191.527L102.621 229.563C98.0551 232.268 92.3767 232.263 87.8161 229.549L81.2827 225.662L227.219 143.615L225.749 141Z" fill="url(#paint0_linear)"/>
<path fill-rule="evenodd" clip-rule="evenodd" d="M249.83 71L107.381 156.172C100.871 160.064 100.973 169.529 107.565 173.281C112.178 175.906 112.227 182.538 107.653 185.232L54.3684 216.609L30.4321 202.247C27.6114 200.554 27.5744 196.479 30.3638 194.736L29.5688 193.464L30.3052 192.157L20.4144 186.584C10.149 180.799 -2.44322 181.024 -12.4956 187.171L-33.9998 200.321L-32.4347 202.881L-10.9305 189.731C-1.80605 184.151 9.62378 183.947 18.9416 189.197L26.9951 193.735C24.2064 197.074 24.8524 202.398 28.8886 204.819L51.4256 218.341L6.59912 244.738L8.12137 247.323L109.175 187.817C115.737 183.953 115.666 174.44 109.049 170.674C104.453 168.058 104.382 161.46 108.921 158.746L161.667 127.209L176.073 135.849C182.684 139.815 190.907 139.959 197.654 136.229C201.86 133.903 201.93 127.882 197.78 125.459L180.992 115.654L251.369 73.5748L249.83 71ZM178.052 117.412L164.588 125.462L177.616 133.276C183.31 136.692 190.392 136.816 196.202 133.603C198.371 132.404 198.408 129.299 196.268 128.049L178.052 117.412Z" fill="url(#paint1_linear)"/>
<path opacity="0.3" fill-rule="evenodd" clip-rule="evenodd" d="M55.2387 117.747L287.511 -18.861L288.525 -17.137L57.2134 118.906L81.152 132.955L247.465 37.268L247.978 36.9727L248.484 37.2807L307.507 73.2248L306.467 74.933L247.949 39.2968L119.466 113.218L213.518 170.145L212.483 171.855L117.486 114.358L83.1374 134.12L228.007 219.138L226.994 220.862L55.2398 120.067L10.8437 146.178C3.59198 150.443 3.61752 160.939 10.8899 165.169L43.5027 184.137L44.9825 184.997L43.5061 185.863L-77.4939 256.863L-78.5061 255.139L41.0175 185.005L9.88434 166.897C1.28976 161.899 1.25958 149.495 9.82974 144.454L53.2651 118.908L25.9158 102.858C21.0734 100.016 15.1086 99.8699 10.1328 102.471L9.66949 101.585L9.16852 102.45L-98.5013 40.1272L-97.4994 38.3962L9.7027 100.448C15.1867 97.7903 21.651 98.0362 26.928 101.133L55.2387 117.747Z" fill="#E4E8FB"/>
<path opacity="0.9" fill-rule="evenodd" clip-rule="evenodd" d="M-15.4913 119L54.3161 159.618C54.6418 159.808 54.9546 160.008 55.2543 160.219C64.7171 154.5 76.5757 154.391 86.1605 159.988L94.7094 164.981L94.7193 164.986L94.7292 164.992L131.612 187.299L131.62 187.304L131.628 187.309L200.974 230.431L200.987 230.439L200.999 230.448L236.818 253.742L235.183 256.257L199.376 232.971L130.06 189.866L130.044 189.857L93.1965 167.571L93.1767 167.559L84.6476 162.579C76.2701 157.686 65.9644 157.633 57.5725 162.34C62.2713 167.916 61.1801 176.906 54.3038 180.897C52.3938 182.005 52.3347 184.743 54.1952 185.932L179.92 266.331L178.304 268.859L52.579 188.46C48.826 186.06 48.9451 180.538 52.798 178.302C58.9736 174.718 58.9787 165.802 52.8073 162.211L-17 121.593L-15.4913 119Z" fill="url(#paint2_linear)"/>
</g>
<defs>
<linearGradient id="paint0_linear" x1="145.573" y1="140.806" x2="145.573" y2="272.818" gradientUnits="userSpaceOnUse">
<stop stop-color="#FF3364"/>
<stop offset="1" stop-color="#D3A9E9"/>
</linearGradient>
<linearGradient id="paint1_linear" x1="108.468" y1="141.689" x2="6.31823" y2="219.465" gradientUnits="userSpaceOnUse">
<stop stop-color="#3FA4FF"/>
<stop offset="1" stop-color="#BFBBFA" stop-opacity="0.06"/>
</linearGradient>
<linearGradient id="paint2_linear" x1="159.66" y1="253.753" x2="65.9944" y2="180.646" gradientUnits="userSpaceOnUse">
<stop stop-color="#F6D248"/>
<stop offset="0.990382" stop-color="#71E1B2" stop-opacity="0.71"/>
</linearGradient>
<clipPath id="clip0">
<rect width="208" height="247" fill="white"/>
</clipPath>
</defs>
</svg>
