<svg width="12" height="12" viewBox="0 0 12 12" fill="none" xmlns="http://www.w3.org/2000/svg">
<path d="M11.4 10.8H1.2V9.6H3C3.15913 9.6 3.31174 9.53679 3.42426 9.42426C3.53679 9.31174 3.6 9.15913 3.6 9C3.6 8.84087 3.53679 8.68826 3.42426 8.57574C3.31174 8.46321 3.15913 8.4 3 8.4H1.2V7.2H7.8C7.95913 7.2 8.11174 7.13679 8.22426 7.02426C8.33679 6.91174 8.4 6.75913 8.4 6.6C8.4 6.44087 8.33679 6.28826 8.22426 6.17574C8.11174 6.06321 7.95913 6 7.8 6H1.2V4.8H5.4C5.55913 4.8 5.71174 4.73679 5.82426 4.62426C5.93679 4.51174 6 4.35913 6 4.2C6 4.04087 5.93679 3.88826 5.82426 3.77574C5.71174 3.66321 5.55913 3.6 5.4 3.6H1.2V2.4H10.2C10.3591 2.4 10.5117 2.33679 10.6243 2.22426C10.7368 2.11174 10.8 1.95913 10.8 1.8C10.8 1.64087 10.7368 1.48826 10.6243 1.37574C10.5117 1.26321 10.3591 1.2 10.2 1.2H1.2V0.6C1.2 0.44087 1.13679 0.288258 1.02426 0.175736C0.911742 0.0632141 0.75913 0 0.6 0C0.44087 0 0.288258 0.0632141 0.175736 0.175736C0.0632141 0.288258 0 0.44087 0 0.6V11.4C0 11.5591 0.0632141 11.7117 0.175736 11.8243C0.288258 11.9368 0.44087 12 0.6 12H11.4C11.5591 12 11.7117 11.9368 11.8243 11.8243C11.9368 11.7117 12 11.5591 12 11.4C12 11.2409 11.9368 11.0883 11.8243 10.9757C11.7117 10.8632 11.5591 10.8 11.4 10.8Z" fill="white"/>
</svg>
