<svg width="28" height="24" viewBox="0 0 28 24" fill="none" xmlns="http://www.w3.org/2000/svg">
<path d="M26.5003 2.14286H15.667V0.857143C15.667 0.385714 15.292 0 14.8337 0H13.167C12.7087 0 12.3337 0.385714 12.3337 0.857143V2.14286H1.50033C1.04199 2.14286 0.666992 2.52857 0.666992 3V3.85714C0.666992 4.32857 1.04199 4.71429 1.50033 4.71429H12.3337V6C12.3337 6.47143 12.7087 6.85714 13.167 6.85714H14.8337C15.292 6.85714 15.667 6.47143 15.667 6V4.71429H26.5003C26.9587 4.71429 27.3337 4.32857 27.3337 3.85714V3C27.3337 2.52857 26.9587 2.14286 26.5003 2.14286ZM26.5003 19.2857H9.00033V18C9.00033 17.5286 8.62533 17.1429 8.16699 17.1429H6.50033C6.04199 17.1429 5.66699 17.5286 5.66699 18V19.2857H1.50033C1.04199 19.2857 0.666992 19.6714 0.666992 20.1429V21C0.666992 21.4714 1.04199 21.8571 1.50033 21.8571H5.66699V23.1429C5.66699 23.6143 6.04199 24 6.50033 24H8.16699C8.62533 24 9.00033 23.6143 9.00033 23.1429V21.8571H26.5003C26.9587 21.8571 27.3337 21.4714 27.3337 21V20.1429C27.3337 19.6714 26.9587 19.2857 26.5003 19.2857ZM26.5003 10.7143H22.3337V9.42857C22.3337 8.95714 21.9587 8.57143 21.5003 8.57143H19.8337C19.3753 8.57143 19.0003 8.95714 19.0003 9.42857V10.7143H1.50033C1.04199 10.7143 0.666992 11.1 0.666992 11.5714V12.4286C0.666992 12.9 1.04199 13.2857 1.50033 13.2857H19.0003V14.5714C19.0003 15.0429 19.3753 15.4286 19.8337 15.4286H21.5003C21.9587 15.4286 22.3337 15.0429 22.3337 14.5714V13.2857H26.5003C26.9587 13.2857 27.3337 12.9 27.3337 12.4286V11.5714C27.3337 11.1 26.9587 10.7143 26.5003 10.7143Z" fill="black" fill-opacity="0.38"/>
</svg>
