<svg width="836" height="346" viewBox="0 0 836 346" fill="none" xmlns="http://www.w3.org/2000/svg">
<g clip-path="url(#clip0)">
<mask id="mask0" mask-type="alpha" maskUnits="userSpaceOnUse" x="63" y="26" width="774" height="320">
<rect x="63" y="26" width="773.179" height="320" fill="white"/>
</mask>
<g mask="url(#mask0)">
<path d="M645.864 370.144L626.924 381.153L655.103 398.485L704.301 370.144L655.103 343.677L628.541 359.838L645.864 370.144Z" fill="#EBEFFF"/>
<path d="M371.241 299.615L342.135 316.339L438.301 371.619L467.872 355.592L371.241 299.615Z" fill="#EBEFFF"/>
<path d="M325.302 327.556L295.924 344.083L343.986 371.284L317.955 386.126L364.166 414.067L421.661 382.187L325.302 327.556Z" fill="#EBEFFF"/>
<path d="M626.924 315.266L701.907 271.673L720.421 283.267L645.901 327.556L626.924 315.266Z" fill="#EBEFFF"/>
<path opacity="0.3" d="M507.635 421.055L650.813 338.193C656.999 334.613 664.588 334.45 670.923 337.761V337.761L799.947 263.077" stroke="#E4E8FB" stroke-width="2"/>
<g opacity="0.8">
<path fill-rule="evenodd" clip-rule="evenodd" d="M138.91 66.5684L532.706 302.023C539.607 306.15 539.5 316.184 532.512 320.161L493.337 342.456C488.326 345.307 488.273 352.511 493.241 355.437L654.084 450.149L731.597 403.641C734.479 401.912 734.517 397.748 731.667 395.967L718.481 387.726L716.339 386.387L718.539 385.147L770.384 355.933C780.649 350.148 793.242 350.373 803.294 356.52L885.136 406.568L883.571 409.127L801.729 359.08C792.604 353.5 781.175 353.296 771.857 358.546L722.213 386.52L733.256 393.423C738.007 396.392 737.944 403.332 733.14 406.214L657.026 451.882L778.429 523.37L776.907 525.956L491.719 358.022C484.763 353.926 484.838 343.841 491.853 339.848L531.028 317.554C536.019 314.713 536.096 307.546 531.167 304.598L500.66 286.358L500.96 286.858L450.617 317.053C440.983 322.83 429.002 323.041 419.172 317.605L399.401 306.674C393.63 303.483 393.533 295.221 399.228 291.895L455.226 259.192L137.37 69.1432L138.91 66.5684ZM456.327 259.851L498.307 284.951L449.074 314.48C440.358 319.707 429.518 319.898 420.623 314.98L400.853 304.048C397.119 301.983 397.056 296.638 400.741 294.486L457.273 261.471L456.327 259.851Z" fill="url(#paint0_linear)"/>
</g>
<path opacity="0.3" d="M781.678 547.864L608.68 446.058L685.918 400.969C693.837 396.346 693.855 384.91 685.952 380.262L349.657 182.474" stroke="#E4E8FB" stroke-width="2"/>
<path d="M514.888 245.883L237.305 82.8939L265.464 64.8125L514.888 205.031L573.343 171.454L578.764 174.61C591.246 181.877 591.376 199.864 579 207.31L514.888 245.883Z" fill="#EBEFFF"/>
<g opacity="0.8">
<path fill-rule="evenodd" clip-rule="evenodd" d="M461.329 227.53L179.799 59.0391L178.259 61.6133L459.789 230.105C465.07 233.265 471.72 233.002 476.735 229.434L494.535 216.768C495.675 215.957 497.19 215.903 498.386 216.632L532.663 237.533C534.895 238.894 534.902 242.132 532.676 243.502L525.727 247.778C521.561 250.342 521.614 256.417 525.824 258.908L575.009 288.009C580.515 291.266 587.36 291.26 592.86 287.991L606.508 279.88L619.414 287.822C621.691 289.223 621.62 292.556 619.285 293.859L606.81 300.822C604.397 302.169 604.424 305.65 606.857 306.96L624.601 316.514L626.024 313.873L608.279 304.318C607.932 304.131 607.928 303.634 608.273 303.441L620.747 296.479C625.083 294.059 625.214 287.869 620.986 285.267L609.451 278.169L720.819 214.886L719.337 212.277L607.194 276.001L607.186 275.987L606.502 276.394L605.764 276.813L603.56 278.066L603.623 278.105L591.328 285.412C586.77 288.12 581.099 288.126 576.536 285.427L527.352 256.326C525.085 254.984 525.056 251.714 527.3 250.333L534.248 246.057C538.382 243.513 538.37 237.499 534.225 234.972L499.948 214.071C497.728 212.717 494.914 212.817 492.795 214.324L474.995 226.989C470.951 229.867 465.588 230.079 461.329 227.53Z" fill="url(#paint1_linear)"/>
</g>
<path opacity="0.3" d="M268.52 279.193L712.899 539.265" stroke="#E4E8FB" stroke-width="2"/>
<path opacity="0.8" fill-rule="evenodd" clip-rule="evenodd" d="M199.812 344.342C211.123 336.847 225.717 336.455 237.414 343.332L401.563 439.839C406.122 442.519 411.78 442.505 416.326 439.8L448.592 420.604L411.899 396.27L413.557 393.77L451.817 419.143L451.883 419.026L487.241 439.055C492.337 441.941 492.307 449.293 487.187 452.137L462.131 466.057C459.097 467.742 459.032 472.082 462.014 473.858L497.449 494.949L519.808 482.609L521.258 485.235L498.145 497.992L497.392 498.407L496.653 497.967L460.48 476.435C455.51 473.477 455.617 466.244 460.674 463.435L485.73 449.514C488.802 447.808 488.82 443.397 485.763 441.665L470.046 432.762L320.882 537.177L319.161 534.719L467.154 431.124L451.592 422.31L417.859 442.378C412.373 445.642 405.545 445.66 400.042 442.425L235.893 345.918C225.185 339.622 211.824 339.981 201.469 346.843L80.5575 426.965L78.9004 424.464L199.812 344.342Z" fill="url(#paint2_linear)"/>
<path d="M400.498 343.718C401.947 343.879 402.32 344.933 402.32 345.54L399.04 348.091L398.494 350.642L399.769 353.194C399.405 353.619 399.441 354.032 398.858 354.469C398.275 354.907 397.097 354.469 395.942 354.105C396.732 353.862 396.854 353.222 396.854 351.918C396.854 350.278 396.489 348.273 397.218 346.087C397.947 343.9 398.858 343.535 400.498 343.718Z" fill="#6666DF"/>
<path d="M406.148 350.096C406.148 352.41 404.434 354.287 402.321 354.287C400.207 354.287 398.494 352.41 398.494 350.096C398.494 347.781 400.207 345.904 402.321 345.904C404.434 345.904 406.148 347.781 406.148 350.096Z" fill="#F7DD6F"/>
<path d="M400.498 352.282C401.373 351.845 402.806 350.156 403.414 349.366H406.147C405.965 348.395 405.455 346.341 404.872 345.904C404.143 345.357 401.227 344.811 398.858 346.451C396.963 347.763 398.068 351.371 398.858 353.011C399.04 352.95 399.623 352.72 400.498 352.282Z" fill="#6666DF"/>
<g filter="url(#filter0_d)">
<ellipse cx="252.711" cy="351.117" rx="26.5571" ry="31.4206" transform="rotate(99.1376 252.711 351.117)" fill="white" fill-opacity="0.63"/>
<path d="M248.573 376.844C231.632 374.119 219.909 360.34 222.183 346.207C224.456 332.073 239.908 322.666 256.849 325.391C273.79 328.116 285.512 341.894 283.239 356.027C280.966 370.161 265.514 379.568 248.573 376.844Z" stroke="white"/>
</g>
<g filter="url(#filter1_d)">
<ellipse cx="634.026" cy="319.942" rx="8.01778" ry="13.8081" transform="rotate(83.5176 634.026 319.942)" fill="white"/>
</g>
<g filter="url(#filter2_d)">
<ellipse cx="634.983" cy="322.175" rx="14.4345" ry="24.8589" transform="rotate(83.5176 634.983 322.175)" fill="white" fill-opacity="0.63"/>
<path d="M636.596 336.368C629.797 337.141 623.467 336.239 618.73 334.164C613.99 332.087 610.874 328.85 610.432 324.965C609.991 321.08 612.301 317.226 616.455 314.139C620.605 311.054 626.571 308.755 633.371 307.982C640.17 307.209 646.5 308.111 651.236 310.187C655.977 312.263 659.093 315.5 659.534 319.386C659.976 323.271 657.665 327.124 653.512 330.212C649.362 333.297 643.395 335.596 636.596 336.368Z" stroke="white" stroke-width="0.3"/>
</g>
<path d="M636.168 334.092C630.173 334.773 624.593 333.977 620.418 332.148C616.239 330.317 613.497 327.466 613.109 324.048C612.72 320.63 614.753 317.236 618.414 314.514C622.072 311.795 627.332 309.768 633.327 309.087C639.322 308.405 644.903 309.201 649.078 311.03C653.257 312.861 655.999 315.712 656.387 319.13C656.776 322.549 654.743 325.942 651.082 328.664C647.424 331.383 642.164 333.41 636.168 334.092Z" fill="white" fill-opacity="0.63" stroke="white" stroke-width="0.3"/>
<g filter="url(#filter3_d)">
<ellipse cx="634.205" cy="320.872" rx="9.76688" ry="17.3865" transform="rotate(83.5176 634.205 320.872)" fill="white" fill-opacity="0.63"/>
<path d="M635.291 330.428C630.541 330.968 626.126 330.373 622.828 328.984C619.525 327.593 617.375 325.42 617.079 322.818C616.783 320.216 618.391 317.617 621.298 315.52C624.2 313.426 628.37 311.857 633.12 311.317C637.869 310.777 642.285 311.371 645.583 312.761C648.886 314.152 651.036 316.325 651.332 318.926C651.627 321.528 650.019 324.128 647.113 326.225C644.211 328.319 640.041 329.888 635.291 330.428Z" stroke="white" stroke-width="0.3"/>
</g>
<path d="M645.829 289.364C645.521 288.439 642.336 286.795 640.59 286.59L638.433 300.15C638.433 300.15 643.364 302.307 643.98 301.383C644.596 300.458 646.137 290.288 645.829 289.364Z" fill="#333333"/>
<path d="M628.319 320.989C628.751 320.344 630.815 319.367 631.906 319.012H635.026L635.65 321.597C635.65 321.597 631.178 322.915 630.503 322.965C629.827 323.016 628.935 323.129 628.475 322.813C627.809 322.357 627.809 321.749 628.319 320.989Z" fill="#FC153B"/>
<path d="M634.182 323.731C634.455 323.332 635.933 321.506 636.733 320.684H640.334V322.715C639.234 323.634 637.483 325.472 636.733 325.763C635.983 326.053 635.383 326.198 634.633 325.763C633.977 325.382 633.786 324.311 634.182 323.731Z" fill="#FC153B"/>
<path d="M628.791 297.428L630.799 291.739L634.145 292.943L632.304 296.758L632.806 298.933V302.781L628.791 297.428Z" fill="#6666DF"/>
<path d="M628.288 309.338L632.973 301.308L637.49 304.119L633.474 310.007L635.482 319.209H631.467L628.288 309.338Z" fill="#333333"/>
<path d="M635.482 321.383L636.821 304.653L642.175 303.649L640.669 321.885C640.501 321.941 639.732 322.019 637.992 321.885C636.252 321.752 635.594 321.495 635.482 321.383Z" fill="#333333"/>
<path d="M645.352 299.302L644.014 296.626L647.025 295.789L648.196 299.302L644.014 307.668C643.512 307.723 642.374 307.801 641.839 307.668C641.17 307.5 641.337 306.329 641.839 305.66C642.24 305.125 642.787 304.991 643.01 304.991L645.352 299.302Z" fill="#6666DF"/>
<path d="M630.465 292.278L633.309 292.612L632.305 301.646C633.086 302.371 634.313 304.323 636.99 304.993C639.916 305.724 641.339 304.881 642.678 304.323L643.347 297.297L647.697 296.627C647.641 296.404 647.329 295.523 646.526 293.783C645.522 291.608 643.682 288.764 641.507 287.091C639.332 285.418 633.811 285.92 632.807 286.589C632.004 287.125 630.911 290.605 630.465 292.278Z" fill="#FC153B"/>
<path d="M634.144 283.409C634.144 281.931 635.342 280.732 636.82 280.732H637.824C639.303 280.732 640.501 281.931 640.501 283.409V285.584C640.501 287.34 639.078 288.763 637.322 288.763C635.567 288.763 634.144 287.34 634.144 285.584V283.409Z" fill="#6666DF"/>
<path d="M635.847 284.529C636.36 284.529 637.396 283.849 637.609 283.431C637.609 283.431 638.33 282.828 638.891 282.646C639.428 282.473 640.333 282.52 640.333 282.52C640.333 281.945 640.236 280.668 639.852 280.166C639.371 279.539 638.891 279.068 636.488 279.225C634.566 279.35 634.192 281.265 634.245 282.206C634.245 282.206 632.803 283.087 632.643 283.902C632.483 284.717 635.335 284.529 635.847 284.529Z" fill="#333333"/>
<path d="M637.658 286.554H635.65C635.65 286.554 635.65 287.558 636.654 287.558C637.658 287.558 637.658 286.554 637.658 286.554Z" fill="white"/>
<path d="M634.605 324.554C634.487 324.554 634.193 324.337 634.144 324.2C634.144 324.52 634.356 325.205 634.605 325.471C634.98 325.873 635.323 326.037 636.151 325.705C636.988 325.371 639.305 323.457 640.334 322.497V322.359L636.514 324.829C636.318 324.6 635.839 324.143 635.486 324.143C635.045 324.143 634.752 324.554 634.605 324.554Z" fill="white"/>
<path d="M628.79 321.522C628.389 321.388 628.177 321.578 628.121 321.689C628.121 321.912 628.221 322.425 628.623 322.693C629.125 323.028 630.142 322.991 630.798 322.86C631.634 322.693 633.921 321.856 635.482 321.354C633.865 321.633 630.53 322.191 630.129 322.191C629.627 322.191 629.292 321.689 628.79 321.522Z" fill="white"/>
<path d="M641.822 294.295C641.082 292.816 642.746 290.186 643.055 287.823L641.514 286.898C641 288.748 639.973 291.645 639.973 293.37C639.973 295.096 642.027 298.918 643.363 300.459V297.685C643.26 297.377 642.561 295.774 641.822 294.295Z" fill="#333333"/>
<g filter="url(#filter4_f)">
<path d="M260.932 369.697L272.895 363.076C275.609 361.573 275.654 357.687 272.975 356.122L247.477 341.228C246.236 340.503 244.702 340.5 243.458 341.218L231.425 348.172C228.751 349.718 228.763 353.582 231.447 355.111L257.016 369.673C258.228 370.363 259.712 370.372 260.932 369.697Z" fill="#C4C4C4"/>
</g>
<path d="M226.306 348.795V346.105V343.415L259.566 363.102V368.116L226.306 348.795Z" fill="#333333"/>
<path d="M254.43 342.196L226.306 328.378V346.842L260.422 366.407L254.43 342.196Z" fill="#FC153B"/>
<path d="M226.309 327.185V343.048L262.381 364.692L277.177 355.765L273.02 348.638C270.518 338.81 264.15 330.409 255.363 325.345L248.399 321.331C245.795 319.83 242.654 319.58 239.845 320.65L227.597 325.316C226.821 325.611 226.309 326.355 226.309 327.185Z" fill="#FC153B"/>
<path d="M267.086 337.819L256.028 343.743C255.445 344.056 255.143 344.72 255.291 345.366L256.644 351.249C256.858 352.178 257.887 352.66 258.738 352.229L270.008 346.517C270.622 346.206 270.937 345.51 270.766 344.843L269.201 338.748C268.964 337.826 267.926 337.37 267.086 337.819Z" fill="url(#paint3_linear)"/>
<path d="M228.383 336.817V329.358L245.869 339.385V347.7L228.383 336.817Z" fill="url(#paint4_linear)"/>
<path d="M247.216 348.066V340.362C248.153 340.974 250.329 342.104 251.618 343.908C253.452 346.476 253.656 350.022 253.941 352.223L247.216 348.066Z" fill="url(#paint5_linear)"/>
<path d="M226.306 342.438L258.71 361.636L259.444 364.816L226.306 345.74V342.438Z" fill="#333333"/>
<path opacity="0.3" d="M233.275 324.584L251.284 335.456C253.574 336.839 255.56 338.673 257.12 340.847V340.847" stroke="#FDFEFD" stroke-width="1.5"/>
<path opacity="0.3" d="M236.577 322.505L254.585 333.377C256.876 334.76 258.862 336.594 260.422 338.768V338.768" stroke="#FDFEFD" stroke-width="1.5"/>
<path opacity="0.3" d="M240.245 320.547L258.253 331.419C260.544 332.802 262.53 334.636 264.09 336.81V336.81" stroke="#FDFEFD" stroke-width="1.5"/>
<path d="M230.602 356.698C232.353 359.266 235.008 359.129 236.385 358.345C238.367 357.217 238.118 355.342 237.479 352.765C236.736 349.769 235.081 348.012 233.775 347.496C232.469 346.981 230.061 347.7 229.51 349.299C228.959 350.899 228.62 353.792 230.602 356.698Z" fill="#414141"/>
<path d="M265.313 334.976L260.054 325.439C259.932 325.316 259.892 325.479 259.932 325.561C261.719 329.18 263.002 331.41 264.823 335.099L264.834 335.109C264.991 335.266 265.259 335.192 265.313 334.976Z" fill="#333333"/>
<path d="M251.495 349.041V347.084C251.495 346.341 250.893 345.739 250.15 345.739C249.407 345.739 248.805 346.341 248.805 347.084V349.041C248.805 349.784 249.407 350.386 250.15 350.386C250.893 350.386 251.495 349.784 251.495 349.041Z" fill="#333333"/>
<g filter="url(#filter5_d)">
<ellipse cx="660.48" cy="245.528" rx="18.3961" ry="31.6815" transform="rotate(83.5176 660.48 245.528)" fill="white" fill-opacity="0.63"/>
<path d="M662.5 263.31C653.879 264.289 645.868 263.143 639.89 260.524C633.898 257.899 630.043 253.845 629.498 249.048C628.953 244.252 631.801 239.436 637.051 235.534C642.289 231.64 649.838 228.726 658.459 227.746C667.08 226.767 675.091 227.913 681.07 230.532C687.061 233.157 690.917 237.212 691.462 242.008C692.007 246.804 689.159 251.62 683.909 255.523C678.671 259.416 671.121 262.33 662.5 263.31Z" stroke="white"/>
</g>
<g filter="url(#filter6_f)">
<path d="M650.981 260.967L640.755 255.307C638.04 253.805 637.995 249.918 640.674 248.354L663.269 235.156C664.51 234.431 666.044 234.427 667.288 235.146L677.584 241.096C680.259 242.642 680.247 246.507 677.562 248.035L654.897 260.943C653.685 261.634 652.201 261.643 650.981 260.967Z" fill="#C4C4C4"/>
</g>
<path d="M682.782 241.97V239.512V237.055L652.398 255.039V259.619L682.782 241.97Z" fill="#333333"/>
<path d="M657.09 235.935L682.782 223.312V240.18L651.616 258.053L657.09 235.935Z" fill="#FC153B"/>
<path d="M682.781 222.345V236.717L649.828 256.489L636.311 248.335L640.109 241.824C642.395 232.845 648.212 225.171 656.239 220.545L662.245 217.083C664.849 215.582 667.99 215.332 670.799 216.402L681.493 220.476C682.269 220.771 682.781 221.515 682.781 222.345Z" fill="#FC153B"/>
<path d="M645.527 231.942L655.629 237.354C656.162 237.639 656.438 238.246 656.303 238.836L655.067 244.21C654.872 245.059 653.931 245.499 653.154 245.106L642.859 239.888C642.298 239.604 642.01 238.968 642.166 238.359L643.596 232.79C643.812 231.948 644.761 231.531 645.527 231.942Z" fill="url(#paint6_linear)"/>
<path d="M680.885 231.025V224.211L664.911 233.371V240.967L680.885 231.025Z" fill="url(#paint7_linear)"/>
<path d="M663.679 241.301V234.264C662.822 234.822 660.835 235.855 659.657 237.503C657.982 239.849 657.795 243.089 657.535 245.099L663.679 241.301Z" fill="url(#paint8_linear)"/>
<path d="M660.44 243.312C660.44 243.312 659.77 243.535 658.877 242.977C657.983 242.418 658.393 240.305 658.095 241.301C657.759 242.418 657.669 244.175 657.536 245.211L660.44 243.312Z" fill="#333333"/>
<path d="M641.205 246.101L648.152 250.167L647.146 251.809C646.699 252.54 645.747 252.775 645.011 252.335L640.781 249.809C640.032 249.361 639.794 248.387 640.252 247.645L641.205 246.101Z" fill="#333333"/>
<path d="M642.378 248.827L644.557 249.995C644.325 250.346 643.864 250.462 643.493 250.263L642.545 249.755C642.203 249.571 642.122 249.118 642.378 248.827Z" fill="white"/>
<path d="M639.009 243.646L640.332 245.255L639.671 246.774C639.293 246.476 638.499 245.72 638.348 245.076C638.197 244.433 638.726 243.855 639.009 243.646Z" fill="white"/>
<path d="M652.921 250.799L650.11 250.375L648.403 252.025C648.989 252.246 650.396 252.63 651.333 252.394C652.27 252.157 652.782 251.232 652.921 250.799Z" fill="white"/>
<path d="M636.424 246.996C636.692 246.549 637.132 246.586 637.318 246.661C637.318 247.77 637.899 248.798 638.849 249.37L646.55 254.004C648.593 255.233 650.545 252.847 652.845 253.475C654.074 253.81 653.068 257.608 652.845 259.507C651.75 260.192 650.361 260.199 649.259 259.526L638.833 253.158C637.319 252.234 636.308 250.642 636.279 248.869C636.265 247.976 636.296 247.209 636.424 246.996Z" fill="#333333"/>
<path d="M682.782 236.16L653.18 253.698L652.51 256.603L682.782 239.176V236.16Z" fill="#333333"/>
<path opacity="0.3" d="M676.416 219.851L659.965 229.783C657.872 231.046 656.058 232.722 654.633 234.708V234.708" stroke="#FDFEFD" stroke-width="1.5"/>
<path opacity="0.3" d="M673.399 217.954L656.948 227.886C654.856 229.149 653.042 230.825 651.617 232.811V232.811" stroke="#FDFEFD" stroke-width="1.5"/>
<path opacity="0.3" d="M670.048 216.167L653.597 226.099C651.504 227.362 649.69 229.038 648.265 231.024V231.024" stroke="#FDFEFD" stroke-width="1.5"/>
<path d="M664.459 257.482C662.859 259.828 660.434 259.703 659.175 258.987C657.365 257.956 657.592 256.243 658.176 253.889C658.855 251.152 660.367 249.547 661.56 249.076C662.753 248.605 664.953 249.262 665.456 250.723C665.96 252.184 666.269 254.827 664.459 257.482Z" fill="#414141"/>
<path d="M664.097 256.035C663.368 257.405 662.377 257.569 661.866 257.386C661.308 257.187 661.29 255.905 661.654 254.617C662.076 253.12 662.764 252.179 663.262 251.86C663.76 251.542 664.592 251.768 664.708 252.518C664.825 253.269 664.908 254.512 664.097 256.035Z" fill="white"/>
<path d="M678.858 249.186C677.258 251.532 674.833 251.407 673.575 250.691C671.765 249.66 671.992 247.947 672.576 245.593C673.255 242.856 674.767 241.251 675.96 240.78C677.153 240.309 679.352 240.966 679.856 242.427C680.359 243.888 680.668 246.531 678.858 249.186Z" fill="#414141"/>
<path d="M678.497 247.736C677.768 249.106 676.777 249.269 676.266 249.087C675.708 248.887 675.69 247.605 676.054 246.317C676.477 244.82 677.165 243.879 677.663 243.56C678.161 243.242 678.992 243.468 679.109 244.218C679.225 244.969 679.308 246.212 678.497 247.736Z" fill="white"/>
<path d="M647.148 229.346L651.952 220.633C652.063 220.521 652.1 220.67 652.063 220.745C650.431 224.051 649.259 226.088 647.595 229.458L647.586 229.467C647.442 229.611 647.197 229.543 647.148 229.346Z" fill="#333333"/>
<path d="M659.771 242.192V240.405C659.771 239.726 660.321 239.176 661 239.176C661.678 239.176 662.229 239.726 662.229 240.405V242.192C662.229 242.871 661.678 243.421 661 243.421C660.321 243.421 659.771 242.871 659.771 242.192Z" fill="#333333"/>
<path fill-rule="evenodd" clip-rule="evenodd" d="M659.836 242.844C660.351 242.336 660.842 241.763 661.139 241.389L660.637 240.991C660.353 241.35 659.879 241.902 659.387 242.388C659.14 242.631 658.894 242.853 658.668 243.024C658.435 243.201 658.249 243.304 658.122 243.339L658.292 243.956C658.54 243.887 658.805 243.723 659.054 243.534C659.31 243.34 659.578 243.098 659.836 242.844Z" fill="#333333"/>
<g filter="url(#filter7_d)">
<ellipse cx="443.556" cy="217.121" rx="10.6311" ry="12.5779" transform="rotate(103.639 443.556 217.121)" fill="white"/>
</g>
<g filter="url(#filter8_d)">
<ellipse cx="445.7" cy="218.703" rx="13.7453" ry="23.672" transform="rotate(83.5176 445.7 218.703)" fill="white" fill-opacity="0.63"/>
<path d="M447.235 232.211C440.762 232.947 434.735 232.088 430.226 230.113C425.713 228.135 422.749 225.055 422.329 221.359C421.909 217.663 424.106 213.995 428.061 211.056C432.012 208.119 437.692 205.93 444.165 205.195C450.639 204.459 456.665 205.318 461.174 207.293C465.687 209.271 468.652 212.351 469.072 216.047C469.492 219.743 467.294 223.411 463.34 226.35C459.389 229.287 453.709 231.476 447.235 232.211Z" stroke="white" stroke-width="0.3"/>
</g>
<path d="M446.828 230.042C441.12 230.69 435.808 229.933 431.834 228.192C427.855 226.449 425.247 223.735 424.877 220.484C424.508 217.232 426.441 214.003 429.927 211.412C433.409 208.823 438.417 206.893 444.124 206.245C449.832 205.596 455.145 206.354 459.119 208.095C463.097 209.838 465.706 212.551 466.075 215.803C466.445 219.054 464.512 222.284 461.026 224.875C457.544 227.463 452.536 229.393 446.828 230.042Z" fill="white" fill-opacity="0.63" stroke="white" stroke-width="0.3"/>
<g filter="url(#filter9_d)">
<ellipse cx="444.959" cy="217.459" rx="9.30054" ry="16.5564" transform="rotate(83.5176 444.959 217.459)" fill="white" fill-opacity="0.63"/>
<path d="M445.992 226.551C441.47 227.065 437.266 226.499 434.127 225.177C430.983 223.852 428.939 221.785 428.657 219.311C428.376 216.837 429.905 214.364 432.672 212.368C435.434 210.375 439.404 208.881 443.926 208.367C448.448 207.853 452.651 208.419 455.79 209.741C458.935 211.065 460.979 213.133 461.26 215.607C461.541 218.081 460.013 220.554 457.246 222.55C454.483 224.543 450.514 226.037 445.992 226.551Z" stroke="white" stroke-width="0.3"/>
</g>
<path d="M446.459 218.008C446.222 217.662 444.941 216.078 444.247 215.365H441.124V217.127C442.078 217.924 443.596 219.518 444.247 219.77C444.898 220.022 445.418 220.148 446.069 219.77C446.638 219.44 446.803 218.512 446.459 218.008Z" fill="#D0F2FC"/>
<path d="M444.316 217.252L442.865 215.801L444.026 215.365L445.187 216.961L444.316 217.252Z" fill="white"/>
<path d="M446.091 218.721C446.193 218.721 446.449 218.532 446.491 218.413C446.491 218.691 446.307 219.285 446.091 219.516C445.766 219.864 445.468 220.007 444.75 219.719C444.025 219.429 442.014 217.769 441.123 216.936V216.817L444.435 218.959C444.605 218.761 445.021 218.364 445.327 218.364C445.709 218.364 445.964 218.721 446.091 218.721Z" fill="white"/>
<path d="M449.615 215.349C449.303 214.883 447.812 214.176 447.022 213.92H444.768L444.317 215.788C444.317 215.788 447.549 216.741 448.037 216.777C448.526 216.814 449.17 216.895 449.503 216.667C449.984 216.338 449.984 215.898 449.615 215.349Z" fill="#D0F2FC"/>
<path d="M447.703 215.142L445.976 214.033L447.018 213.361L448.492 214.673L447.703 215.142Z" fill="white"/>
<path d="M449.274 215.731C449.565 215.635 449.718 215.772 449.758 215.852C449.818 215.973 449.879 216.336 449.516 216.578C449.153 216.819 448.298 216.793 447.823 216.699C447.219 216.578 445.566 215.973 444.438 215.61C445.607 215.812 448.017 216.215 448.307 216.215C448.67 216.215 448.912 215.852 449.274 215.731Z" fill="white"/>
<path d="M452.099 203.824C452.099 203.215 448.549 196.849 446.773 193.742L443.159 197.356L447.154 204.014L444.54 214.286L447.273 214.475C448.541 211.241 452.099 204.433 452.099 203.824Z" fill="#6666DF"/>
<path d="M443.856 215.154L443.173 196.709L437.708 197.392C438.088 203.986 441.124 215.838 441.124 215.838C441.124 215.838 442.462 215.408 443.856 215.154Z" fill="#6666DF"/>
<path d="M435.36 197.166C435.36 198.079 433.838 199.449 433.077 200.019C432.697 200.273 432.05 200.856 432.507 201.161C433.077 201.541 433.838 201.161 435.17 200.78C436.501 200.4 435.931 200.4 436.691 200.59C437.452 200.78 437.833 200.4 437.643 200.019C437.49 199.715 437.326 198.498 437.262 197.927C437.643 197.99 439.012 198.155 441.447 198.307C443.882 198.46 446.266 195.835 447.154 194.503L446.202 188.036C446.329 188.479 446.849 189.557 447.914 190.318C449.246 191.269 452.099 190.699 453.431 190.699C454.762 190.699 456.664 188.416 456.664 187.845C456.664 187.275 453.621 188.606 453.811 188.416C454.001 188.226 454.762 186.514 454.001 186.704C453.24 186.894 453.811 187.845 452.48 188.606C451.148 189.367 448.675 187.275 447.914 185.182C447.154 183.09 445.822 177.573 444.871 177.193C444.11 176.889 440.496 177.573 438.784 177.954C437.896 178.398 436.083 179.514 435.931 180.427C435.74 181.568 435.36 196.025 435.36 197.166Z" fill="#6666DF"/>
<circle cx="444.54" cy="174.17" r="2.04948" fill="#EF4349"/>
<path d="M438.593 180.994C438.441 179.32 437.642 178.965 437.071 178.902L438.403 177.76C439.291 178.268 440.876 178.141 441.637 178.141C442.588 178.141 442.397 178.711 443.349 177.951C444.3 177.19 444.113 177.053 444.49 176.999C445.821 176.809 447.914 181.755 447.914 182.706C447.914 183.467 446.772 186.574 446.202 188.032L447.153 193.929C447.153 194.183 451.145 200.048 450.688 200.809C450.118 201.76 439.913 207.26 438.392 207.64C437.174 207.945 437.261 199.786 437.262 197.924C437.769 192.978 438.745 182.668 438.593 180.994Z" fill="#D0F2FC"/>
<ellipse cx="440.357" cy="178.875" rx="1.78477" ry="1.18985" transform="rotate(10.1647 440.357 178.875)" fill="#1B1464"/>
<ellipse cx="442.626" cy="178.341" rx="1.28538" ry="0.85692" transform="rotate(153.516 442.626 178.341)" fill="#1B1464"/>
<path d="M445.06 174.718C445.06 177.134 443.272 179.093 441.066 179.093C438.86 179.093 437.071 177.134 437.071 174.718C437.071 172.302 438.86 170.343 441.066 170.343C443.272 170.343 445.06 172.302 445.06 174.718Z" fill="#6666DF"/>
<path d="M439.164 177.002C440.077 176.546 441.573 174.783 442.207 173.959H445.06C444.87 172.944 445.222 171.434 443.729 170.345C442.275 169.284 439.925 169.203 437.452 170.915C435.473 172.285 436.627 176.051 437.452 177.763C437.642 177.7 438.251 177.459 439.164 177.002Z" fill="#EF4349"/>
<path d="M454.895 185.828L452.91 188.806C452.783 188.997 452.851 189.255 453.056 189.358L454.306 189.982C454.472 190.065 454.673 190.017 454.783 189.867L456.957 186.903C457.1 186.707 457.026 186.429 456.804 186.33L455.367 185.691C455.197 185.616 454.998 185.673 454.895 185.828Z" fill="#FC153B"/>
<path d="M453.241 188.983L455.143 186.13L456.665 186.701L454.383 189.554L453.241 188.983Z" fill="white"/>
<path d="M438.784 171.294C439.24 171.294 437.959 172.435 437.262 173.006C437.198 172.752 437.11 172.169 437.262 171.865C437.452 171.484 438.213 171.294 438.784 171.294Z" fill="#EF4349"/>
<path d="M439.757 176.217C439.757 177.726 438.534 178.949 437.025 178.949C435.515 178.949 434.292 177.726 434.292 176.217C434.292 174.707 436.199 172.801 437.708 172.801C439.217 172.801 439.757 174.707 439.757 176.217Z" fill="#EF4349"/>
<circle cx="438.39" cy="174.853" r="1.26632" stroke="black" stroke-width="0.2"/>
<path opacity="0.3" d="M314.642 304.797L385.371 261.724L584.699 376.406" stroke="#E4E8FB" stroke-width="2"/>
<path opacity="0.3" d="M743.774 295.943L890.364 378.256" stroke="#E4E8FB" stroke-width="2"/>
<path opacity="0.3" d="M763.198 284.845L714.623 257.121L668.747 282.179L572.678 232.063L636.364 194.209" stroke="#E4E8FB" stroke-width="2"/>
<path d="M267.951 225.126L254.992 217.459V248.236L267.951 255.04V225.126Z" fill="#F5F8FF"/>
<path d="M276.805 219.62L267.95 225.02V255.257L276.805 250.181V219.62Z" fill="#ECF0FF"/>
<path d="M263.847 212.277L254.992 217.461L267.843 225.128L276.806 219.621L263.847 212.277Z" fill="#E2E8FF"/>
<path d="M256.612 223.923V221.35L258.772 222.609V225.237L256.612 223.923Z" fill="#E2E8FF"/>
<path d="M256.612 228.674V226.101L258.772 227.36V229.988L256.612 228.674Z" fill="#E2E8FF"/>
<path d="M256.612 232.993V230.42L258.772 231.679V234.308L256.612 232.993Z" fill="#E2E8FF"/>
<path d="M256.612 237.744V235.171L258.772 236.43V239.059L256.612 237.744Z" fill="#E2E8FF"/>
<path d="M256.612 241.851V239.277L258.772 240.537V243.165L256.612 241.851Z" fill="#E2E8FF"/>
<path d="M259.852 226.083V223.51L262.011 224.769V227.397L259.852 226.083Z" fill="#E2E8FF"/>
<path d="M259.852 230.834V228.261L262.011 229.52V232.148L259.852 230.834Z" fill="#E2E8FF"/>
<path d="M259.852 235.157V232.583L262.011 233.842V236.471L259.852 235.157Z" fill="#E2E8FF"/>
<path d="M259.852 239.908V237.334L262.011 238.593V241.222L259.852 239.908Z" fill="#E2E8FF"/>
<path d="M259.852 244.007V241.434L262.011 242.693V245.321L259.852 244.007Z" fill="#E2E8FF"/>
<path d="M263.74 228.242V225.669L265.9 226.928V229.557L263.74 228.242Z" fill="#E2E8FF"/>
<path d="M263.74 232.993V230.42L265.9 231.679V234.308L263.74 232.993Z" fill="#E2E8FF"/>
<path d="M263.74 237.316V234.742L265.9 236.002V238.63L263.74 237.316Z" fill="#E2E8FF"/>
<path d="M263.74 242.067V239.493L265.9 240.753V243.381L263.74 242.067Z" fill="#E2E8FF"/>
<path d="M263.74 246.17V243.597L265.9 244.856V247.484L263.74 246.17Z" fill="#E2E8FF"/>
<path opacity="0.3" d="M291.521 292.244L415.452 221.03" stroke="#E4E8FB" stroke-width="3"/>
<path opacity="0.3" d="M778.92 315.365L724.453 349.585L689.209 329.58" stroke="#E4E8FB" stroke-width="2"/>
<g opacity="0.8">
<path opacity="0.9" fill-rule="evenodd" clip-rule="evenodd" d="M351.336 144.936L345.895 148.101C333.625 155.241 333.635 172.968 345.913 180.093L362.119 189.497C365.678 191.563 365.791 196.662 362.327 198.884L76.6072 382.082L78.2265 384.607L363.946 201.409C369.3 197.976 369.125 190.095 363.624 186.902L347.419 177.498C337.132 171.528 337.124 156.676 347.403 150.694L519.32 50.6633L517.811 48.0703L354.25 143.24L341.993 135.383C328.55 126.766 311.412 126.411 297.624 134.463L264.761 153.655L264.751 153.661L264.741 153.667L180.047 204.89L180.039 204.895L180.031 204.9L21.8389 303.271L-13.5074 265.63L-15.6943 267.683L20.4935 306.221L21.335 307.117L22.3791 306.468L181.6 207.457L181.615 207.447L266.274 156.246L266.293 156.234L299.137 137.054C311.952 129.57 327.88 129.9 340.374 137.909L351.336 144.936Z" fill="url(#paint9_linear)"/>
</g>
<rect width="67.7999" height="21.7236" rx="4" transform="matrix(0.859406 0.511293 0 1 602.044 53.7305)" fill="white" stroke="white" stroke-opacity="0.29"/>
<rect width="67.7999" height="21.7236" rx="4" transform="matrix(0.859406 0.511293 0 1 600.123 55.0117)" fill="url(#paint10_linear)" stroke="white" stroke-opacity="0.29"/>
<path d="M613.36 68.852C612.861 68.2988 612.203 67.7662 611.507 67.3525C610.812 66.9387 610.154 66.6884 609.655 66.6475C609.086 66.601 608.773 66.8335 608.773 67.302V69.972C608.509 69.7186 608.229 69.4995 607.938 69.3266C606.403 68.413 605.153 69.1228 605.153 70.9087C605.153 72.6945 606.403 74.8907 607.938 75.8042C608.994 76.4327 609.915 76.2928 610.387 75.5629C610.736 75.8563 611.119 76.129 611.507 76.36C612.203 76.7738 612.861 77.0242 613.36 77.065C613.929 77.1115 614.242 76.8791 614.242 76.4106V70.5556C614.242 70.0871 613.929 69.4821 613.36 68.852ZM609.87 67.3424C610.303 67.3778 610.884 67.6015 611.507 67.9721C612.13 68.3428 612.712 68.8112 613.145 69.291C613.493 69.6765 613.709 70.0396 613.709 70.2386C613.709 70.4377 613.493 70.5436 613.145 70.5152C612.712 70.4797 612.13 70.2561 611.507 69.8855C610.884 69.5148 610.303 69.0464 609.87 68.5666C609.522 68.1811 609.306 67.818 609.306 67.6189C609.306 67.4199 609.522 67.3139 609.87 67.3424ZM607.938 75.1845C606.696 74.4458 605.686 72.6698 605.686 71.2256C605.686 69.7814 606.696 69.2075 607.938 69.9462C609.18 70.685 610.19 72.4609 610.19 73.9051C610.19 75.3494 609.18 75.9233 607.938 75.1845ZM613.145 76.3701C612.712 76.3347 612.13 76.1111 611.507 75.7404C611.193 75.5533 610.884 75.3373 610.598 75.1059C610.667 74.8881 610.709 74.6403 610.72 74.3649C610.973 74.5569 611.236 74.7351 611.507 74.8963C612.203 75.3101 612.861 75.5604 613.36 75.6012C613.49 75.6119 613.606 75.6078 613.709 75.5898V76.0936C613.709 76.2926 613.493 76.3986 613.145 76.3701ZM613.145 74.9064C612.712 74.871 612.13 74.6473 611.507 74.2767C611.224 74.108 610.95 73.9198 610.691 73.7161C610.651 73.3814 610.572 73.0383 610.461 72.6971C610.789 72.966 611.144 73.2166 611.507 73.4326C612.203 73.8463 612.861 74.0967 613.36 74.1375C613.49 74.1481 613.606 74.144 613.709 74.126V74.6298C613.709 74.8289 613.493 74.9348 613.145 74.9064ZM613.145 73.4427C612.712 73.4072 612.13 73.1836 611.507 72.8129C610.956 72.4852 610.431 72.0748 610.018 71.6514C609.814 71.2644 609.574 70.8946 609.306 70.5586V70.0426C609.408 70.1826 609.525 70.3253 609.655 70.4693C610.154 71.0225 610.812 71.5551 611.507 71.9688C612.203 72.3826 612.861 72.6329 613.36 72.6738C613.49 72.6844 613.606 72.6803 613.709 72.6623V73.1661C613.709 73.3651 613.493 73.4711 613.145 73.4427ZM613.145 71.9789C612.712 71.9435 612.13 71.7198 611.507 71.3492C610.884 70.9785 610.303 70.5101 609.87 70.0303C609.522 69.6448 609.306 69.2817 609.306 69.0826V68.5788C609.408 68.7189 609.525 68.8615 609.655 69.0055C610.154 69.5588 610.812 70.0913 611.507 70.5051C612.203 70.9188 612.861 71.1692 613.36 71.21C613.49 71.2207 613.606 71.2165 613.709 71.1985V71.7024C613.709 71.9014 613.493 72.0073 613.145 71.9789Z" fill="white"/>
<path d="M608.293 72.4444L607.721 72.1044C607.592 72.0279 607.488 71.8439 607.488 71.6943C607.488 71.5447 607.592 71.4853 607.721 71.5618L608.686 72.1357V71.5161L608.203 71.2289V70.8109L607.67 70.494V70.9142C607.272 70.7074 606.955 70.9059 606.955 71.3774C606.955 71.8686 607.299 72.4728 607.721 72.7241L608.293 73.064C608.432 73.1472 608.546 73.3471 608.546 73.5097C608.546 73.6722 608.432 73.7368 608.293 73.6537L607.061 72.9211V73.5408L607.67 73.9032V74.3212L608.203 74.6382V74.2202L608.293 74.2733C608.726 74.5312 609.079 74.3309 609.079 73.8266C609.079 73.3224 608.726 72.7023 608.293 72.4444Z" fill="white"/>
<rect opacity="0.2" width="34.7302" height="2.76734" rx="1" transform="matrix(0.859406 0.511293 0 1 622.716 75.5117)" fill="white"/>
<rect opacity="0.2" width="23.9375" height="2.76734" rx="1" transform="matrix(0.859406 0.511293 0 1 622.716 80.4922)" fill="white"/>
<path fill-rule="evenodd" clip-rule="evenodd" d="M675.312 106.36V179.842C675.312 186.535 675.312 189.882 676.892 192.648C678.472 195.414 681.355 197.114 687.12 200.514L784.779 258.115C786.448 259.1 787.91 259.962 789.202 260.679L790.462 264.303L797.041 263.363L797.062 262.74C797.156 262.697 797.248 262.65 797.339 262.598C799.859 261.158 799.859 257.273 799.859 249.502V172.812C799.859 166.136 799.859 162.798 798.286 160.036C796.713 157.275 793.842 155.573 788.1 152.168L788.099 152.168L788.099 152.168L693.433 96.038C685.393 91.271 681.373 88.8875 678.343 90.6136C675.312 92.3398 675.312 97.0132 675.312 106.36Z" fill="#E2E8FF"/>
<path d="M673.351 100.436L679.476 98.394L679.476 89.9434L671.596 93.0174L673.351 100.436Z" fill="#7A90CE"/>
<path d="M669.267 183.949V108.143C669.267 98.8296 669.267 94.1732 672.287 92.4452C675.308 90.7172 679.322 93.0777 687.35 97.7988L784.973 155.211C789.787 158.042 792.195 159.458 793.514 161.765C794.834 164.072 794.834 166.865 794.834 172.45V247.957C794.834 257.248 794.834 261.894 791.819 263.623C788.804 265.352 784.794 263.006 776.775 258.314L679.167 201.212C674.334 198.385 671.917 196.971 670.592 194.66C669.267 192.349 669.267 189.549 669.267 183.949Z" fill="url(#paint11_linear)" stroke="white" stroke-opacity="0.29"/>
<path d="M716.736 199.97L710.101 167.812L716.736 115.237" stroke="white"/>
<path d="M669.267 183.969V107.88C669.267 98.6691 669.267 94.0636 672.259 92.3302C675.252 90.5967 679.247 92.8879 687.237 97.4705L703.976 107.071V215.794L679.142 201.217C674.321 198.387 671.91 196.972 670.588 194.663C669.267 192.355 669.267 189.559 669.267 183.969Z" fill="white"/>
<path d="M704.996 215.282L726.945 185.677L777.478 190.271L793.302 162.707" stroke="white"/>
<path d="M792.633 263.917L757.571 228.553L762.165 212.219L731.029 208.136L743.79 180.572L722.351 162.196L725.414 137.185L703.976 108.09" stroke="white"/>
<path d="M794.833 241.318C782.923 220.22 757.673 173.94 751.956 157.606C746.24 141.272 743.449 133.446 742.769 131.063" stroke="white"/>
<path d="M794.324 197.929C788.539 191.633 775.54 175.878 769.823 163.219C764.106 150.56 761.997 144.333 761.656 142.291" stroke="white"/>
<path d="M752.468 159.647L767.781 158.115" stroke="white"/>
<path d="M722.351 162.198L703.976 170.365" stroke="white"/>
<path d="M697.346 116.993L677.907 105.885C677.241 105.504 676.411 105.986 676.411 106.753V109.044C676.411 109.403 676.603 109.734 676.915 109.912L696.353 121.02C697.02 121.401 697.849 120.919 697.849 120.152V117.861C697.849 117.502 697.657 117.171 697.346 116.993Z" fill="#EAEDFA"/>
<path d="M697.346 126.689L677.907 115.581C677.241 115.201 676.411 115.682 676.411 116.45V118.74C676.411 119.099 676.603 119.43 676.915 119.608L696.353 130.716C697.02 131.097 697.849 130.616 697.849 129.848V127.557C697.849 127.199 697.657 126.867 697.346 126.689Z" fill="#EAEDFA"/>
<path d="M697.346 137.921L677.907 126.813C677.241 126.432 676.411 126.913 676.411 127.681V129.972C676.411 130.33 676.603 130.662 676.915 130.84L696.353 141.947C697.02 142.328 697.849 141.847 697.849 141.079V138.789C697.849 138.43 697.657 138.099 697.346 137.921Z" fill="#EAEDFA"/>
<path d="M697.346 147.107L677.907 135.999C677.241 135.619 676.411 136.1 676.411 136.868V139.158C676.411 139.517 676.603 139.848 676.915 140.026L696.353 151.134C697.02 151.515 697.849 151.034 697.849 150.266V147.975C697.849 147.616 697.657 147.285 697.346 147.107Z" fill="#EAEDFA"/>
<path d="M697.346 156.294L677.907 145.186C677.241 144.805 676.411 145.286 676.411 146.054V148.345C676.411 148.704 676.603 149.035 676.915 149.213L696.353 160.321C697.02 160.701 697.849 160.22 697.849 159.452V157.162C697.849 156.803 697.657 156.472 697.346 156.294Z" fill="#EAEDFA"/>
<path d="M733.055 152.229L730.722 154.484L728.192 150.789C727.692 150.058 727.34 149.212 727.18 148.357C727.021 147.502 727.061 146.676 727.296 145.985C727.531 145.293 727.95 144.767 728.5 144.472C729.05 144.177 729.706 144.128 730.386 144.329C731.066 144.53 731.739 144.974 732.32 145.604C732.901 146.233 733.363 147.021 733.649 147.866C733.934 148.712 734.03 149.578 733.925 150.355C733.819 151.131 733.516 151.784 733.055 152.229ZM730.587 150.404C730.992 150.525 731.374 150.443 731.649 150.177C731.924 149.911 732.07 149.484 732.053 148.988C732.037 148.492 731.86 147.969 731.562 147.533C731.264 147.098 730.869 146.786 730.464 146.666C730.058 146.546 729.676 146.627 729.401 146.893C729.126 147.159 728.981 147.587 728.997 148.082C729.014 148.578 729.19 149.101 729.488 149.537C729.787 149.972 730.182 150.284 730.587 150.404ZM730.556 149.47C730.353 149.41 730.156 149.254 730.007 149.036C729.858 148.818 729.769 148.557 729.761 148.309C729.753 148.061 729.826 147.847 729.963 147.714C730.101 147.581 730.292 147.54 730.494 147.6C730.697 147.66 730.895 147.816 731.044 148.034C731.193 148.252 731.281 148.514 731.289 148.761C731.297 149.009 731.225 149.223 731.087 149.356C730.95 149.489 730.759 149.53 730.556 149.47Z" fill="#91A0E1"/>
<path d="M732.543 152.229L730.21 154.484L727.68 150.789C727.18 150.058 726.828 149.212 726.668 148.357C726.509 147.502 726.549 146.676 726.784 145.985C727.019 145.293 727.438 144.767 727.988 144.472C728.538 144.177 729.195 144.128 729.875 144.329C730.555 144.53 731.228 144.974 731.808 145.604C732.389 146.233 732.851 147.021 733.137 147.866C733.423 148.712 733.519 149.578 733.413 150.355C733.307 151.131 733.004 151.784 732.543 152.229ZM730.075 150.404C730.481 150.525 730.863 150.443 731.138 150.177C731.413 149.911 731.558 149.484 731.542 148.988C731.525 148.492 731.349 147.969 731.05 147.533C730.752 147.098 730.357 146.786 729.952 146.666C729.547 146.546 729.164 146.627 728.889 146.893C728.614 147.159 728.469 147.587 728.485 148.082C728.502 148.578 728.678 149.101 728.977 149.537C729.275 149.972 729.67 150.284 730.075 150.404ZM730.044 149.47C729.842 149.41 729.644 149.254 729.495 149.036C729.346 148.818 729.258 148.557 729.249 148.309C729.241 148.061 729.314 147.847 729.451 147.714C729.589 147.581 729.78 147.54 729.983 147.6C730.185 147.66 730.383 147.816 730.532 148.034C730.681 148.252 730.769 148.514 730.778 148.761C730.786 149.009 730.713 149.223 730.576 149.356C730.438 149.489 730.247 149.53 730.044 149.47Z" fill="white"/>
<path d="M747.345 175.708L745.012 177.962L742.482 174.268C741.982 173.537 741.63 172.691 741.47 171.835C741.311 170.98 741.351 170.155 741.586 169.463C741.821 168.772 742.24 168.245 742.79 167.951C743.34 167.656 743.996 167.606 744.677 167.808C745.357 168.009 746.029 168.453 746.61 169.082C747.191 169.712 747.653 170.499 747.939 171.345C748.224 172.191 748.32 173.056 748.215 173.833C748.109 174.61 747.806 175.262 747.345 175.708ZM744.877 173.883C745.282 174.003 745.664 173.921 745.939 173.656C746.214 173.39 746.36 172.962 746.343 172.466C746.327 171.97 746.15 171.447 745.852 171.012C745.554 170.576 745.159 170.264 744.754 170.144C744.348 170.024 743.966 170.106 743.691 170.372C743.416 170.637 743.271 171.065 743.287 171.561C743.304 172.057 743.48 172.58 743.778 173.015C744.077 173.451 744.472 173.763 744.877 173.883ZM744.846 172.948C744.644 172.888 744.446 172.732 744.297 172.515C744.148 172.297 744.059 172.035 744.051 171.787C744.043 171.539 744.116 171.325 744.253 171.193C744.391 171.06 744.582 171.019 744.784 171.079C744.987 171.139 745.185 171.295 745.334 171.513C745.483 171.73 745.571 171.992 745.579 172.24C745.588 172.488 745.515 172.702 745.377 172.835C745.24 172.967 745.049 173.008 744.846 172.948Z" fill="#91A0E1"/>
<path d="M746.834 175.708L744.501 177.962L741.972 174.268C741.471 173.537 741.119 172.691 740.959 171.835C740.8 170.98 740.84 170.155 741.075 169.463C741.31 168.772 741.729 168.245 742.279 167.951C742.829 167.656 743.486 167.606 744.166 167.808C744.846 168.009 745.519 168.453 746.099 169.082C746.68 169.712 747.142 170.499 747.428 171.345C747.714 172.191 747.81 173.056 747.704 173.833C747.598 174.61 747.295 175.262 746.834 175.708ZM744.366 173.883C744.772 174.003 745.154 173.921 745.429 173.656C745.704 173.39 745.849 172.962 745.833 172.466C745.816 171.97 745.64 171.447 745.341 171.012C745.043 170.576 744.648 170.264 744.243 170.144C743.838 170.024 743.455 170.106 743.18 170.372C742.905 170.637 742.76 171.065 742.776 171.561C742.793 172.057 742.97 172.58 743.268 173.015C743.566 173.451 743.961 173.763 744.366 173.883ZM744.335 172.948C744.133 172.888 743.935 172.732 743.786 172.515C743.637 172.297 743.549 172.035 743.541 171.787C743.532 171.539 743.605 171.325 743.742 171.193C743.88 171.06 744.071 171.019 744.274 171.079C744.476 171.139 744.674 171.295 744.823 171.513C744.972 171.73 745.06 171.992 745.069 172.24C745.077 172.488 745.004 172.702 744.867 172.835C744.729 172.967 744.538 173.008 744.335 172.948Z" fill="white"/>
<path d="M742.237 205.319L739.904 207.573L737.375 203.879C736.875 203.148 736.522 202.302 736.363 201.447C736.203 200.591 736.243 199.766 736.478 199.074C736.713 198.383 737.132 197.857 737.682 197.562C738.232 197.267 738.889 197.217 739.569 197.419C740.249 197.62 740.922 198.064 741.503 198.694C742.083 199.323 742.546 200.111 742.831 200.956C743.117 201.802 743.213 202.668 743.107 203.444C743.001 204.221 742.699 204.873 742.237 205.319ZM739.77 203.494C740.175 203.614 740.557 203.533 740.832 203.267C741.107 203.001 741.252 202.573 741.236 202.078C741.22 201.582 741.043 201.059 740.745 200.623C740.447 200.188 740.051 199.876 739.646 199.756C739.241 199.635 738.859 199.717 738.584 199.983C738.309 200.249 738.163 200.677 738.18 201.172C738.196 201.668 738.373 202.191 738.671 202.627C738.969 203.062 739.364 203.374 739.77 203.494ZM739.739 202.56C739.536 202.5 739.339 202.344 739.189 202.126C739.04 201.908 738.952 201.647 738.944 201.399C738.936 201.151 739.008 200.937 739.146 200.804C739.283 200.671 739.474 200.63 739.677 200.69C739.88 200.75 740.077 200.906 740.226 201.124C740.375 201.342 740.464 201.603 740.472 201.851C740.48 202.099 740.407 202.313 740.27 202.446C740.132 202.579 739.941 202.62 739.739 202.56Z" fill="#91A0E1"/>
<path d="M741.728 205.318L739.395 207.572L736.866 203.878C736.366 203.147 736.014 202.301 735.854 201.446C735.694 200.59 735.735 199.765 735.969 199.073C736.204 198.382 736.623 197.856 737.174 197.561C737.724 197.266 738.38 197.216 739.06 197.418C739.74 197.619 740.413 198.063 740.994 198.693C741.575 199.322 742.037 200.11 742.322 200.955C742.608 201.801 742.704 202.667 742.598 203.443C742.493 204.22 742.19 204.873 741.728 205.318ZM739.261 203.493C739.666 203.613 740.048 203.532 740.323 203.266C740.598 203 740.744 202.572 740.727 202.077C740.711 201.581 740.534 201.058 740.236 200.622C739.938 200.187 739.543 199.875 739.137 199.755C738.732 199.635 738.35 199.716 738.075 199.982C737.8 200.248 737.655 200.676 737.671 201.171C737.687 201.667 737.864 202.19 738.162 202.626C738.46 203.061 738.856 203.373 739.261 203.493ZM739.23 202.559C739.027 202.499 738.83 202.343 738.681 202.125C738.532 201.907 738.443 201.646 738.435 201.398C738.427 201.15 738.5 200.936 738.637 200.803C738.775 200.67 738.966 200.629 739.168 200.689C739.371 200.749 739.568 200.905 739.718 201.123C739.867 201.341 739.955 201.602 739.963 201.85C739.971 202.098 739.899 202.312 739.761 202.445C739.624 202.578 739.433 202.619 739.23 202.559Z" fill="white"/>
<path d="M784.265 174.469L781.932 176.723L779.402 173.028C778.902 172.298 778.55 171.451 778.39 170.596C778.231 169.741 778.271 168.915 778.506 168.224C778.74 167.532 779.159 167.006 779.71 166.711C780.26 166.417 780.916 166.367 781.596 166.568C782.276 166.77 782.949 167.213 783.53 167.843C784.111 168.473 784.573 169.26 784.859 170.106C785.144 170.951 785.24 171.817 785.134 172.594C785.029 173.37 784.726 174.023 784.265 174.469ZM781.797 172.644C782.202 172.764 782.584 172.682 782.859 172.416C783.134 172.151 783.28 171.723 783.263 171.227C783.247 170.731 783.07 170.208 782.772 169.773C782.474 169.337 782.079 169.025 781.674 168.905C781.268 168.785 780.886 168.867 780.611 169.132C780.336 169.398 780.191 169.826 780.207 170.322C780.223 170.818 780.4 171.341 780.698 171.776C780.996 172.212 781.392 172.524 781.797 172.644ZM781.766 171.709C781.563 171.649 781.366 171.493 781.217 171.275C781.068 171.058 780.979 170.796 780.971 170.548C780.963 170.3 781.036 170.086 781.173 169.953C781.311 169.821 781.502 169.78 781.704 169.84C781.907 169.9 782.105 170.056 782.254 170.273C782.403 170.491 782.491 170.753 782.499 171.001C782.507 171.249 782.435 171.462 782.297 171.595C782.16 171.728 781.969 171.769 781.766 171.709Z" fill="#91A0E1"/>
<path d="M783.754 174.469L781.421 176.723L778.891 173.028C778.391 172.298 778.039 171.451 777.879 170.596C777.72 169.741 777.76 168.915 777.995 168.224C778.23 167.532 778.649 167.006 779.199 166.711C779.749 166.417 780.406 166.367 781.086 166.568C781.766 166.77 782.439 167.213 783.019 167.843C783.6 168.473 784.062 169.26 784.348 170.106C784.633 170.951 784.729 171.817 784.624 172.594C784.518 173.37 784.215 174.023 783.754 174.469ZM781.286 172.644C781.691 172.764 782.074 172.682 782.349 172.416C782.624 172.151 782.769 171.723 782.753 171.227C782.736 170.731 782.56 170.208 782.261 169.773C781.963 169.337 781.568 169.025 781.163 168.905C780.758 168.785 780.375 168.867 780.1 169.132C779.825 169.398 779.68 169.826 779.696 170.322C779.713 170.818 779.889 171.341 780.188 171.776C780.486 172.212 780.881 172.524 781.286 172.644ZM781.255 171.709C781.053 171.649 780.855 171.493 780.706 171.275C780.557 171.058 780.469 170.796 780.46 170.548C780.452 170.3 780.525 170.086 780.662 169.953C780.8 169.821 780.991 169.78 781.194 169.84C781.396 169.9 781.594 170.056 781.743 170.273C781.892 170.491 781.98 170.753 781.989 171.001C781.997 171.249 781.924 171.462 781.787 171.595C781.649 171.728 781.458 171.769 781.255 171.709Z" fill="white"/>
<path d="M780.422 242.869L778.089 245.123L775.559 241.429C775.059 240.698 774.707 239.852 774.547 238.996C774.388 238.141 774.428 237.316 774.663 236.624C774.898 235.933 775.317 235.406 775.867 235.112C776.417 234.817 777.074 234.767 777.754 234.969C778.434 235.17 779.107 235.614 779.687 236.243C780.268 236.873 780.73 237.66 781.016 238.506C781.301 239.352 781.397 240.218 781.292 240.994C781.186 241.771 780.883 242.423 780.422 242.869ZM777.954 241.044C778.359 241.164 778.742 241.082 779.017 240.817C779.292 240.551 779.437 240.123 779.421 239.627C779.404 239.132 779.228 238.608 778.929 238.173C778.631 237.737 778.236 237.425 777.831 237.305C777.425 237.185 777.043 237.267 776.768 237.533C776.493 237.799 776.348 238.226 776.364 238.722C776.381 239.218 776.557 239.741 776.856 240.177C777.154 240.612 777.549 240.924 777.954 241.044ZM777.923 240.109C777.721 240.049 777.523 239.893 777.374 239.676C777.225 239.458 777.137 239.196 777.128 238.948C777.12 238.701 777.193 238.487 777.33 238.354C777.468 238.221 777.659 238.18 777.862 238.24C778.064 238.3 778.262 238.456 778.411 238.674C778.56 238.892 778.648 239.153 778.657 239.401C778.665 239.649 778.592 239.863 778.455 239.996C778.317 240.129 778.126 240.169 777.923 240.109Z" fill="#91A0E1"/>
<path d="M779.911 242.869L777.578 245.123L775.049 241.429C774.548 240.698 774.196 239.852 774.037 238.996C773.877 238.141 773.917 237.316 774.152 236.624C774.387 235.933 774.806 235.406 775.356 235.112C775.906 234.817 776.563 234.767 777.243 234.969C777.923 235.17 778.596 235.614 779.176 236.243C779.757 236.873 780.22 237.66 780.505 238.506C780.791 239.352 780.887 240.218 780.781 240.994C780.675 241.771 780.372 242.423 779.911 242.869ZM777.443 241.044C777.849 241.164 778.231 241.082 778.506 240.817C778.781 240.551 778.926 240.123 778.91 239.627C778.893 239.132 778.717 238.608 778.419 238.173C778.12 237.737 777.725 237.425 777.32 237.305C776.915 237.185 776.533 237.267 776.258 237.533C775.983 237.799 775.837 238.226 775.854 238.722C775.87 239.218 776.047 239.741 776.345 240.177C776.643 240.612 777.038 240.924 777.443 241.044ZM777.413 240.109C777.21 240.049 777.012 239.893 776.863 239.676C776.714 239.458 776.626 239.196 776.618 238.948C776.609 238.701 776.682 238.487 776.82 238.354C776.957 238.221 777.148 238.18 777.351 238.24C777.554 238.3 777.751 238.456 777.9 238.674C778.049 238.892 778.138 239.153 778.146 239.401C778.154 239.649 778.081 239.863 777.944 239.996C777.806 240.129 777.615 240.169 777.413 240.109Z" fill="white"/>
<path d="M692.602 193.846C692.753 190.193 692.126 186.162 690.799 182.261C689.473 178.36 687.507 174.765 685.15 171.93C682.793 169.096 680.15 167.149 677.557 166.337C674.964 165.524 672.537 165.882 670.582 167.365C668.626 168.848 667.232 171.39 666.573 174.669C665.915 177.948 666.023 181.816 666.884 185.786C667.744 189.755 669.319 193.647 671.408 196.97C673.498 200.292 673.857 203.095 676.471 204.65L678.315 204.281L679.386 185.983L692.602 193.846Z" fill="#EAEDFA"/>
<path d="M690.487 193.954L692.7 193.954L690.487 186.946L687.536 188.053L690.487 193.954Z" fill="#EAEDFA"/>
<path d="M695.019 198.356C694.919 200.781 694.477 202.979 693.72 204.825C692.964 206.67 691.906 208.127 690.608 209.111C689.31 210.096 687.796 210.59 686.155 210.564C684.513 210.538 682.774 209.993 681.039 208.961L680.175 190.493L681.803 190.493L695.019 198.356Z" fill="#EAEDFA"/>
<path d="M690.439 194.033C690.59 190.381 689.963 186.349 688.636 182.448C687.31 178.547 685.344 174.952 682.987 172.118C680.629 169.284 677.987 167.337 675.394 166.524C672.801 165.712 670.374 166.07 668.418 167.553C666.463 169.036 665.068 171.577 664.41 174.856C663.752 178.135 663.86 182.004 664.721 185.973C665.581 189.943 667.156 193.835 669.245 197.157C671.334 200.479 673.845 203.082 676.459 204.638L677.223 186.17L690.439 194.033Z" fill="url(#paint12_linear)"/>
<path d="M693.34 198.265C693.24 200.691 692.798 202.889 692.042 204.734C691.285 206.579 690.227 208.036 688.929 209.021C687.631 210.005 686.117 210.499 684.476 210.473C682.834 210.447 681.095 209.902 679.36 208.87L680.124 190.403L693.34 198.265Z" fill="url(#paint13_linear)"/>
<rect width="89.8956" height="28.8033" rx="4" transform="matrix(0.872496 0.488621 -0.0329807 0.999456 738.807 74.6738)" fill="white" stroke="white" stroke-opacity="0.29"/>
<rect width="89.8956" height="28.8033" rx="4" transform="matrix(0.872496 0.488621 -0.0329807 0.999456 736.329 75.9121)" fill="url(#paint14_linear)" stroke="white" stroke-opacity="0.29"/>
<path d="M743.379 96.1611L745.155 93.0496L744.438 92.8854C744.281 92.8494 744.122 92.6552 744.083 92.4517C744.044 92.2482 744.14 92.1125 744.298 92.1486L749.283 93.2894C749.283 93.2646 749.283 93.2402 749.284 93.2159C749.306 92.5449 749.721 92.18 750.293 92.3284C750.866 92.4767 751.451 93.1007 751.717 93.8462L756.703 94.9874C756.861 95.0235 757.02 95.2177 757.059 95.4212C757.097 95.6246 757.001 95.7603 756.844 95.7243L755.86 95.4991L757.48 100.812C757.596 100.925 757.671 101.096 757.666 101.239C757.63 102.331 757.024 102.993 756.129 102.916C755.235 102.84 754.23 102.04 753.583 100.89C753.152 100.139 752.922 99.3118 752.944 98.5946C752.949 98.4441 753.041 98.361 753.169 98.391L754.94 95.2887L751.858 94.5833C751.858 94.6081 751.858 94.6325 751.857 94.657C751.834 95.3405 751.403 95.704 750.817 95.5353L750.597 102.194L751.407 102.648C752.054 103.01 752.573 103.907 752.549 104.648L752.542 104.843C753.082 105.28 753.455 106.047 753.438 106.687L753.422 107.157C753.411 107.344 753.272 107.421 753.106 107.331L747.26 104.057C747.094 103.961 746.965 103.734 746.966 103.542L746.982 103.071C747.006 102.435 747.415 102.106 747.964 102.279L747.971 102.084C747.995 101.343 748.553 101.049 749.2 101.412L750.01 101.865L750.23 95.2066C749.881 94.9144 749.589 94.4863 749.424 94.0263L746.067 93.258L747.69 98.582C747.807 98.6951 747.881 98.8664 747.877 99.0092C747.841 100.101 747.234 100.763 746.34 100.686C745.446 100.61 744.441 99.8103 743.794 98.6605C743.362 97.9094 743.132 97.0818 743.155 96.3646C743.16 96.2142 743.251 96.1312 743.379 96.1611ZM755.446 95.8844L753.546 99.2577L757.044 101.217L755.446 95.8844ZM755.246 101.928C756.11 102.418 756.873 102.116 757.044 101.217L753.546 99.2577C753.663 100.318 754.381 101.445 755.246 101.928ZM747.569 103.4L747.564 103.542L752.846 106.501L752.851 106.358C752.863 105.987 752.598 105.54 752.274 105.359L748.189 103.071C747.866 102.89 747.581 103.029 747.569 103.4ZM748.558 102.413L748.552 102.589L751.956 104.496L751.962 104.319C751.974 103.949 751.708 103.501 751.385 103.32L749.178 102.084C748.855 101.903 748.57 102.042 748.558 102.413ZM750.544 94.7378C750.843 94.9051 751.116 94.8375 751.224 94.5694C751.332 94.3012 751.253 93.8916 751.025 93.5488C750.798 93.206 750.473 93.0055 750.216 93.0495C749.958 93.0933 749.826 93.3719 749.885 93.7433C749.891 93.7688 749.896 93.7938 749.899 93.8182C749.984 94.1987 750.243 94.5688 750.544 94.7378ZM743.757 97.0279L747.255 98.9869L745.656 93.6546L743.757 97.0279ZM745.457 99.6986C746.321 100.188 747.084 99.8865 747.255 98.9869L743.757 97.0279C743.874 98.0881 744.591 99.2151 745.457 99.6986Z" fill="white"/>
<path d="M755.485 99.6333L755.054 99.3921C754.957 99.3379 754.881 99.2004 754.885 99.0857C754.889 98.971 754.971 98.9219 755.068 98.9762L755.795 99.3834L755.811 98.9084L755.447 98.7047L755.457 98.3843L755.056 98.1594L755.045 98.4815C754.744 98.3365 754.495 98.4994 754.483 98.8608C754.471 99.2374 754.72 99.6888 755.038 99.8671L755.469 100.108C755.574 100.167 755.657 100.317 755.653 100.441C755.649 100.566 755.559 100.619 755.454 100.56L754.526 100.041L754.51 100.516L754.97 100.773L754.959 101.093L755.361 101.318L755.371 100.998L755.438 101.035C755.765 101.218 756.041 101.053 756.054 100.666C756.067 100.28 755.811 99.8163 755.485 99.6333Z" fill="white"/>
<path d="M745.425 97.7257L745.469 96.4164C745.474 96.2703 745.578 96.2079 745.701 96.2771C745.825 96.3463 745.921 96.5208 745.916 96.667L745.893 97.3639L745.87 98.0608C745.87 98.065 745.869 98.0684 745.869 98.0724C745.869 98.1461 745.846 98.2074 745.798 98.2363L744.932 98.7553C744.841 98.8097 744.699 98.7304 744.616 98.5781C744.532 98.4258 744.537 98.2583 744.628 98.2039L745.425 97.7257Z" fill="white"/>
<rect opacity="0.2" width="46.0486" height="3.66921" rx="1" transform="matrix(0.872496 0.488621 -0.0329807 0.999456 766.436 102.295)" fill="white"/>
<rect opacity="0.2" width="31.7387" height="3.66921" rx="1" transform="matrix(0.872496 0.488621 -0.0329807 0.999456 766.217 108.898)" fill="white"/>
<rect width="75.629" height="24.2322" rx="4" transform="matrix(0.872496 0.488621 -0.0329807 0.999456 648.358 25.2871)" fill="white" stroke="white" stroke-opacity="0.29"/>
<rect width="75.629" height="24.2322" rx="4" transform="matrix(0.872496 0.488621 -0.0329807 0.999456 646.264 25.9863)" fill="url(#paint15_linear)" stroke="white" stroke-opacity="0.29"/>
<path d="M657.4 49.2385C657.319 49.2167 657.236 49.1914 657.155 49.1632C656.941 49.09 656.794 49.2467 656.825 49.5135C656.84 49.6447 656.896 49.7782 656.974 49.8887C657.055 50.0025 657.16 50.092 657.268 50.1292C657.365 50.1626 657.463 50.1928 657.56 50.2187C657.771 50.2758 657.906 50.1026 657.862 49.832C657.818 49.5613 657.611 49.2956 657.4 49.2385Z" fill="white"/>
<path d="M660.487 44.8183C660.512 44.9288 660.561 45.0357 660.625 45.1263C660.721 45.2606 660.848 45.359 660.971 45.3808C661.179 45.4171 661.298 45.2244 661.238 44.9503C661.211 44.8253 661.18 44.6981 661.147 44.5725C661.075 44.2966 660.851 44.0568 660.648 44.0371C660.445 44.0174 660.338 44.2249 660.411 44.501C660.439 44.6066 660.464 44.7134 660.487 44.8183Z" fill="white"/>
<path d="M658.69 49.3047C658.619 49.3186 658.546 49.3296 658.473 49.337C658.282 49.3568 658.209 49.5966 658.31 49.8725C658.337 49.9475 658.374 50.0172 658.418 50.079C658.535 50.2443 658.698 50.3506 658.838 50.3363C658.925 50.3273 659.011 50.3144 659.096 50.2978C659.28 50.2614 659.339 50.0095 659.227 49.7353C659.115 49.4609 658.874 49.2682 658.69 49.3047Z" fill="white"/>
<path d="M661.43 46.6261C661.429 46.3726 661.254 46.0773 661.038 45.9663C660.823 45.8555 660.648 45.971 660.648 46.2244C660.648 46.3213 660.646 46.4182 660.641 46.5121C660.632 46.6664 660.694 46.8425 660.794 46.9836C660.854 47.0676 660.927 47.1393 661.007 47.1866C661.223 47.3128 661.408 47.2155 661.421 46.9694C661.427 46.8571 661.43 46.7417 661.43 46.6261Z" fill="white"/>
<path d="M660.285 48.9907C660.118 48.7443 659.872 48.648 659.736 48.7746C659.683 48.823 659.629 48.8691 659.573 48.9117C659.427 49.0228 659.437 49.3184 659.596 49.5716C659.605 49.586 659.614 49.5997 659.624 49.6131C659.783 49.8373 660.011 49.9338 660.148 49.829C660.215 49.7783 660.28 49.7232 660.343 49.6653C660.479 49.5387 660.453 49.2367 660.285 48.9907Z" fill="white"/>
<path d="M660.911 47.685C660.708 47.4953 660.485 47.5047 660.412 47.7061C660.385 47.783 660.354 47.8589 660.322 47.9316C660.25 48.0918 660.305 48.3429 660.444 48.5385C660.469 48.5743 660.498 48.6084 660.528 48.6395C660.727 48.8411 660.957 48.8508 661.041 48.6612C661.08 48.5747 661.116 48.4845 661.149 48.3931C661.221 48.1917 661.115 47.8747 660.911 47.685Z" fill="white"/>
<path d="M655.694 48.3491C655.347 48.0812 655.016 47.7704 654.704 47.4207C654.7 47.4163 654.697 47.4119 654.693 47.4076C654.62 47.325 654.546 47.2396 654.476 47.1536C654.475 47.1531 654.475 47.1526 654.474 47.1522C654.344 46.9934 654.218 46.8273 654.095 46.6544C652.307 44.1322 651.962 40.9452 653.327 39.5502C653.623 39.247 653.977 39.0533 654.366 38.9612C654.371 38.9601 654.376 38.959 654.381 38.9578C655.754 38.6433 657.573 39.5891 658.958 41.4778L658.636 41.8156C658.546 41.9097 658.595 42.0421 658.744 42.1099L660.074 42.7152C660.223 42.7831 660.317 42.6845 660.282 42.4964L659.975 40.8173C659.941 40.6291 659.84 40.5521 659.75 40.6462L659.427 40.9848C658.411 39.5933 657.171 38.5851 655.922 38.1383C655.796 38.0933 655.671 38.0548 655.549 38.0223C655.548 38.022 655.547 38.0217 655.546 38.0214C655.542 38.0201 655.537 38.0192 655.532 38.0181C654.451 37.7359 653.494 37.9332 652.793 38.5878C652.788 38.5923 652.782 38.5966 652.776 38.602C652.753 38.624 652.73 38.6469 652.707 38.6701C652.67 38.7081 652.633 38.7479 652.598 38.7884C652.594 38.7932 652.59 38.7987 652.586 38.8039C652.004 39.4792 651.701 40.4673 651.709 41.65C651.708 41.6538 651.708 41.6576 651.708 41.6615C651.709 41.777 651.713 41.896 651.72 42.0147C651.72 42.0223 651.721 42.03 651.722 42.0379C651.729 42.1574 651.739 42.2788 651.752 42.4021C651.888 43.6597 652.328 44.9691 653.012 46.1793C653.014 46.1821 653.015 46.1851 653.017 46.188C653.017 46.1891 653.018 46.1899 653.019 46.1909C653.202 46.5151 653.403 46.8323 653.621 47.1393C654.19 47.9428 654.832 48.6222 655.527 49.159C655.737 49.3219 655.946 49.2724 655.992 49.0489C656.038 48.8251 655.905 48.5118 655.694 48.3491Z" fill="white"/>
<path d="M656.45 40.3489C656.275 40.2511 656.128 40.3353 656.122 40.5365L656.002 44.1691L658.824 47.499C658.87 47.5527 658.919 47.5935 658.968 47.6208C659.082 47.6849 659.195 47.6749 659.255 47.581C659.341 47.4469 659.288 47.1931 659.136 47.0138L656.648 44.079L656.754 40.8904C656.76 40.6891 656.624 40.4466 656.45 40.3489Z" fill="white"/>
<rect opacity="0.2" width="38.7406" height="3.0869" rx="1" transform="matrix(0.872496 0.488621 -0.0329807 0.999456 671.591 48.1836)" fill="white"/>
<rect opacity="0.2" width="26.7017" height="3.0869" rx="1" transform="matrix(0.872496 0.488621 -0.0329807 0.999456 671.407 53.7363)" fill="white"/>
<rect width="61.9524" height="19.85" rx="4" transform="matrix(0.872496 0.488621 -0.0329807 0.999456 606.661 112.434)" fill="white" stroke="white" stroke-opacity="0.29"/>
<rect width="61.9524" height="19.85" rx="4" transform="matrix(0.872496 0.488621 -0.0329807 0.999456 605.389 113.707)" fill="url(#paint16_linear)" stroke="white" stroke-opacity="0.29"/>
<path d="M619.548 132.886L618.507 129.474L618.99 129.908C619.097 130.003 619.211 129.995 619.246 129.889C619.281 129.784 619.223 129.621 619.117 129.525L615.754 126.504C615.756 126.488 615.757 126.472 615.757 126.455C615.773 125.993 615.513 125.436 615.127 125.101C614.74 124.765 614.323 124.736 614.113 125.03L610.751 122.009C610.645 121.913 610.53 121.922 610.495 122.027C610.461 122.133 610.518 122.296 610.625 122.392L611.288 122.988L609.975 125.288C609.893 125.275 609.835 125.333 609.832 125.431C609.807 126.183 610.18 127.083 610.778 127.71C611.375 128.337 612.078 128.567 612.559 128.294C612.879 128.122 613.069 127.747 613.086 127.253C613.09 127.15 613.032 127.025 612.946 126.948L611.909 123.545L613.987 125.412C613.985 125.429 613.984 125.445 613.984 125.462C613.969 125.934 614.239 126.501 614.636 126.834L614.484 131.423L613.926 131.11C613.48 130.86 613.096 131.063 613.079 131.574L613.074 131.708C612.696 131.588 612.414 131.816 612.397 132.254L612.386 132.578C612.385 132.711 612.475 132.867 612.589 132.933L616.618 135.189C616.732 135.251 616.828 135.199 616.836 135.07L616.846 134.745C616.858 134.305 616.601 133.776 616.229 133.475L616.234 133.34C616.25 132.829 615.893 132.212 615.447 131.962L614.889 131.649L615.04 127.06C615.285 127.13 615.498 127.067 615.628 126.887L617.892 128.921L616.576 131.227C616.494 131.214 616.437 131.271 616.433 131.369C616.408 132.121 616.782 133.021 617.379 133.648C617.976 134.275 618.68 134.506 619.16 134.232C619.481 134.06 619.671 133.685 619.688 133.192C619.691 133.088 619.634 132.963 619.548 132.886ZM611.546 123.558L612.657 127.238L610.246 125.887L611.546 123.558ZM611.408 127.723C610.813 127.393 610.32 126.615 610.246 125.887L612.657 127.238C612.532 127.853 612.005 128.058 611.408 127.723ZM616.442 134.519L616.439 134.617L612.798 132.578L612.802 132.48C612.81 132.225 613.006 132.129 613.229 132.253L616.044 133.83C616.267 133.955 616.45 134.263 616.442 134.519ZM615.829 133.114L615.825 133.235L613.479 131.922L613.483 131.8C613.492 131.545 613.688 131.449 613.911 131.573L615.432 132.425C615.655 132.55 615.838 132.858 615.829 133.114ZM614.852 126.511C614.647 126.396 614.468 126.144 614.408 125.884C614.348 125.623 614.42 125.412 614.586 125.356C614.752 125.301 614.977 125.414 615.146 125.639C615.315 125.863 615.391 126.148 615.335 126.35C615.329 126.362 615.325 126.375 615.322 126.389C615.249 126.578 615.06 126.627 614.852 126.511ZM619.258 133.176L616.847 131.826L618.147 129.496L619.258 133.176ZM618.01 133.661C617.414 133.332 616.921 132.553 616.847 131.826L619.258 133.176C619.133 133.791 618.606 133.996 618.01 133.661Z" fill="white"/>
<path d="M611.353 126.015L611.65 126.181C611.717 126.219 611.773 126.185 611.776 126.106C611.778 126.027 611.726 125.932 611.659 125.895L611.158 125.614L611.169 125.287L611.42 125.427L611.427 125.206L611.704 125.361L611.696 125.583C611.903 125.715 612.061 126.012 612.052 126.261C612.044 126.52 611.858 126.632 611.639 126.509L611.342 126.342C611.27 126.302 611.208 126.339 611.205 126.424C611.202 126.51 611.259 126.613 611.332 126.654L611.971 127.012L611.961 127.339L611.644 127.162L611.637 127.383L611.36 127.228L611.367 127.007L611.321 126.981C611.096 126.855 610.92 126.536 610.929 126.269C610.937 126.003 611.128 125.889 611.353 126.015Z" fill="white"/>
<path d="M618.119 132.376L618.149 131.473C618.152 131.372 618.086 131.252 618.001 131.205C617.916 131.157 617.844 131.2 617.841 131.301L617.825 131.781L617.809 132.261C617.809 132.264 617.809 132.267 617.809 132.27C617.806 132.318 617.819 132.377 617.849 132.433L618.401 133.433C618.459 133.538 618.557 133.593 618.619 133.556C618.682 133.518 618.685 133.403 618.628 133.298L618.119 132.376Z" fill="white"/>
<rect opacity="0.2" width="31.7348" height="2.52867" rx="1" transform="matrix(0.872496 0.488621 -0.0329807 0.999456 626.135 131.891)" fill="white"/>
<rect opacity="0.2" width="21.873" height="2.52867" rx="1" transform="matrix(0.872496 0.488621 -0.0329807 0.999456 625.985 136.438)" fill="white"/>
<path d="M340.868 272.397L321.715 261.065V306.553L340.868 316.608V272.397Z" fill="#F5F8FF"/>
<path d="M353.955 264.259L340.867 272.239V316.929L353.955 309.427V264.259Z" fill="#ECF0FF"/>
<path d="M334.803 253.404L321.716 261.065L340.709 272.397L353.956 264.257L334.803 253.404Z" fill="#E2E8FF"/>
<path d="M324.109 270.613V266.81L327.301 268.671V272.555L324.109 270.613Z" fill="#E2E8FF"/>
<path d="M324.108 277.641V273.838L327.301 275.699V279.584L324.108 277.641Z" fill="#E2E8FF"/>
<path d="M324.108 284.027V280.224L327.301 282.085V285.969L324.108 284.027Z" fill="#E2E8FF"/>
<path d="M324.108 291.048V287.244L327.301 289.105V292.99L324.108 291.048Z" fill="#E2E8FF"/>
<path d="M324.108 297.114V293.311L327.301 295.172V299.056L324.108 297.114Z" fill="#E2E8FF"/>
<path d="M328.898 273.811V270.008L332.091 271.869V275.754L328.898 273.811Z" fill="#E2E8FF"/>
<path d="M328.898 280.836V277.032L332.091 278.894V282.778L328.898 280.836Z" fill="#E2E8FF"/>
<path d="M328.898 287.218V283.414L332.091 285.275V289.16L328.898 287.218Z" fill="#E2E8FF"/>
<path d="M328.898 294.24V290.437L332.091 292.298V296.182L328.898 294.24Z" fill="#E2E8FF"/>
<path d="M328.898 300.307V296.504L332.091 298.365V302.25L328.898 300.307Z" fill="#E2E8FF"/>
<path d="M334.643 277.001V273.197L337.835 275.059V278.943L334.643 277.001Z" fill="#E2E8FF"/>
<path d="M334.643 284.027V280.224L337.835 282.085V285.969L334.643 284.027Z" fill="#E2E8FF"/>
<path d="M334.643 290.41V286.606L337.835 288.468V292.352L334.643 290.41Z" fill="#E2E8FF"/>
<path d="M334.643 297.436V293.633L337.835 295.494V299.379L334.643 297.436Z" fill="#E2E8FF"/>
<path d="M334.643 303.496V299.692L337.835 301.554V305.438L334.643 303.496Z" fill="#E2E8FF"/>
<path d="M243.605 223.42L224.452 212.088V257.575L243.605 267.631V223.42Z" fill="#F5F8FF"/>
<path d="M256.692 215.281L243.604 223.262V267.951L256.692 260.45V215.281Z" fill="#ECF0FF"/>
<path d="M237.541 204.427L224.453 212.088L243.446 223.42L256.693 215.28L237.541 204.427Z" fill="#E2E8FF"/>
<path d="M226.846 221.636V217.832L230.038 219.693V223.578L226.846 221.636Z" fill="#E2E8FF"/>
<path d="M226.846 228.664V224.86L230.038 226.722V230.606L226.846 228.664Z" fill="#E2E8FF"/>
<path d="M226.846 235.05V231.246L230.038 233.107V236.992L226.846 235.05Z" fill="#E2E8FF"/>
<path d="M226.846 242.07V238.267L230.038 240.128V244.012L226.846 242.07Z" fill="#E2E8FF"/>
<path d="M226.846 248.137V244.333L230.038 246.194V250.079L226.846 248.137Z" fill="#E2E8FF"/>
<path d="M231.636 224.834V221.03L234.828 222.892V226.776L231.636 224.834Z" fill="#E2E8FF"/>
<path d="M231.636 231.858V228.055L234.828 229.916V233.8L231.636 231.858Z" fill="#E2E8FF"/>
<path d="M231.636 238.24V234.437L234.828 236.298V240.182L231.636 238.24Z" fill="#E2E8FF"/>
<path d="M231.636 245.263V241.459L234.828 243.32V247.205L231.636 245.263Z" fill="#E2E8FF"/>
<path d="M231.636 251.33V247.526L234.828 249.388V253.272L231.636 251.33Z" fill="#E2E8FF"/>
<path d="M237.38 228.023V224.22L240.572 226.081V229.966L237.38 228.023Z" fill="#E2E8FF"/>
<path d="M237.38 235.05V231.246L240.572 233.107V236.992L237.38 235.05Z" fill="#E2E8FF"/>
<path d="M237.38 241.432V237.629L240.572 239.49V243.375L237.38 241.432Z" fill="#E2E8FF"/>
<path d="M237.38 248.459V244.655L240.572 246.517V250.401L237.38 248.459Z" fill="#E2E8FF"/>
<path d="M237.38 254.518V250.715L240.572 252.576V256.461L237.38 254.518Z" fill="#E2E8FF"/>
<path d="M753.607 320.877L740.839 313.322V343.647L753.607 350.351V320.877Z" fill="#F5F8FF"/>
<path d="M762.333 315.451L753.607 320.771V350.564L762.333 345.563V315.451Z" fill="#ECF0FF"/>
<path d="M749.565 308.216L740.84 313.323L753.502 320.878L762.333 315.451L749.565 308.216Z" fill="#E2E8FF"/>
<path d="M742.435 319.689V317.153L744.563 318.394V320.984L742.435 319.689Z" fill="#E2E8FF"/>
<path d="M742.435 324.37V321.834L744.563 323.075V325.665L742.435 324.37Z" fill="#E2E8FF"/>
<path d="M742.435 328.628V326.093L744.563 327.334V329.923L742.435 328.628Z" fill="#E2E8FF"/>
<path d="M742.435 333.311V330.775L744.563 332.016V334.606L742.435 333.311Z" fill="#E2E8FF"/>
<path d="M742.435 337.352V334.816L744.563 336.057V338.647L742.435 337.352Z" fill="#E2E8FF"/>
<path d="M745.626 321.818V319.282L747.754 320.523V323.113L745.626 321.818Z" fill="#E2E8FF"/>
<path d="M745.626 326.5V323.964L747.754 325.205V327.794L745.626 326.5Z" fill="#E2E8FF"/>
<path d="M745.626 330.754V328.219L747.754 329.46V332.049L745.626 330.754Z" fill="#E2E8FF"/>
<path d="M745.626 335.436V332.9L747.754 334.141V336.731L745.626 335.436Z" fill="#E2E8FF"/>
<path d="M745.626 339.481V336.945L747.754 338.186V340.776L745.626 339.481Z" fill="#E2E8FF"/>
<path d="M749.457 323.948V321.412L751.585 322.653V325.243L749.457 323.948Z" fill="#E2E8FF"/>
<path d="M749.457 328.628V326.093L751.585 327.334V329.923L749.457 328.628Z" fill="#E2E8FF"/>
<path d="M749.457 332.884V330.349L751.585 331.59V334.179L749.457 332.884Z" fill="#E2E8FF"/>
<path d="M749.457 337.566V335.03L751.585 336.271V338.861L749.457 337.566Z" fill="#E2E8FF"/>
<path d="M749.457 341.609V339.073L751.585 340.314V342.904L749.457 341.609Z" fill="#E2E8FF"/>
<path d="M735.274 318.609L716.121 307.277V352.765L735.274 362.82V318.609Z" fill="#F5F8FF"/>
<path d="M748.362 310.471L735.274 318.451V363.141L748.362 355.639V310.471Z" fill="#ECF0FF"/>
<path d="M729.209 299.617L716.121 307.278L735.114 318.61L748.361 310.47L729.209 299.617Z" fill="#E2E8FF"/>
<path d="M718.515 316.826V313.022L721.707 314.884V318.768L718.515 316.826Z" fill="#E2E8FF"/>
<path d="M718.515 323.851V320.048L721.707 321.909V325.794L718.515 323.851Z" fill="#E2E8FF"/>
<path d="M718.515 330.237V326.434L721.707 328.295V332.179L718.515 330.237Z" fill="#E2E8FF"/>
<path d="M718.515 337.258V333.454L721.707 335.315V339.2L718.515 337.258Z" fill="#E2E8FF"/>
<path d="M718.515 343.324V339.521L721.707 341.382V345.266L718.515 343.324Z" fill="#E2E8FF"/>
<path d="M723.304 320.021V316.218L726.496 318.079V321.964L723.304 320.021Z" fill="#E2E8FF"/>
<path d="M723.304 327.046V323.242L726.496 325.104V328.988L723.304 327.046Z" fill="#E2E8FF"/>
<path d="M723.304 333.428V329.624L726.496 331.485V335.37L723.304 333.428Z" fill="#E2E8FF"/>
<path d="M723.304 340.451V336.647L726.496 338.509V342.393L723.304 340.451Z" fill="#E2E8FF"/>
<path d="M723.304 346.517V342.714L726.496 344.575V348.46L723.304 346.517Z" fill="#E2E8FF"/>
<path d="M729.049 323.211V319.407L732.241 321.269V325.153L729.049 323.211Z" fill="#E2E8FF"/>
<path d="M729.049 330.237V326.434L732.241 328.295V332.179L729.049 330.237Z" fill="#E2E8FF"/>
<path d="M729.049 336.62V332.816L732.241 334.678V338.562L729.049 336.62Z" fill="#E2E8FF"/>
<path d="M729.049 343.646V339.843L732.241 341.704V345.589L729.049 343.646Z" fill="#E2E8FF"/>
<path d="M729.049 349.706V345.902L732.241 347.764V351.648L729.049 349.706Z" fill="#E2E8FF"/>
<path d="M714.855 330.432L695.702 319.1V364.587L714.855 374.642V330.432Z" fill="#F5F8FF"/>
<path d="M727.942 322.292L714.854 330.272V374.962L727.942 367.46V322.292Z" fill="#ECF0FF"/>
<path d="M708.79 311.438L695.702 319.1L714.695 330.432L727.942 322.292L708.79 311.438Z" fill="#E2E8FF"/>
<path d="M698.096 328.648V324.845L701.288 326.706V330.591L698.096 328.648Z" fill="#E2E8FF"/>
<path d="M698.096 335.674V331.87L701.288 333.731V337.616L698.096 335.674Z" fill="#E2E8FF"/>
<path d="M698.096 342.059V338.256L701.288 340.117V344.002L698.096 342.059Z" fill="#E2E8FF"/>
<path d="M698.096 349.08V345.276L701.288 347.138V351.022L698.096 349.08Z" fill="#E2E8FF"/>
<path d="M702.886 331.844V328.04L706.078 329.901V333.786L702.886 331.844Z" fill="#E2E8FF"/>
<path d="M702.886 338.868V335.064L706.078 336.926V340.81L702.886 338.868Z" fill="#E2E8FF"/>
<path d="M702.886 345.25V341.446L706.078 343.308V347.192L702.886 345.25Z" fill="#E2E8FF"/>
<path d="M708.63 335.033V331.229L711.822 333.091V336.975L708.63 335.033Z" fill="#E2E8FF"/>
<path d="M708.63 342.059V338.256L711.822 340.117V344.002L708.63 342.059Z" fill="#E2E8FF"/>
<path d="M708.63 348.442V344.639L711.822 346.5V350.384L708.63 348.442Z" fill="#E2E8FF"/>
<path d="M511.474 127.263L487.214 112.909V170.527L511.474 183.263V127.263Z" fill="#F5F8FF"/>
<path d="M528.053 116.953L511.476 127.061V183.668L528.053 174.166V116.953Z" fill="#ECF0FF"/>
<path d="M503.792 103.204L487.214 112.908L511.272 127.262L528.052 116.951L503.792 103.204Z" fill="#E2E8FF"/>
<path d="M490.247 125.004V120.187L494.29 122.544V127.465L490.247 125.004Z" fill="#E2E8FF"/>
<path d="M490.247 133.905V129.087L494.29 131.445V136.365L490.247 133.905Z" fill="#E2E8FF"/>
<path d="M490.247 141.992V137.174L494.29 139.531V144.452L490.247 141.992Z" fill="#E2E8FF"/>
<path d="M490.247 150.885V146.067L494.29 148.425V153.345L490.247 150.885Z" fill="#E2E8FF"/>
<path d="M490.247 158.566V153.748L494.29 156.106V161.026L490.247 158.566Z" fill="#E2E8FF"/>
<path d="M496.312 129.051V124.233L500.355 126.591V131.511L496.312 129.051Z" fill="#E2E8FF"/>
<path d="M496.312 137.949V133.131L500.355 135.489V140.409L496.312 137.949Z" fill="#E2E8FF"/>
<path d="M496.312 146.032V141.214L500.355 143.572V148.492L496.312 146.032Z" fill="#E2E8FF"/>
<path d="M496.312 154.929V150.111L500.355 152.469V157.389L496.312 154.929Z" fill="#E2E8FF"/>
<path d="M496.312 162.61V157.792L500.355 160.15V165.07L496.312 162.61Z" fill="#E2E8FF"/>
<path d="M503.59 133.095V128.277L507.633 130.635V135.555L503.59 133.095Z" fill="#E2E8FF"/>
<path d="M503.59 141.992V137.174L507.633 139.531V144.452L503.59 141.992Z" fill="#E2E8FF"/>
<path d="M503.59 150.079V145.261L507.633 147.618V152.539L503.59 150.079Z" fill="#E2E8FF"/>
<path d="M503.59 158.972V154.154L507.633 156.512V161.432L503.59 158.972Z" fill="#E2E8FF"/>
<path d="M503.59 166.657V161.839L507.633 164.197V169.117L503.59 166.657Z" fill="#E2E8FF"/>
<path d="M461.905 344.006L443.153 332.911V377.446L461.905 387.291V344.006Z" fill="#F5F8FF"/>
<path d="M474.719 336.033L461.905 343.846V387.6L474.719 380.256V336.033Z" fill="#ECF0FF"/>
<path d="M455.967 325.409L443.153 332.91L461.749 344.005L474.719 336.035L455.967 325.409Z" fill="#E2E8FF"/>
<path d="M445.498 342.26V338.536L448.623 340.358V344.162L445.498 342.26Z" fill="#E2E8FF"/>
<path d="M445.497 349.134V345.41L448.622 347.233V351.036L445.497 349.134Z" fill="#E2E8FF"/>
<path d="M450.185 345.387V341.663L453.31 343.485V347.289L450.185 345.387Z" fill="#E2E8FF"/>
<path d="M455.81 348.51V344.786L458.935 346.608V350.412L455.81 348.51Z" fill="#E2E8FF"/>
<g filter="url(#filter10_d)">
<ellipse cx="624.19" cy="268.094" rx="10.9073" ry="8.02004" fill="white" fill-opacity="0.86"/>
<path d="M634.598 268.094C634.598 270.112 633.487 271.98 631.607 273.362C629.727 274.744 627.107 275.614 624.19 275.614C621.274 275.614 618.653 274.744 616.774 273.362C614.894 271.98 613.783 270.112 613.783 268.094C613.783 266.077 614.894 264.208 616.774 262.826C618.653 261.444 621.274 260.574 624.19 260.574C627.107 260.574 629.727 261.444 631.607 262.826C633.487 264.208 634.598 266.077 634.598 268.094Z" stroke="white"/>
</g>
<g filter="url(#filter11_d)">
<ellipse cx="192.756" cy="197.598" rx="10.9073" ry="8.02004" fill="white" fill-opacity="0.86"/>
<path d="M203.163 197.598C203.163 199.616 202.052 201.484 200.172 202.866C198.293 204.248 195.672 205.118 192.756 205.118C189.839 205.118 187.219 204.248 185.339 202.866C183.46 201.484 182.349 199.616 182.349 197.598C182.349 195.58 183.46 193.712 185.339 192.33C187.219 190.948 189.839 190.078 192.756 190.078C195.672 190.078 198.293 190.948 200.172 192.33C202.052 193.712 203.163 195.58 203.163 197.598Z" stroke="white"/>
</g>
<path d="M622.232 263.621L629.02 269.661L620.261 270.541L622.232 263.621Z" fill="url(#paint17_linear)"/>
<path opacity="0.9" d="M190.8 193.123L197.589 199.163L188.83 200.043L190.8 193.123Z" fill="url(#paint18_linear)"/>
<g filter="url(#filter12_d)">
<ellipse cx="228.056" cy="176.869" rx="15.8484" ry="27.2939" transform="rotate(83.5176 228.056 176.869)" fill="white" fill-opacity="0.63"/>
<path d="M229.788 192.119C222.371 192.962 215.482 191.975 210.345 189.724C205.194 187.468 201.898 183.991 201.433 179.894C200.967 175.796 203.399 171.669 207.912 168.314C212.414 164.968 218.906 162.461 226.323 161.618C233.74 160.776 240.629 161.762 245.766 164.013C250.917 166.269 254.213 169.746 254.678 173.844C255.144 177.941 252.712 182.069 248.199 185.423C243.698 188.769 237.205 191.276 229.788 192.119Z" stroke="white"/>
</g>
<g filter="url(#filter13_f)">
<path d="M219.601 190.025L211.916 185.771C209.201 184.269 209.156 180.382 211.835 178.818L230.182 168.101C231.423 167.376 232.957 167.373 234.201 168.092L241.956 172.573C244.631 174.119 244.619 177.984 241.934 179.512L223.518 190.001C222.306 190.691 220.822 190.7 219.601 190.025Z" fill="#C4C4C4"/>
</g>
<path d="M247.271 173.808V171.69V169.573L221.095 185.067V189.013L247.271 173.808Z" fill="#333333"/>
<path d="M225.137 168.609L247.271 157.734V172.266L220.421 187.664L225.137 168.609Z" fill="#FC153B"/>
<path d="M247.271 157.094V169.285L218.881 186.319L207.236 179.293L210.508 173.684C212.477 165.949 217.488 159.338 224.404 155.352L229.145 152.62C231.663 151.168 234.7 150.927 237.416 151.961L245.982 155.225C246.758 155.52 247.271 156.264 247.271 157.094Z" fill="#FC153B"/>
<path d="M215.176 165.168L223.879 169.83C224.338 170.076 224.576 170.599 224.459 171.107L223.394 175.737C223.226 176.469 222.416 176.848 221.747 176.509L212.877 172.013C212.394 171.768 212.145 171.221 212.28 170.696L213.512 165.899C213.698 165.173 214.515 164.814 215.176 165.168Z" fill="url(#paint19_linear)"/>
<path d="M245.636 164.375V158.505L231.874 166.396V172.94L245.636 164.375Z" fill="url(#paint20_linear)"/>
<path d="M230.814 173.23V167.167C230.077 167.648 228.364 168.538 227.35 169.958C225.906 171.979 225.746 174.77 225.521 176.502L230.814 173.23Z" fill="url(#paint21_linear)"/>
<path d="M228.023 174.967C228.023 174.967 227.446 175.159 226.676 174.678C225.906 174.197 226.26 172.376 226.002 173.235C225.714 174.197 225.636 175.71 225.521 176.603L228.023 174.967Z" fill="#333333"/>
<path d="M211.453 177.365L217.438 180.868L216.571 182.283C216.185 182.913 215.365 183.115 214.731 182.736L211.087 180.56C210.441 180.174 210.236 179.335 210.631 178.695L211.453 177.365Z" fill="#333333"/>
<path d="M212.463 179.715L214.34 180.721C214.14 181.023 213.743 181.123 213.423 180.952L212.606 180.514C212.312 180.356 212.242 179.965 212.463 179.715Z" fill="white"/>
<path d="M209.561 175.254L210.7 176.64L210.13 177.949C209.805 177.692 209.121 177.04 208.991 176.486C208.861 175.931 209.316 175.434 209.561 175.254Z" fill="white"/>
<path d="M221.546 181.416L219.124 181.051L217.653 182.473C218.159 182.664 219.371 182.994 220.178 182.79C220.985 182.587 221.426 181.79 221.546 181.416Z" fill="white"/>
<path d="M207.333 178.139C207.564 177.754 207.943 177.787 208.103 177.851C208.103 178.806 208.604 179.692 209.422 180.184L216.057 184.177C217.817 185.236 219.498 183.181 221.48 183.721C222.538 184.01 221.672 187.282 221.48 188.918C220.536 189.508 219.34 189.514 218.39 188.934L209.408 183.449C208.104 182.652 207.233 181.281 207.208 179.753C207.196 178.984 207.223 178.323 207.333 178.139Z" fill="#333333"/>
<path d="M247.271 168.805L221.769 183.914L221.191 186.416L247.271 171.403V168.805Z" fill="#333333"/>
<path opacity="0.3" d="M241.786 154.755L227.613 163.311C225.811 164.4 224.248 165.843 223.02 167.554V167.554" stroke="#FDFEFD" stroke-width="1.5"/>
<path opacity="0.3" d="M239.188 153.12L225.015 161.677C223.212 162.765 221.649 164.209 220.421 165.92V165.92" stroke="#FDFEFD" stroke-width="1.5"/>
<path opacity="0.3" d="M236.301 151.579L222.128 160.136C220.325 161.224 218.762 162.668 217.535 164.379V164.379" stroke="#FDFEFD" stroke-width="1.5"/>
<path d="M231.484 187.173C230.106 189.195 228.017 189.087 226.933 188.47C225.373 187.582 225.569 186.106 226.072 184.078C226.657 181.72 227.96 180.337 228.987 179.932C230.015 179.526 231.91 180.092 232.344 181.351C232.777 182.609 233.044 184.886 231.484 187.173Z" fill="#414141"/>
<path d="M231.172 185.928C230.544 187.108 229.691 187.249 229.25 187.091C228.769 186.92 228.754 185.815 229.068 184.706C229.432 183.416 230.025 182.605 230.454 182.331C230.882 182.056 231.599 182.251 231.699 182.898C231.8 183.544 231.871 184.615 231.172 185.928Z" fill="white"/>
<path d="M243.889 180.024C242.51 182.045 240.421 181.938 239.337 181.32C237.778 180.432 237.973 178.957 238.476 176.929C239.061 174.571 240.364 173.188 241.392 172.782C242.42 172.377 244.314 172.943 244.748 174.201C245.182 175.46 245.448 177.737 243.889 180.024Z" fill="#414141"/>
<path d="M243.578 178.78C242.949 179.96 242.096 180.101 241.656 179.944C241.175 179.772 241.16 178.668 241.473 177.558C241.837 176.268 242.43 175.458 242.859 175.183C243.288 174.909 244.004 175.104 244.105 175.75C244.205 176.397 244.276 177.468 243.578 178.78Z" fill="white"/>
<path d="M216.572 162.934L220.71 155.427C220.806 155.331 220.838 155.459 220.806 155.523C219.4 158.372 218.39 160.126 216.957 163.03L216.949 163.038C216.825 163.162 216.614 163.103 216.572 162.934Z" fill="#333333"/>
<path d="M227.446 174.001V172.461C227.446 171.876 227.92 171.402 228.505 171.402C229.09 171.402 229.563 171.876 229.563 172.461V174.001C229.563 174.585 229.09 175.059 228.505 175.059C227.92 175.059 227.446 174.585 227.446 174.001Z" fill="#333333"/>
<path fill-rule="evenodd" clip-rule="evenodd" d="M227.503 174.56C227.946 174.122 228.369 173.629 228.625 173.306L228.193 172.964C227.948 173.273 227.54 173.749 227.115 174.167C226.903 174.377 226.691 174.568 226.496 174.715C226.296 174.867 226.136 174.956 226.026 174.987L226.173 175.518C226.386 175.459 226.614 175.318 226.829 175.155C227.05 174.987 227.281 174.779 227.503 174.56Z" fill="#333333"/>
<path opacity="0.3" d="M269.324 278.371L80.6533 399.527" stroke="#E4E8FB" stroke-width="2"/>
<path opacity="0.3" d="M208.284 319.99L140.77 265.424" stroke="#E4E8FB" stroke-width="2"/>
</g>
</g>
<defs>
<filter id="filter0_d" x="205.472" y="309.907" width="94.4785" height="86.4198" filterUnits="userSpaceOnUse" color-interpolation-filters="sRGB">
<feFlood flood-opacity="0" result="BackgroundImageFix"/>
<feColorMatrix in="SourceAlpha" type="matrix" values="0 0 0 0 0 0 0 0 0 0 0 0 0 0 0 0 0 0 127 0"/>
<feOffset dy="2"/>
<feGaussianBlur stdDeviation="6"/>
<feColorMatrix type="matrix" values="0 0 0 0 0.855556 0 0 0 0 0.871111 0 0 0 0 0.933333 0 0 0 1 0"/>
<feBlend mode="normal" in2="BackgroundImageFix" result="effect1_dropShadow"/>
<feBlend mode="normal" in="SourceGraphic" in2="effect1_dropShadow" result="shape"/>
</filter>
<filter id="filter1_d" x="607.401" y="300.417" width="53.25" height="43.0509" filterUnits="userSpaceOnUse" color-interpolation-filters="sRGB">
<feFlood flood-opacity="0" result="BackgroundImageFix"/>
<feColorMatrix in="SourceAlpha" type="matrix" values="0 0 0 0 0 0 0 0 0 0 0 0 0 0 0 0 0 0 127 0"/>
<feOffset dy="2"/>
<feGaussianBlur stdDeviation="6"/>
<feColorMatrix type="matrix" values="0 0 0 0 0.855556 0 0 0 0 0.871111 0 0 0 0 0.933333 0 0 0 1 0"/>
<feBlend mode="normal" in2="BackgroundImageFix" result="effect1_dropShadow"/>
<feBlend mode="normal" in="SourceGraphic" in2="effect1_dropShadow" result="shape"/>
</filter>
<filter id="filter2_d" x="598.229" y="297.559" width="73.5092" height="53.234" filterUnits="userSpaceOnUse" color-interpolation-filters="sRGB">
<feFlood flood-opacity="0" result="BackgroundImageFix"/>
<feColorMatrix in="SourceAlpha" type="matrix" values="0 0 0 0 0 0 0 0 0 0 0 0 0 0 0 0 0 0 127 0"/>
<feOffset dy="2"/>
<feGaussianBlur stdDeviation="6"/>
<feColorMatrix type="matrix" values="0 0 0 0 0.855556 0 0 0 0 0.871111 0 0 0 0 0.933333 0 0 0 1 0"/>
<feBlend mode="normal" in2="BackgroundImageFix" result="effect1_dropShadow"/>
<feBlend mode="normal" in="SourceGraphic" in2="effect1_dropShadow" result="shape"/>
</filter>
<filter id="filter3_d" x="604.895" y="300.97" width="58.6223" height="43.8058" filterUnits="userSpaceOnUse" color-interpolation-filters="sRGB">
<feFlood flood-opacity="0" result="BackgroundImageFix"/>
<feColorMatrix in="SourceAlpha" type="matrix" values="0 0 0 0 0 0 0 0 0 0 0 0 0 0 0 0 0 0 127 0"/>
<feOffset dy="2"/>
<feGaussianBlur stdDeviation="6"/>
<feColorMatrix type="matrix" values="0 0 0 0 0.855556 0 0 0 0 0.871111 0 0 0 0 0.933333 0 0 0 1 0"/>
<feBlend mode="normal" in2="BackgroundImageFix" result="effect1_dropShadow"/>
<feBlend mode="normal" in="SourceGraphic" in2="effect1_dropShadow" result="shape"/>
</filter>
<filter id="filter4_f" x="221.427" y="332.682" width="61.531" height="45.5151" filterUnits="userSpaceOnUse" color-interpolation-filters="sRGB">
<feFlood flood-opacity="0" result="BackgroundImageFix"/>
<feBlend mode="normal" in="SourceGraphic" in2="BackgroundImageFix" result="shape"/>
<feGaussianBlur stdDeviation="4" result="effect1_foregroundBlur"/>
</filter>
<filter id="filter5_d" x="616.932" y="216.899" width="87.0971" height="61.2573" filterUnits="userSpaceOnUse" color-interpolation-filters="sRGB">
<feFlood flood-opacity="0" result="BackgroundImageFix"/>
<feColorMatrix in="SourceAlpha" type="matrix" values="0 0 0 0 0 0 0 0 0 0 0 0 0 0 0 0 0 0 127 0"/>
<feOffset dy="2"/>
<feGaussianBlur stdDeviation="6"/>
<feColorMatrix type="matrix" values="0 0 0 0 0.855556 0 0 0 0 0.871111 0 0 0 0 0.933333 0 0 0 1 0"/>
<feBlend mode="normal" in2="BackgroundImageFix" result="effect1_dropShadow"/>
<feBlend mode="normal" in="SourceGraphic" in2="effect1_dropShadow" result="shape"/>
</filter>
<filter id="filter6_f" x="630.691" y="226.609" width="56.8911" height="42.858" filterUnits="userSpaceOnUse" color-interpolation-filters="sRGB">
<feFlood flood-opacity="0" result="BackgroundImageFix"/>
<feBlend mode="normal" in="SourceGraphic" in2="BackgroundImageFix" result="shape"/>
<feGaussianBlur stdDeviation="4" result="effect1_foregroundBlur"/>
</filter>
<filter id="filter7_d" x="419.076" y="196.37" width="48.9603" height="45.5027" filterUnits="userSpaceOnUse" color-interpolation-filters="sRGB">
<feFlood flood-opacity="0" result="BackgroundImageFix"/>
<feColorMatrix in="SourceAlpha" type="matrix" values="0 0 0 0 0 0 0 0 0 0 0 0 0 0 0 0 0 0 127 0"/>
<feOffset dy="2"/>
<feGaussianBlur stdDeviation="6"/>
<feColorMatrix type="matrix" values="0 0 0 0 0.855556 0 0 0 0 0.871111 0 0 0 0 0.933333 0 0 0 1 0"/>
<feBlend mode="normal" in2="BackgroundImageFix" result="effect1_dropShadow"/>
<feBlend mode="normal" in="SourceGraphic" in2="effect1_dropShadow" result="shape"/>
</filter>
<filter id="filter8_d" x="410.128" y="194.784" width="71.1453" height="51.8382" filterUnits="userSpaceOnUse" color-interpolation-filters="sRGB">
<feFlood flood-opacity="0" result="BackgroundImageFix"/>
<feColorMatrix in="SourceAlpha" type="matrix" values="0 0 0 0 0 0 0 0 0 0 0 0 0 0 0 0 0 0 127 0"/>
<feOffset dy="2"/>
<feGaussianBlur stdDeviation="6"/>
<feColorMatrix type="matrix" values="0 0 0 0 0.855556 0 0 0 0 0.871111 0 0 0 0 0.933333 0 0 0 1 0"/>
<feBlend mode="normal" in2="BackgroundImageFix" result="effect1_dropShadow"/>
<feBlend mode="normal" in="SourceGraphic" in2="effect1_dropShadow" result="shape"/>
</filter>
<filter id="filter9_d" x="416.475" y="198.029" width="56.9691" height="42.8601" filterUnits="userSpaceOnUse" color-interpolation-filters="sRGB">
<feFlood flood-opacity="0" result="BackgroundImageFix"/>
<feColorMatrix in="SourceAlpha" type="matrix" values="0 0 0 0 0 0 0 0 0 0 0 0 0 0 0 0 0 0 127 0"/>
<feOffset dy="2"/>
<feGaussianBlur stdDeviation="6"/>
<feColorMatrix type="matrix" values="0 0 0 0 0.855556 0 0 0 0 0.871111 0 0 0 0 0.933333 0 0 0 1 0"/>
<feBlend mode="normal" in2="BackgroundImageFix" result="effect1_dropShadow"/>
<feBlend mode="normal" in="SourceGraphic" in2="effect1_dropShadow" result="shape"/>
</filter>
<filter id="filter10_d" x="601.283" y="250.074" width="45.8145" height="40.0401" filterUnits="userSpaceOnUse" color-interpolation-filters="sRGB">
<feFlood flood-opacity="0" result="BackgroundImageFix"/>
<feColorMatrix in="SourceAlpha" type="matrix" values="0 0 0 0 0 0 0 0 0 0 0 0 0 0 0 0 0 0 127 0"/>
<feOffset dy="2"/>
<feGaussianBlur stdDeviation="6"/>
<feColorMatrix type="matrix" values="0 0 0 0 0.855556 0 0 0 0 0.871111 0 0 0 0 0.933333 0 0 0 1 0"/>
<feBlend mode="normal" in2="BackgroundImageFix" result="effect1_dropShadow"/>
<feBlend mode="normal" in="SourceGraphic" in2="effect1_dropShadow" result="shape"/>
</filter>
<filter id="filter11_d" x="169.849" y="179.578" width="45.8145" height="40.0401" filterUnits="userSpaceOnUse" color-interpolation-filters="sRGB">
<feFlood flood-opacity="0" result="BackgroundImageFix"/>
<feColorMatrix in="SourceAlpha" type="matrix" values="0 0 0 0 0 0 0 0 0 0 0 0 0 0 0 0 0 0 127 0"/>
<feOffset dy="2"/>
<feGaussianBlur stdDeviation="6"/>
<feColorMatrix type="matrix" values="0 0 0 0 0.855556 0 0 0 0 0.871111 0 0 0 0 0.933333 0 0 0 1 0"/>
<feBlend mode="normal" in2="BackgroundImageFix" result="effect1_dropShadow"/>
<feBlend mode="normal" in="SourceGraphic" in2="effect1_dropShadow" result="shape"/>
</filter>
<filter id="filter12_d" x="188.876" y="150.819" width="78.3588" height="56.0976" filterUnits="userSpaceOnUse" color-interpolation-filters="sRGB">
<feFlood flood-opacity="0" result="BackgroundImageFix"/>
<feColorMatrix in="SourceAlpha" type="matrix" values="0 0 0 0 0 0 0 0 0 0 0 0 0 0 0 0 0 0 127 0"/>
<feOffset dy="2"/>
<feGaussianBlur stdDeviation="6"/>
<feColorMatrix type="matrix" values="0 0 0 0 0.855556 0 0 0 0 0.871111 0 0 0 0 0.933333 0 0 0 1 0"/>
<feBlend mode="normal" in2="BackgroundImageFix" result="effect1_dropShadow"/>
<feBlend mode="normal" in="SourceGraphic" in2="effect1_dropShadow" result="shape"/>
</filter>
<filter id="filter13_f" x="201.853" y="159.555" width="50.1023" height="38.9704" filterUnits="userSpaceOnUse" color-interpolation-filters="sRGB">
<feFlood flood-opacity="0" result="BackgroundImageFix"/>
<feBlend mode="normal" in="SourceGraphic" in2="BackgroundImageFix" result="shape"/>
<feGaussianBlur stdDeviation="4" result="effect1_foregroundBlur"/>
</filter>
<linearGradient id="paint0_linear" x1="511.253" y1="66.5684" x2="511.253" y2="525.956" gradientUnits="userSpaceOnUse">
<stop stop-color="#3FA4FF"/>
<stop offset="1" stop-color="#BFBBFA"/>
</linearGradient>
<linearGradient id="paint1_linear" x1="312.18" y1="308.91" x2="594.274" y2="88.6619" gradientUnits="userSpaceOnUse">
<stop stop-color="#FE3263"/>
<stop offset="1" stop-color="#BFBBFA"/>
</linearGradient>
<linearGradient id="paint2_linear" x1="300.799" y1="338.142" x2="300.799" y2="537.177" gradientUnits="userSpaceOnUse">
<stop stop-color="#FF3364"/>
<stop offset="1" stop-color="#D3A9E9"/>
</linearGradient>
<linearGradient id="paint3_linear" x1="263.033" y1="337.645" x2="263.033" y2="352.388" gradientUnits="userSpaceOnUse">
<stop stop-color="white"/>
<stop offset="1" stop-color="white" stop-opacity="0.8"/>
</linearGradient>
<linearGradient id="paint4_linear" x1="237.126" y1="329.358" x2="237.126" y2="347.7" gradientUnits="userSpaceOnUse">
<stop stop-color="white"/>
<stop offset="1" stop-color="white" stop-opacity="0.8"/>
</linearGradient>
<linearGradient id="paint5_linear" x1="250.579" y1="340.362" x2="250.579" y2="352.223" gradientUnits="userSpaceOnUse">
<stop stop-color="white"/>
<stop offset="1" stop-color="white" stop-opacity="0.8"/>
</linearGradient>
<linearGradient id="paint6_linear" x1="649.23" y1="231.782" x2="649.23" y2="245.251" gradientUnits="userSpaceOnUse">
<stop stop-color="white"/>
<stop offset="1" stop-color="white" stop-opacity="0.8"/>
</linearGradient>
<linearGradient id="paint7_linear" x1="672.898" y1="224.211" x2="672.898" y2="240.967" gradientUnits="userSpaceOnUse">
<stop stop-color="white"/>
<stop offset="1" stop-color="white" stop-opacity="0.8"/>
</linearGradient>
<linearGradient id="paint8_linear" x1="660.607" y1="234.264" x2="660.607" y2="245.099" gradientUnits="userSpaceOnUse">
<stop stop-color="white"/>
<stop offset="1" stop-color="white" stop-opacity="0.8"/>
</linearGradient>
<linearGradient id="paint9_linear" x1="167.334" y1="360.702" x2="425.499" y2="91.808" gradientUnits="userSpaceOnUse">
<stop stop-color="#F6D248"/>
<stop offset="1" stop-color="#71E1B2"/>
</linearGradient>
<linearGradient id="paint10_linear" x1="79.3483" y1="-6.31394" x2="38.5384" y2="-34.5282" gradientUnits="userSpaceOnUse">
<stop stop-color="#F2CDFF"/>
<stop offset="1" stop-color="#839BFC"/>
</linearGradient>
<linearGradient id="paint11_linear" x1="732.05" y1="87.1641" x2="732.05" y2="268.88" gradientUnits="userSpaceOnUse">
<stop stop-color="#F2CDFF"/>
<stop offset="1" stop-color="#839BFC"/>
</linearGradient>
<linearGradient id="paint12_linear" x1="666.215" y1="165.554" x2="665.446" y2="208.942" gradientUnits="userSpaceOnUse">
<stop stop-color="#F0565B"/>
<stop offset="1" stop-color="#E22CA4"/>
</linearGradient>
<linearGradient id="paint13_linear" x1="681.585" y1="192.45" x2="681.25" y2="203.028" gradientUnits="userSpaceOnUse">
<stop stop-color="#5B5BD8"/>
<stop offset="1" stop-color="#9875E2"/>
</linearGradient>
<linearGradient id="paint14_linear" x1="105.208" y1="-8.37162" x2="51.0979" y2="-45.7808" gradientUnits="userSpaceOnUse">
<stop stop-color="#F2CDFF"/>
<stop offset="1" stop-color="#839BFC"/>
</linearGradient>
<linearGradient id="paint15_linear" x1="88.5109" y1="-7.04303" x2="42.9885" y2="-38.5153" gradientUnits="userSpaceOnUse">
<stop stop-color="#F2CDFF"/>
<stop offset="1" stop-color="#839BFC"/>
</linearGradient>
<linearGradient id="paint16_linear" x1="72.5047" y1="-5.76938" x2="35.2145" y2="-31.5503" gradientUnits="userSpaceOnUse">
<stop stop-color="#F2CDFF"/>
<stop offset="1" stop-color="#839BFC"/>
</linearGradient>
<linearGradient id="paint17_linear" x1="627.049" y1="263.983" x2="620.95" y2="266.572" gradientUnits="userSpaceOnUse">
<stop stop-color="#FE3263"/>
<stop offset="1" stop-color="#BFBBFA"/>
</linearGradient>
<linearGradient id="paint18_linear" x1="194.778" y1="193.748" x2="189.386" y2="197.878" gradientUnits="userSpaceOnUse">
<stop stop-color="#F6D248"/>
<stop offset="1" stop-color="#71E1B2"/>
</linearGradient>
<linearGradient id="paint19_linear" x1="218.366" y1="165.03" x2="218.366" y2="176.634" gradientUnits="userSpaceOnUse">
<stop stop-color="white"/>
<stop offset="1" stop-color="white" stop-opacity="0.8"/>
</linearGradient>
<linearGradient id="paint20_linear" x1="238.755" y1="158.505" x2="238.755" y2="172.94" gradientUnits="userSpaceOnUse">
<stop stop-color="white"/>
<stop offset="1" stop-color="white" stop-opacity="0.8"/>
</linearGradient>
<linearGradient id="paint21_linear" x1="228.168" y1="167.167" x2="228.168" y2="176.502" gradientUnits="userSpaceOnUse">
<stop stop-color="white"/>
<stop offset="1" stop-color="white" stop-opacity="0.8"/>
</linearGradient>
<clipPath id="clip0">
<rect width="836" height="346" fill="white"/>
</clipPath>
</defs>
</svg>
