<svg width="10" height="16" viewBox="0 0 10 16" fill="none" xmlns="http://www.w3.org/2000/svg">
<path d="M5.28221 3.66858L7.40096 5.79108C7.43611 5.82594 7.46401 5.86741 7.48304 5.91311C7.50208 5.95881 7.51188 6.00782 7.51188 6.05733C7.51188 6.10683 7.50208 6.15585 7.48304 6.20154C7.46401 6.24724 7.43611 6.28872 7.40096 6.32358C7.3307 6.39342 7.23565 6.43262 7.13659 6.43262C7.03752 6.43262 6.94247 6.39342 6.87221 6.32358L4.99721 4.46733L3.14096 6.32358C3.0707 6.39342 2.97565 6.43262 2.87658 6.43262C2.77752 6.43262 2.68247 6.39342 2.61221 6.32358C2.57678 6.28885 2.54859 6.24743 2.52928 6.20173C2.50997 6.15602 2.49992 6.10694 2.49971 6.05733C2.49992 6.00771 2.50997 5.95863 2.52928 5.91293C2.54859 5.86722 2.57678 5.82581 2.61221 5.79108L4.73096 3.66858C4.76608 3.63051 4.8087 3.60013 4.85613 3.57936C4.90357 3.55858 4.9548 3.54785 5.00659 3.54785C5.05837 3.54785 5.1096 3.55858 5.15704 3.57936C5.20448 3.60013 5.24709 3.63051 5.28221 3.66858Z" fill="#576075"/>
<path d="M4.71774 12.3314L2.59899 10.2089C2.56384 10.1741 2.53595 10.1326 2.51691 10.0869C2.49787 10.0412 2.48807 9.99218 2.48807 9.94268C2.48807 9.89318 2.49787 9.84416 2.51691 9.79846C2.53595 9.75277 2.56384 9.71129 2.59899 9.67643C2.66925 9.60659 2.7643 9.56738 2.86337 9.56738C2.96244 9.56738 3.05748 9.60659 3.12774 9.67643L5.00274 11.5327L6.85899 9.67643C6.92925 9.60659 7.0243 9.56738 7.12337 9.56738C7.22244 9.56738 7.31748 9.60659 7.38774 9.67643C7.42317 9.71116 7.45136 9.75258 7.47067 9.79828C7.48999 9.84398 7.50004 9.89307 7.50024 9.94268C7.50004 9.9923 7.48999 10.0414 7.47067 10.0871C7.45136 10.1328 7.42317 10.1742 7.38774 10.2089L5.26899 12.3314C5.23388 12.3695 5.19126 12.3999 5.14382 12.4207C5.09638 12.4414 5.04515 12.4522 4.99337 12.4522C4.94158 12.4522 4.89035 12.4414 4.84291 12.4207C4.79548 12.3999 4.75286 12.3695 4.71774 12.3314Z" fill="#576075"/>
</svg>
