<svg width="12" height="14" viewBox="0 0 12 14" fill="none" xmlns="http://www.w3.org/2000/svg">
<path d="M10.2 4.72699L10.8066 4.12699C10.9322 4.00146 11.0027 3.83119 11.0027 3.65366C11.0027 3.47612 10.9322 3.30586 10.8066 3.18033C10.6811 3.05479 10.5108 2.98426 10.3333 2.98426C10.1558 2.98426 9.98551 3.05479 9.85998 3.18033L9.25998 3.78699C8.32568 3.06423 7.17787 2.67208 5.99664 2.67208C4.81541 2.67208 3.66761 3.06423 2.73331 3.78699L2.12664 3.17366C2.00022 3.04812 1.82911 2.97795 1.65095 2.97857C1.47279 2.9792 1.30218 3.05057 1.17664 3.17699C1.05111 3.30341 0.980934 3.47452 0.981559 3.65268C0.982184 3.83084 1.05356 4.00146 1.17998 4.12699L1.79331 4.73366C1.06199 5.66536 0.665171 6.81589 0.666643 8.00033C0.664466 8.85061 0.865619 9.68909 1.25333 10.4458C1.64103 11.2026 2.20405 11.8557 2.89544 12.3506C3.58682 12.8456 4.38652 13.168 5.22785 13.2911C6.06918 13.4142 6.92774 13.3344 7.73194 13.0583C8.53614 12.7821 9.26267 12.3177 9.85093 11.7038C10.4392 11.0898 10.8721 10.3441 11.1136 9.52884C11.3551 8.71358 11.3982 7.85239 11.2393 7.01709C11.0804 6.18179 10.724 5.39659 10.2 4.72699ZM5.99998 12.0003C5.20885 12.0003 4.43549 11.7657 3.7777 11.3262C3.1199 10.8867 2.60721 10.262 2.30446 9.53106C2.00171 8.80015 1.92249 7.99589 2.07684 7.21996C2.23118 6.44404 2.61214 5.73131 3.17155 5.1719C3.73096 4.61249 4.44369 4.23152 5.21962 4.07718C5.99554 3.92284 6.79981 4.00206 7.53071 4.30481C8.26162 4.60756 8.88633 5.12025 9.32586 5.77804C9.76538 6.43584 9.99998 7.2092 9.99998 8.00033C9.99998 9.06119 9.57855 10.0786 8.82841 10.8288C8.07826 11.5789 7.06084 12.0003 5.99998 12.0003ZM4.66664 2.00033H7.33331C7.51012 2.00033 7.67969 1.93009 7.80472 1.80506C7.92974 1.68004 7.99998 1.51047 7.99998 1.33366C7.99998 1.15685 7.92974 0.987279 7.80472 0.862254C7.67969 0.73723 7.51012 0.666992 7.33331 0.666992H4.66664C4.48983 0.666992 4.32026 0.73723 4.19524 0.862254C4.07021 0.987279 3.99998 1.15685 3.99998 1.33366C3.99998 1.51047 4.07021 1.68004 4.19524 1.80506C4.32026 1.93009 4.48983 2.00033 4.66664 2.00033ZM6.66664 6.00033C6.66664 5.82351 6.59641 5.65394 6.47138 5.52892C6.34636 5.4039 6.17679 5.33366 5.99998 5.33366C5.82317 5.33366 5.6536 5.4039 5.52857 5.52892C5.40355 5.65394 5.33331 5.82351 5.33331 6.00033V7.26033C5.18236 7.39534 5.07596 7.57301 5.02819 7.76982C4.98042 7.96663 4.99354 8.17331 5.0658 8.3625C5.13807 8.5517 5.26608 8.71449 5.43289 8.82934C5.5997 8.94419 5.79745 9.00568 5.99998 9.00568C6.2025 9.00568 6.40025 8.94419 6.56707 8.82934C6.73388 8.71449 6.86188 8.5517 6.93415 8.3625C7.00641 8.17331 7.01953 7.96663 6.97176 7.76982C6.924 7.57301 6.8176 7.39534 6.66664 7.26033V6.00033Z" fill="#6D7892"/>
</svg>
