<svg width="392" height="308" viewBox="0 0 392 308" fill="none" xmlns="http://www.w3.org/2000/svg">
<g clip-path="url(#clip0)">
<path d="M308.959 118.091H387.277C388.92 118.091 390.289 116.722 390.289 115.08C390.289 113.439 388.92 112.07 387.277 112.07H308.959C307.316 112.07 305.947 113.439 305.947 115.08C305.947 116.722 307.247 118.091 308.959 118.091Z" fill="#F8AEB1"/>
<path d="M164.577 37.2274H215.579C217.291 37.2274 218.66 35.8591 218.66 34.1489C218.66 32.4386 217.291 31.0703 215.579 31.0703H164.577C162.865 31.0703 161.496 32.4386 161.496 34.1489C161.496 35.7907 162.865 37.2274 164.577 37.2274Z" fill="#F8AEB1"/>
<path d="M352.43 157.976H361.398C363.794 157.976 365.711 156.06 365.711 153.666V145.251C365.711 142.857 363.794 140.941 361.398 140.941H352.361C349.965 140.941 348.048 142.857 348.048 145.251V153.666C348.117 156.06 350.034 157.976 352.43 157.976Z" fill="#6A61E7"/>
<path d="M90.4347 308.001H95.3638C96.6645 308.001 97.6914 306.975 97.6914 305.675V301.092C97.6914 299.792 96.6645 298.766 95.3638 298.766H90.4347C89.1339 298.766 88.107 299.792 88.107 301.092V305.675C88.107 306.975 89.1339 308.001 90.4347 308.001Z" fill="#F8AEB1"/>
<path d="M2.32917 111.179H7.25829C8.55902 111.179 9.58594 110.153 9.58594 108.853V104.201C9.58594 102.901 8.55902 101.875 7.25829 101.875H2.32917C1.02843 101.875 0.0015564 102.901 0.0015564 104.201V108.785C0.0015564 110.153 1.02843 111.179 2.32917 111.179Z" fill="#6A61E7"/>
<path d="M259.464 307.045H288.422C290.544 307.045 292.324 305.335 292.324 303.146C292.324 301.025 290.613 299.246 288.422 299.246H259.464C257.341 299.246 255.561 300.956 255.561 303.146C255.63 305.266 257.341 307.045 259.464 307.045Z" fill="#F8AEB1"/>
<path d="M73.4594 279.473H306.907C309.577 279.473 311.836 277.284 311.836 274.548V80.2577C311.836 77.5896 309.645 75.332 306.907 75.332H73.4594C70.7894 75.332 68.5302 77.5212 68.5302 80.2577V274.548C68.5302 277.284 70.7894 279.473 73.4594 279.473Z" fill="#FBD2D4"/>
<path d="M207.774 218H246.317C252.782 218 258.004 212.51 258.004 205.712V171.288C258.004 164.49 252.782 159 246.317 159H207.691C201.226 159 196.004 164.49 196.004 171.288V205.712C196.004 212.51 201.309 218 207.774 218Z" fill="#F8AEB1"/>
<path d="M311.836 99.9609H68.5302" stroke="#FFF7CC" stroke-width="1.9411" stroke-miterlimit="10"/>
<path d="M73.4594 279.473H306.907C309.577 279.473 311.836 277.284 311.836 274.548V80.2577C311.836 77.5896 309.645 75.332 306.907 75.332H73.4594C70.7894 75.332 68.5302 77.5212 68.5302 80.2577V274.548C68.5302 277.284 70.7894 279.473 73.4594 279.473Z" stroke="#FFF7CC" stroke-width="1.9411" stroke-miterlimit="10"/>
<path d="M291.229 91.3412C289.339 91.3412 287.806 89.8097 287.806 87.9206C287.806 86.0315 289.339 84.5 291.229 84.5C293.12 84.5 294.652 86.0315 294.652 87.9206C294.652 89.8097 293.12 91.3412 291.229 91.3412Z" stroke="#FFF7CC" stroke-width="1.9411" stroke-miterlimit="10"/>
<path d="M277.948 91.3412C276.058 91.3412 274.525 89.8097 274.525 87.9206C274.525 86.0315 276.058 84.5 277.948 84.5C279.839 84.5 281.371 86.0315 281.371 87.9206C281.371 89.8097 279.839 91.3412 277.948 91.3412Z" stroke="#FFF7CC" stroke-width="1.9411" stroke-miterlimit="10"/>
<path d="M264.6 91.3412C262.71 91.3412 261.177 89.8097 261.177 87.9206C261.177 86.0315 262.71 84.5 264.6 84.5C266.491 84.5 268.023 86.0315 268.023 87.9206C268.023 89.8097 266.491 91.3412 264.6 91.3412Z" stroke="#FFF7CC" stroke-width="1.9411" stroke-miterlimit="10"/>
<path d="M219 103.5C219 101.5 222.667 99 224.5 98V103C222.667 104 219 105.5 219 103.5Z" stroke="black"/>
<path d="M301.72 261.315H333.554C338.894 261.315 343.207 257.005 343.207 251.669V224.646C343.207 219.31 338.894 215 333.554 215H301.652C296.312 215 291.999 219.31 291.999 224.646V251.669C291.999 257.005 296.381 261.315 301.72 261.315Z" fill="#6A61E7"/>
<path d="M317.672 248.181C323.628 248.181 328.488 243.323 328.488 237.372C328.488 231.42 323.628 226.562 317.672 226.562C311.716 226.562 306.855 231.42 306.855 237.372C306.787 243.255 311.647 248.181 317.672 248.181ZM317.672 229.709C321.848 229.709 325.271 233.13 325.271 237.303C325.271 241.476 321.848 244.897 317.672 244.897C313.496 244.897 310.073 241.476 310.073 237.303C310.073 233.13 313.427 229.709 317.672 229.709Z" fill="#FFF7CC"/>
<path d="M311.236 229.711L323.695 244.898" stroke="#FFF7CC" stroke-width="4.522" stroke-miterlimit="10"/>
<path d="M101.448 207.701L101.927 200.859L144.715 202.98V209.616C144.715 209.616 154.368 218.783 158.133 279.67H81.1842C81.1842 279.602 72.6952 225.693 101.448 207.701Z" fill="#6A61E7"/>
<path d="M144.785 209.546L101.45 207.699" stroke="black" stroke-width="1.5516" stroke-miterlimit="10"/>
<path d="M135.953 237.594L127.053 241.22L122.33 279.599" stroke="black" stroke-width="1.5516" stroke-miterlimit="10"/>
<path d="M195.083 157.453L169.915 132.854L154.258 151.017L179.21 174.117C184.339 178.916 192.531 177.992 196.49 172.18C199.701 167.587 199.092 161.317 195.083 157.453Z" fill="#F58B8E"/>
<path d="M170.08 129.64C164.468 124.183 155.392 124.473 150.119 130.29C144.991 135.95 145.323 144.689 150.923 149.845L167.665 165.344L185.534 144.615L170.08 129.64Z" fill="#FFF7CC"/>
<path d="M222.5 117.105L197 171.001L182 153.501L208.343 117.105L211.634 110.492L211.59 102.003C213.071 100.506 213.372 99.8011 214.254 98.8614C216 97.001 217.002 94.001 219 94.001C220.5 94.001 218.5 100.001 218.5 100.001C218.5 100.001 223.376 95.5263 226.5 97.001C231.5 99.3614 232 105.494 230 110.492C227.117 117.697 222.5 117.105 222.5 117.105Z" fill="#F58B8E"/>
<path d="M189.285 228.518V234.771C189.285 235.765 188.952 236.554 188.287 237.136C187.627 237.715 186.745 238.004 185.642 238.004C184.526 238.004 183.64 237.719 182.984 237.149C182.328 236.575 182 235.78 182 234.765V228.518H183.687V234.778C183.687 235.403 183.852 235.881 184.183 236.211C184.513 236.541 185 236.706 185.642 236.706C186.946 236.706 187.598 236.046 187.598 234.726V228.518H189.285Z" fill="#FFF7CC"/>
<path d="M192.452 230.922L192.499 231.725C193.034 231.104 193.737 230.793 194.608 230.793C196.117 230.793 196.884 231.622 196.911 233.28V237.875H195.284V233.37C195.284 232.929 195.184 232.603 194.983 232.393C194.786 232.179 194.463 232.072 194.012 232.072C193.356 232.072 192.867 232.357 192.546 232.927V237.875H190.919V230.922H192.452Z" fill="#FFF7CC"/>
<path d="M200.928 234.893L200.205 235.607V237.875H198.578V228.004H200.205V233.698L200.714 233.087L202.716 230.922H204.671L201.98 233.82L204.959 237.875H203.078L200.928 234.893Z" fill="#FFF7CC"/>
<path d="M207.249 230.922L207.296 231.725C207.832 231.104 208.535 230.793 209.405 230.793C210.914 230.793 211.682 231.622 211.708 233.28V237.875H210.081V233.37C210.081 232.929 209.981 232.603 209.78 232.393C209.584 232.179 209.26 232.072 208.809 232.072C208.153 232.072 207.664 232.357 207.343 232.927V237.875H205.716V230.922H207.249Z" fill="#FFF7CC"/>
<path d="M213.068 234.334C213.068 233.653 213.208 233.04 213.489 232.496C213.771 231.948 214.166 231.528 214.675 231.237C215.183 230.941 215.768 230.793 216.429 230.793C217.406 230.793 218.199 231.095 218.806 231.699C219.417 232.303 219.748 233.105 219.797 234.103L219.803 234.469C219.803 235.155 219.665 235.767 219.388 236.307C219.116 236.847 218.723 237.265 218.21 237.56C217.701 237.856 217.112 238.004 216.442 238.004C215.42 238.004 214.601 237.678 213.985 237.027C213.373 236.372 213.068 235.5 213.068 234.411V234.334ZM214.695 234.469C214.695 235.185 214.849 235.746 215.157 236.153C215.465 236.556 215.893 236.757 216.442 236.757C216.991 236.757 217.418 236.551 217.721 236.14C218.029 235.729 218.183 235.127 218.183 234.334C218.183 233.632 218.025 233.075 217.708 232.663C217.395 232.252 216.969 232.046 216.429 232.046C215.898 232.046 215.476 232.25 215.163 232.657C214.851 233.06 214.695 233.664 214.695 234.469Z" fill="#FFF7CC"/>
<path d="M227.544 235.722L228.695 230.922H230.282L228.307 237.875H226.968L225.414 233.1L223.888 237.875H222.549L220.567 230.922H222.154L223.325 235.671L224.812 230.922H226.037L227.544 235.722Z" fill="#FFF7CC"/>
<path d="M232.88 230.922L232.927 231.725C233.462 231.104 234.165 230.793 235.036 230.793C236.545 230.793 237.312 231.622 237.339 233.28V237.875H235.712V233.37C235.712 232.929 235.612 232.603 235.411 232.393C235.214 232.179 234.891 232.072 234.44 232.072C233.784 232.072 233.295 232.357 232.974 232.927V237.875H231.347V230.922H232.88Z" fill="#FFF7CC"/>
<path d="M248.273 233.698H244.269V236.577H248.949V237.875H242.575V228.518H248.903V229.829H244.269V232.413H248.273V233.698Z" fill="#FFF7CC"/>
<path d="M253.964 232.348C253.75 232.314 253.529 232.297 253.302 232.297C252.556 232.297 252.054 232.571 251.795 233.12V237.875H250.168V230.922H251.721L251.762 231.699C252.154 231.095 252.699 230.793 253.395 230.793C253.627 230.793 253.819 230.823 253.971 230.883L253.964 232.348Z" fill="#FFF7CC"/>
<path d="M258.785 232.348C258.571 232.314 258.35 232.297 258.122 232.297C257.377 232.297 256.875 232.571 256.616 233.12V237.875H254.989V230.922H256.542L256.582 231.699C256.975 231.095 257.52 230.793 258.216 230.793C258.448 230.793 258.64 230.823 258.792 230.883L258.785 232.348Z" fill="#FFF7CC"/>
<path d="M259.267 234.334C259.267 233.653 259.408 233.04 259.689 232.496C259.97 231.948 260.365 231.528 260.874 231.237C261.383 230.941 261.968 230.793 262.629 230.793C263.606 230.793 264.398 231.095 265.005 231.699C265.617 232.303 265.947 233.105 265.996 234.103L266.003 234.469C266.003 235.155 265.865 235.767 265.588 236.307C265.316 236.847 264.923 237.265 264.41 237.56C263.901 237.856 263.311 238.004 262.642 238.004C261.62 238.004 260.801 237.678 260.185 237.027C259.573 236.372 259.267 235.5 259.267 234.411V234.334ZM260.894 234.469C260.894 235.185 261.048 235.746 261.356 236.153C261.664 236.556 262.093 236.757 262.642 236.757C263.191 236.757 263.617 236.551 263.921 236.14C264.229 235.729 264.383 235.127 264.383 234.334C264.383 233.632 264.224 233.075 263.907 232.663C263.595 232.252 263.169 232.046 262.629 232.046C262.097 232.046 261.675 232.25 261.363 232.657C261.051 233.06 260.894 233.664 260.894 234.469Z" fill="#FFF7CC"/>
<path d="M271.172 232.348C270.958 232.314 270.737 232.297 270.509 232.297C269.764 232.297 269.262 232.571 269.003 233.12V237.875H267.376V230.922H268.929L268.969 231.699C269.362 231.095 269.907 230.793 270.603 230.793C270.835 230.793 271.027 230.823 271.179 230.883L271.172 232.348Z" fill="#FFF7CC"/>
<path d="M272.049 236.23C272.353 236.23 272.587 236.314 272.752 236.481C272.917 236.644 273 236.849 273 237.098C273 237.342 272.917 237.545 272.752 237.708C272.587 237.867 272.353 237.946 272.049 237.946C271.759 237.946 271.529 237.867 271.36 237.708C271.19 237.55 271.105 237.346 271.105 237.098C271.105 236.849 271.188 236.644 271.353 236.481C271.518 236.314 271.75 236.23 272.049 236.23Z" fill="#FFF7CC"/>
<path d="M150.259 124.719L161.281 125.54C161.281 125.54 177.3 147.227 144.782 202.914L101.995 200.794L98.7773 140.796L104.049 123.762H123.217L150.259 124.719Z" fill="#FFF7CC"/>
<path d="M162.788 161.729C162.788 161.729 166.005 155.025 163.952 140.18" stroke="#FBD2D4" stroke-width="1.5516" stroke-miterlimit="10"/>
<path d="M71.5478 128.385L94.8644 128.99L92.2211 156.683L69.0239 154.928C60.9006 154.047 55.5108 146.227 57.5036 138.327C59.1638 132.026 65.0861 127.813 71.5478 128.385Z" fill="#F58B8E"/>
<path d="M100.055 124.761C107.63 122.43 115.726 126.845 117.819 134.462C119.868 141.933 115.568 149.643 108.095 151.784L85.8255 158.162L79.2359 131.184L100.055 124.761Z" fill="#FFF7CC"/>
<path d="M85.8261 158.162L104.238 152.875" stroke="#FBD2D4" stroke-width="1.5516" stroke-miterlimit="10"/>
<path d="M141.246 77.8813C142.547 78.7708 151.515 81.0975 151.651 82.7394C151.651 82.7394 148.707 94.2324 151.719 96.3534C159.865 102.169 162.466 113.457 162.466 113.457C162.466 113.457 141.036 129.532 84.0109 112.63C84.0109 112.63 83.3268 105.789 93.7331 100.864C96.6769 99.4276 99.347 97.3071 100.99 94.4339C102.291 92.1764 102.497 91.2186 102.839 89.2347C103.73 83.5566 119.271 62.7606 141.246 77.8813Z" fill="black"/>
<path d="M140.422 95.0551C140.148 98.8177 143.023 102.102 146.789 102.376C150.554 102.65 153.84 99.7765 154.114 96.0139C154.388 92.2513 151.513 88.9673 147.748 88.6933C143.914 88.4194 140.696 91.2924 140.422 95.0551Z" fill="#C91118"/>
<path d="M138.18 108.239L137.221 123.084C136.879 128.283 134.757 131.841 129.622 131.499C125.241 131.225 120.038 127.668 119.764 123.289L122.366 99.9609L138.18 108.239Z" fill="#F58B8E"/>
<path d="M141.26 123.973L114.287 123.016C114.287 123.016 114.971 136.288 130.991 135.056C142.081 134.235 141.26 123.973 141.26 123.973Z" fill="#F58B8E"/>
<path d="M137.358 120.484L120.106 103.586L138.316 106.664L137.358 120.484Z" fill="#C91118"/>
<path d="M132.823 114.209C141.585 114.21 148.843 107.301 149.117 100.118L149.666 83.2201C150.009 74.2581 143.164 66.5955 134.127 65.979C124.954 65.3626 115.369 72.1347 114.683 81.3702L114.408 94.9842C114.202 105.451 122.28 113.456 132.823 114.209Z" fill="#F58B8E"/>
<path d="M139.878 94.164L140.425 98.4056L138.235 98.4738" stroke="black" stroke-width="1.2385" stroke-miterlimit="10" stroke-linecap="round" stroke-linejoin="round"/>
<path d="M131.004 85.4995C134.504 84.9995 136.436 82.5155 136.504 84.4995C136.504 84.4995 136.114 86.8443 131.869 87.0492C127.624 87.3226 126.529 86.9804 126.119 85.749C125.776 84.5175 127.504 85.9995 131.004 85.4995Z" fill="black"/>
<path d="M145.419 86.6215C143.734 86.3236 141.899 84.0538 141.252 85.7457C141.252 85.7457 140.836 86.9226 143.981 87.6175C147.113 88.3797 148.196 88.1542 148.375 87.1437C148.712 86.0223 147.105 86.9194 145.419 86.6215Z" fill="black"/>
<path d="M143.165 92.5916C143.165 93.4809 143.781 94.1651 144.671 94.1652C145.561 94.1652 146.246 93.5496 146.246 92.6602C146.246 91.7709 145.63 91.0867 144.74 91.0866C143.918 91.0182 143.165 91.7022 143.165 92.5916Z" fill="black"/>
<path d="M130.087 92.1103C130.087 92.9996 130.703 93.6838 131.593 93.6839C132.483 93.684 133.168 93.0683 133.168 92.1789C133.168 91.2896 132.552 90.6054 131.662 90.6054C130.84 90.6053 130.156 91.2894 130.087 92.1103Z" fill="black"/>
<path d="M139.985 103.3C139.004 101.498 134.898 102.266 133.004 103.998C132.071 104.852 132.25 106.242 132.504 106.498C133.673 107.676 136.98 104.948 137.992 104.723" stroke="black" stroke-width="1.2385" stroke-miterlimit="10" stroke-linecap="round" stroke-linejoin="round"/>
<path d="M128.65 63.037C130.841 62.9003 133.032 63.1741 135.154 63.7216C140.425 65.0902 149.872 68.9905 151.515 79.1156C152.062 81.7837 151.651 82.673 151.651 82.673C151.651 82.673 133.989 83.3557 123.583 78.4293C122.077 84.7915 120.707 88.6908 114.408 94.9158L108.864 86.5691L102.565 92.1784C102.565 92.3837 102.567 64.4716 128.65 63.037Z" fill="black"/>
<path d="M105.235 95.1215C104.961 98.8841 107.836 102.168 111.601 102.442C115.366 102.716 118.653 99.8429 118.927 96.0803C119.201 92.3177 116.326 89.0337 112.561 88.7597C108.795 88.4858 105.509 91.3588 105.235 95.1215Z" fill="#F58B8E"/>
<path d="M114.682 97.516C114.682 97.516 115.024 92.5904 110.232 93.0005" stroke="black" stroke-width="1.2385" stroke-miterlimit="10" stroke-linecap="round" stroke-linejoin="round"/>
<path d="M109.664 101.588C109.664 101.588 117.312 92.7158 117.498 88.5008C119.498 84.8341 123.498 76.0008 123.498 70.0008C123.498 64.0008 117.831 66.1674 114.998 68.0008L108.998 74.5008L104.998 87.5008L99.2801 93.9633L58.3347 135.781L77.0657 145.548L109.664 101.588Z" fill="#F58B8E"/>
<path d="M69.7101 153.075L81.0284 141.003" stroke="#C91118" stroke-width="1.5" stroke-miterlimit="10"/>
<path d="M220 127V92H223.5L225 127H220Z" fill="#333333"/>
<path d="M220.254 99.6505C222.17 97 224.851 97 224.851 97L225.923 99.8273C225.98 99.772 225.945 99.8253 225.956 99.9134L226 100.029C225.972 99.9882 225.961 99.9481 225.956 99.9134L225.923 99.8273C225.795 99.9515 225.2 100.624 222.553 102.68C218.263 106.012 218.339 102.301 220.254 99.6505Z" fill="#F58B8E"/>
<path d="M221.075 103.272C222.717 101 225.015 101 225.015 101L225.934 103.423C225.983 103.376 225.953 103.422 225.962 103.497L226 103.596C225.976 103.561 225.966 103.527 225.962 103.497L225.934 103.423C225.825 103.53 225.314 104.106 223.045 105.868C219.368 108.724 219.434 105.544 221.075 103.272Z" fill="#F58B8E"/>
<path d="M221.896 106.272C223.264 104 225.179 104 225.179 104L225.945 106.423C225.986 106.376 225.961 106.422 225.969 106.497L226 106.596C225.98 106.561 225.972 106.527 225.969 106.497L225.945 106.423C225.854 106.53 225.428 107.106 223.538 108.868C220.473 111.724 220.528 108.544 221.896 106.272Z" fill="#F58B8E"/>
<path d="M222.896 109.272C224.264 107 226.179 107 226.179 107L226.945 109.423C226.986 109.376 226.961 109.422 226.969 109.497L227 109.596C226.98 109.561 226.972 109.527 226.969 109.497L226.945 109.423C226.854 109.53 226.428 110.106 224.538 111.868C221.473 114.724 221.528 111.544 222.896 109.272Z" fill="#F58B8E"/>
<ellipse cx="222" cy="89" rx="7" ry="8" fill="#333333"/>
<path d="M220.5 91L220 80H225L224.5 91H220.5Z" fill="#FBD2D4"/>
<path fill-rule="evenodd" clip-rule="evenodd" d="M226.63 165.055L203.887 204.448H249.374L226.63 165.055ZM226.63 170.657L208.739 201.646H244.522L226.63 170.657Z" fill="#FFF7CC"/>
<rect x="225.23" y="179.41" width="2.45112" height="13.6563" fill="#FFF7CC"/>
<circle cx="226.456" cy="196.745" r="2.27604" fill="#FFF7CC"/>
<path d="M88.5012 55.5004C87.6678 52.6671 93.0012 47.0004 96.5012 50.0004C102.106 54.8049 97.6679 57.8338 95.0012 61.0004L99.5012 66.5004" stroke="#FBD2D4" stroke-width="2"/>
<circle cx="101.5" cy="68.5" r="1.5" fill="#FBD2D4"/>
<path d="M155.409 53.1981C157.228 50.8712 164.94 51.9091 164.538 56.5014C163.895 63.8557 158.848 62.0099 154.721 61.685L152.868 68.5456" stroke="#FBD2D4" stroke-width="2"/>
<circle cx="152.407" cy="71.335" r="1.5" transform="rotate(54.4004 152.407 71.335)" fill="#FBD2D4"/>
<path d="M130.839 34.7684C132.658 32.4415 140.37 33.4795 139.968 38.0717C139.324 45.426 134.278 43.5802 130.151 43.2553L128.298 50.1159" stroke="#FBD2D4" stroke-width="2"/>
<circle cx="127.837" cy="52.9053" r="1.5" transform="rotate(54.4004 127.837 52.9053)" fill="#FBD2D4"/>
</g>
<defs>
<clipPath id="clip0">
<rect width="392" height="308" fill="white" transform="matrix(-1 0 0 1 392 0)"/>
</clipPath>
</defs>
</svg>
