<svg width="16" height="12" viewBox="0 0 16 12" fill="none" xmlns="http://www.w3.org/2000/svg">
<path fill-rule="evenodd" clip-rule="evenodd" d="M1 8.10039V11.6004H15V10.2004C15 8.02707 13.2256 6.70039 11.15 6.70039H9.74998C8.94041 6.70039 8.47581 6.85305 8.1762 7.07573C8.09619 7.1352 8.03287 7.19625 7.98217 7.25202C7.36845 6.90101 6.65766 6.70039 5.9 6.70039H2.4C1.6268 6.70039 1 7.32719 1 8.10039ZM2.4 7.40039H5.9C7.833 7.40039 9.4 8.96739 9.4 10.9004H1.7V8.10039C1.7 7.71379 2.0134 7.40039 2.4 7.40039ZM8.56875 7.65712C9.50382 8.42744 10.1 9.59429 10.1 10.9004H14.3V10.2004C14.3 8.50772 12.9403 7.40039 11.15 7.40039H9.74998C9.01956 7.40039 8.72583 7.5394 8.59377 7.63755C8.58504 7.64403 8.57673 7.65055 8.56875 7.65712Z" fill="black"/>
<path fill-rule="evenodd" clip-rule="evenodd" d="M7.3 2.85039C7.3 4.20349 6.2031 5.30039 4.85 5.30039C3.4969 5.30039 2.4 4.20349 2.4 2.85039C2.4 1.49729 3.4969 0.400391 4.85 0.400391C6.2031 0.400391 7.3 1.49729 7.3 2.85039ZM6.6 2.85039C6.6 3.81689 5.8165 4.60039 4.85 4.60039C3.8835 4.60039 3.1 3.81689 3.1 2.85039C3.1 1.88389 3.8835 1.10039 4.85 1.10039C5.8165 1.10039 6.6 1.88389 6.6 2.85039Z" fill="black"/>
<path fill-rule="evenodd" clip-rule="evenodd" d="M10.45 5.30039C11.4165 5.30039 12.2 4.51689 12.2 3.55039C12.2 2.58389 11.4165 1.80039 10.45 1.80039C9.4835 1.80039 8.7 2.58389 8.7 3.55039C8.7 4.51689 9.4835 5.30039 10.45 5.30039ZM11.5 3.55039C11.5 4.13029 11.0299 4.60039 10.45 4.60039C9.8701 4.60039 9.4 4.13029 9.4 3.55039C9.4 2.97049 9.8701 2.50039 10.45 2.50039C11.0299 2.50039 11.5 2.97049 11.5 3.55039Z" fill="black"/>
<path fill-rule="evenodd" clip-rule="evenodd" d="M1 8.10039V11.6004H15V10.2004C15 8.02707 13.2256 6.70039 11.15 6.70039H9.74998C8.94041 6.70039 8.47581 6.85305 8.1762 7.07573C8.09619 7.1352 8.03287 7.19625 7.98217 7.25202C7.36845 6.90101 6.65766 6.70039 5.9 6.70039H2.4C1.6268 6.70039 1 7.32719 1 8.10039ZM2.4 7.40039H5.9C7.833 7.40039 9.4 8.96739 9.4 10.9004H1.7V8.10039C1.7 7.71379 2.0134 7.40039 2.4 7.40039ZM8.56875 7.65712C9.50382 8.42744 10.1 9.59429 10.1 10.9004H14.3V10.2004C14.3 8.50772 12.9403 7.40039 11.15 7.40039H9.74998C9.01956 7.40039 8.72583 7.5394 8.59377 7.63755C8.58504 7.64403 8.57673 7.65055 8.56875 7.65712Z" stroke="black" stroke-width="0.3"/>
<path fill-rule="evenodd" clip-rule="evenodd" d="M7.3 2.85039C7.3 4.20349 6.2031 5.30039 4.85 5.30039C3.4969 5.30039 2.4 4.20349 2.4 2.85039C2.4 1.49729 3.4969 0.400391 4.85 0.400391C6.2031 0.400391 7.3 1.49729 7.3 2.85039ZM6.6 2.85039C6.6 3.81689 5.8165 4.60039 4.85 4.60039C3.8835 4.60039 3.1 3.81689 3.1 2.85039C3.1 1.88389 3.8835 1.10039 4.85 1.10039C5.8165 1.10039 6.6 1.88389 6.6 2.85039Z" stroke="black" stroke-width="0.3"/>
<path fill-rule="evenodd" clip-rule="evenodd" d="M10.45 5.30039C11.4165 5.30039 12.2 4.51689 12.2 3.55039C12.2 2.58389 11.4165 1.80039 10.45 1.80039C9.4835 1.80039 8.7 2.58389 8.7 3.55039C8.7 4.51689 9.4835 5.30039 10.45 5.30039ZM11.5 3.55039C11.5 4.13029 11.0299 4.60039 10.45 4.60039C9.8701 4.60039 9.4 4.13029 9.4 3.55039C9.4 2.97049 9.8701 2.50039 10.45 2.50039C11.0299 2.50039 11.5 2.97049 11.5 3.55039Z" stroke="black" stroke-width="0.3"/>
</svg>
