<svg width="24" height="24" viewBox="0 0 24 24" fill="none" xmlns="http://www.w3.org/2000/svg">
<path fill-rule="evenodd" clip-rule="evenodd" d="M9.13629 8.6012C8.19138 9.01282 7.31629 9.62944 6.56544 10.4312L5.09605 12.0002L6.56544 13.5692C7.33455 14.3904 8.21065 15.0171 9.17117 15.4283C8.18441 14.6131 7.55556 13.3801 7.55556 12.0002C7.55556 10.6366 8.16961 9.41648 9.13629 8.6012ZM14.8288 15.4283C15.7894 15.017 16.6655 14.3904 17.4346 13.5692L18.904 12.0002L17.4346 10.4312C16.6837 9.62945 15.8086 9.01283 14.8637 8.60122C15.8304 9.41649 16.4444 10.6366 16.4444 12.0002C16.4444 13.3801 15.8156 14.6131 14.8288 15.4283ZM18.0185 9.88434L20 12.0002L18.0185 14.116C16.4067 15.8371 14.3358 16.8002 12 16.8002C9.66415 16.8002 7.59331 15.8371 5.98153 14.116L4 12.0002L5.98153 9.88434C7.59552 8.16095 9.75131 7.2002 12 7.2002C14.2487 7.2002 16.4045 8.16095 18.0185 9.88434ZM10.8 12.0002C11.4627 12.0002 12 11.4629 12 10.8002C12 10.6605 11.9761 10.5263 11.9322 10.4016C11.9547 10.4007 11.9773 10.4002 12 10.4002C12.8837 10.4002 13.6 11.1165 13.6 12.0002C13.6 12.8839 12.8837 13.6002 12 13.6002C11.1163 13.6002 10.4 12.8839 10.4 12.0002C10.4 11.9775 10.4005 11.9549 10.4014 11.9324C10.5261 11.9763 10.6603 12.0002 10.8 12.0002ZM15.4444 12.0002C15.4444 13.9025 13.9023 15.4446 12 15.4446C10.0977 15.4446 8.55556 13.9025 8.55556 12.0002C8.55556 10.0979 10.0977 8.55575 12 8.55575C13.9023 8.55575 15.4444 10.0979 15.4444 12.0002Z" fill="black" fill-opacity="0.54"/>
<rect x="0.5" y="0.5" width="23" height="23" rx="3.5" stroke="black" stroke-opacity="0.08"/>
</svg>
