<svg width="10" height="16" viewBox="0 0 10 16" fill="none" xmlns="http://www.w3.org/2000/svg">
<path d="M2.96211 10.8687C2.96211 10.8687 2.95898 10.8656 2.95898 10.8625L2.32148 12.4563C2.25898 12.6125 2.16523 12.7563 2.04336 12.875L0.218359 14.7031C-0.0753906 14.9969 -0.0753906 15.4719 0.218359 15.7625C0.365234 15.9094 0.555859 15.9812 0.746484 15.9812C0.937109 15.9812 1.13086 15.9094 1.27461 15.7625L3.09961 13.9344C3.36523 13.6687 3.56836 13.3562 3.70586 13.0125L4.12773 11.9594L2.99648 10.9125L2.96211 10.8687ZM6.49336 3C7.32148 3 7.99023 2.32812 7.99023 1.5C7.99023 0.671875 7.31836 0 6.49336 0C5.66523 0 4.99648 0.671875 4.99648 1.5C4.99648 2.32812 5.66523 3 6.49336 3ZM9.76523 8.46562L8.84961 7.5625C8.82148 7.53438 8.79961 7.5 8.78711 7.4625L8.38398 6.25C7.93398 4.90312 6.68398 4 5.26523 4C4.17773 4 3.60898 4.275 2.27461 4.8125C1.62148 5.075 1.09023 5.56563 0.768359 6.2125L0.318359 7.18437C-0.0972656 8.08125 1.25898 8.71875 1.67773 7.81563L2.11523 6.86562C2.26523 6.56562 2.51836 6.33437 2.82773 6.20937C3.50586 5.9375 3.86211 5.7875 4.21211 5.675L3.59336 8.15C3.44648 8.74062 3.60273 9.3625 4.05898 9.85625L6.52773 12.1375C6.71211 12.3094 6.84023 12.5281 6.89648 12.775L7.50586 15.425C7.58711 15.7844 7.95586 16.0875 8.40273 15.9875C8.80586 15.8938 9.05586 15.4906 8.96211 15.0875L8.35273 12.4406C8.22773 11.9 7.94648 11.4156 7.54023 11.0375L5.85898 9.4875L6.67773 6.2125C6.90898 6.51562 6.91211 6.60625 7.35898 7.94375C7.44648 8.20312 7.59336 8.44063 7.79023 8.6375L8.70586 9.54375C9.40273 10.2156 10.4777 9.17188 9.76523 8.46562Z" fill="#A3ACC2"/>
</svg>
