<svg width="24" height="24" viewBox="0 0 24 24" fill="none" xmlns="http://www.w3.org/2000/svg">
<rect width="24" height="24" rx="4" fill="white"/>
<path d="M17.1429 11.1429H12.8571V6.85714C12.8571 6.38571 12.4714 6 12 6C11.5286 6 11.1429 6.38571 11.1429 6.85714V11.1429H6.85714C6.38571 11.1429 6 11.5286 6 12C6 12.4714 6.38571 12.8571 6.85714 12.8571H11.1429V17.1429C11.1429 17.6143 11.5286 18 12 18C12.4714 18 12.8571 17.6143 12.8571 17.1429V12.8571H17.1429C17.6143 12.8571 18 12.4714 18 12C18 11.5286 17.6143 11.1429 17.1429 11.1429Z" fill="black" fill-opacity="0.54"/>
<rect x="0.5" y="0.5" width="23" height="23" rx="3.5" stroke="black" stroke-opacity="0.08"/>
</svg>
